G75*
%MOIN*%
%OFA0B0*%
%FSLAX25Y25*%
%IPPOS*%
%LPD*%
%AMOC8*
5,1,8,0,0,1.08239X$1,22.5*
%
%ADD10C,0.18900*%
%ADD11OC8,0.18900*%
%ADD12C,0.10800*%
%ADD13C,0.08830*%
%ADD14C,0.01328*%
%ADD15OC8,0.06056*%
%ADD16OC8,0.13200*%
%ADD17C,0.13200*%
%ADD18OC8,0.15824*%
%ADD19C,0.00000*%
%ADD20C,0.17398*%
%ADD21C,0.15824*%
%ADD22C,0.07224*%
%ADD23C,0.05973*%
%ADD24C,0.04762*%
D10*
X0116533Y0081022D03*
X0116533Y0166022D03*
X0355037Y0129447D03*
D11*
X0355037Y0089447D03*
X0156533Y0081022D03*
X0156533Y0166022D03*
D12*
X0047438Y0158747D02*
X0037438Y0158747D01*
X0037438Y0060147D02*
X0047438Y0060147D01*
D13*
X0073856Y0070747D02*
X0081886Y0070747D01*
X0081886Y0100274D02*
X0073856Y0100274D01*
X0073856Y0129802D02*
X0081886Y0129802D01*
X0081886Y0169172D02*
X0073856Y0169172D01*
X0281962Y0053128D02*
X0281962Y0045098D01*
X0303462Y0045098D02*
X0303462Y0053128D01*
X0324962Y0053128D02*
X0324962Y0045098D01*
D14*
X0099099Y0048529D02*
X0099763Y0049193D01*
X0099763Y0046993D01*
X0098208Y0045438D01*
X0096008Y0045438D01*
X0094453Y0046993D01*
X0094453Y0049193D01*
X0096008Y0050748D01*
X0098208Y0050748D01*
X0099763Y0049193D01*
X0098767Y0048781D01*
X0098767Y0047405D01*
X0097796Y0046434D01*
X0096420Y0046434D01*
X0095449Y0047405D01*
X0095449Y0048781D01*
X0096420Y0049752D01*
X0097796Y0049752D01*
X0098767Y0048781D01*
X0097771Y0048368D01*
X0097771Y0047818D01*
X0097383Y0047430D01*
X0096833Y0047430D01*
X0096445Y0047818D01*
X0096445Y0048368D01*
X0096833Y0048756D01*
X0097383Y0048756D01*
X0097771Y0048368D01*
X0077885Y0027316D02*
X0078549Y0027980D01*
X0078549Y0025780D01*
X0076994Y0024225D01*
X0074794Y0024225D01*
X0073239Y0025780D01*
X0073239Y0027980D01*
X0074794Y0029535D01*
X0076994Y0029535D01*
X0078549Y0027980D01*
X0077553Y0027568D01*
X0077553Y0026192D01*
X0076582Y0025221D01*
X0075206Y0025221D01*
X0074235Y0026192D01*
X0074235Y0027568D01*
X0075206Y0028539D01*
X0076582Y0028539D01*
X0077553Y0027568D01*
X0076557Y0027155D01*
X0076557Y0026605D01*
X0076169Y0026217D01*
X0075619Y0026217D01*
X0075231Y0026605D01*
X0075231Y0027155D01*
X0075619Y0027543D01*
X0076169Y0027543D01*
X0076557Y0027155D01*
D15*
X0200037Y0071022D03*
X0240037Y0071022D03*
X0265037Y0071022D03*
X0290037Y0071022D03*
X0290037Y0121022D03*
X0265037Y0121022D03*
X0240037Y0121022D03*
X0200037Y0121022D03*
D16*
X0250037Y0161022D03*
D17*
X0280037Y0161022D03*
D18*
X0303777Y0022833D03*
X0146296Y0022833D03*
D19*
X0005037Y0011022D02*
X0005037Y0207873D01*
X0398737Y0207873D01*
X0398737Y0011022D01*
X0005037Y0011022D01*
D20*
X0027674Y0023818D03*
X0027674Y0195077D03*
X0376100Y0195077D03*
X0376100Y0023818D03*
D21*
X0370013Y0061022D02*
X0385037Y0061022D01*
X0385037Y0156022D02*
X0370013Y0156022D01*
X0027471Y0115399D02*
X0016848Y0126022D01*
X0016848Y0081022D02*
X0027471Y0070399D01*
D22*
X0220037Y0076022D03*
X0220037Y0116022D03*
D23*
X0216037Y0044318D02*
X0216037Y0039144D01*
X0225037Y0039144D02*
X0225037Y0044318D01*
X0234037Y0044318D02*
X0234037Y0039144D01*
D24*
X0225037Y0026022D03*
X0225037Y0021022D03*
X0195037Y0021022D03*
X0170037Y0051022D03*
X0195037Y0066022D03*
X0175037Y0086022D03*
X0170037Y0086022D03*
X0170037Y0091022D03*
X0175037Y0091022D03*
X0175037Y0096022D03*
X0180037Y0096022D03*
X0170037Y0096022D03*
X0135037Y0121022D03*
X0135037Y0126022D03*
X0135037Y0131022D03*
X0135037Y0136022D03*
X0135037Y0141022D03*
X0135037Y0146022D03*
X0175037Y0141022D03*
X0175037Y0126022D03*
X0135037Y0181022D03*
X0140037Y0196022D03*
X0180037Y0196022D03*
X0220037Y0196022D03*
X0265037Y0196022D03*
X0305037Y0196022D03*
X0305037Y0171022D03*
X0305037Y0136022D03*
X0310037Y0136022D03*
X0310037Y0131022D03*
X0305037Y0131022D03*
X0305037Y0126022D03*
X0310037Y0126022D03*
M02*
