G75*
%MOIN*%
%OFA0B0*%
%FSLAX25Y25*%
%IPPOS*%
%LPD*%
%AMOC8*
5,1,8,0,0,1.08239X$1,22.5*
%
%ADD10C,0.00300*%
%ADD11C,0.00600*%
%ADD12C,0.01000*%
%ADD13R,0.05000X0.20000*%
%ADD14C,0.00200*%
%ADD15R,0.16000X0.01500*%
%ADD16R,0.00500X0.03500*%
%ADD17R,0.04500X0.02500*%
%ADD18R,0.16000X0.02500*%
%ADD19R,0.02000X0.40000*%
%ADD20R,0.00500X0.15500*%
%ADD21R,0.02000X0.19000*%
%ADD22C,0.03200*%
%ADD23C,0.00500*%
%ADD24R,0.20200X0.03200*%
%ADD25R,0.62000X0.04500*%
%ADD26R,0.04000X0.01500*%
%ADD27R,0.10500X0.01500*%
%ADD28R,0.11000X0.01500*%
%ADD29C,0.03000*%
%ADD30R,0.03000X0.01100*%
%ADD31R,0.02500X0.15000*%
%ADD32R,0.20000X0.05000*%
%ADD33C,0.00000*%
%ADD34R,0.10000X0.02000*%
%ADD35R,0.03000X0.07500*%
%ADD36R,0.03000X0.01500*%
%ADD37R,0.02000X0.01500*%
%ADD38R,0.07000X0.01500*%
D10*
X0281325Y0199938D02*
X0281325Y0203641D01*
X0283177Y0203641D01*
X0283794Y0203024D01*
X0283794Y0201789D01*
X0283177Y0201172D01*
X0281325Y0201172D01*
X0280104Y0201172D02*
X0278870Y0201172D01*
X0279487Y0201172D02*
X0279487Y0203641D01*
X0278870Y0203641D01*
X0277655Y0203024D02*
X0277038Y0203641D01*
X0275187Y0203641D01*
X0275187Y0204875D02*
X0275187Y0201172D01*
X0277038Y0201172D01*
X0277655Y0201789D01*
X0277655Y0203024D01*
X0279487Y0204875D02*
X0279487Y0205493D01*
X0285008Y0203024D02*
X0285008Y0201789D01*
X0285625Y0201172D01*
X0286860Y0201172D01*
X0287477Y0201789D01*
X0287477Y0203024D01*
X0286860Y0203641D01*
X0285625Y0203641D01*
X0285008Y0203024D01*
X0288691Y0204875D02*
X0289309Y0204875D01*
X0289309Y0201172D01*
X0289926Y0201172D02*
X0288691Y0201172D01*
X0291147Y0201789D02*
X0291764Y0202407D01*
X0293616Y0202407D01*
X0293616Y0203024D02*
X0293616Y0201172D01*
X0291764Y0201172D01*
X0291147Y0201789D01*
X0291764Y0203641D02*
X0292998Y0203641D01*
X0293616Y0203024D01*
X0294830Y0203641D02*
X0294830Y0201172D01*
X0294830Y0202407D02*
X0296064Y0203641D01*
X0296682Y0203641D01*
X0301582Y0203641D02*
X0301582Y0201172D01*
X0301582Y0203641D02*
X0303434Y0203641D01*
X0304051Y0203024D01*
X0304051Y0201172D01*
X0305266Y0201789D02*
X0305266Y0203024D01*
X0305883Y0203641D01*
X0307117Y0203641D01*
X0307734Y0203024D01*
X0307734Y0202407D01*
X0305266Y0202407D01*
X0305266Y0201789D02*
X0305883Y0201172D01*
X0307117Y0201172D01*
X0308949Y0201789D02*
X0309566Y0201172D01*
X0311417Y0201172D01*
X0311417Y0200555D02*
X0311417Y0203641D01*
X0309566Y0203641D01*
X0308949Y0203024D01*
X0308949Y0201789D01*
X0310183Y0199938D02*
X0310800Y0199938D01*
X0311417Y0200555D01*
X0312632Y0201789D02*
X0313249Y0202407D01*
X0315101Y0202407D01*
X0315101Y0203024D02*
X0315101Y0201172D01*
X0313249Y0201172D01*
X0312632Y0201789D01*
X0313249Y0203641D02*
X0314483Y0203641D01*
X0315101Y0203024D01*
X0316315Y0203641D02*
X0317549Y0203641D01*
X0316932Y0204258D02*
X0316932Y0201789D01*
X0317549Y0201172D01*
X0318770Y0201172D02*
X0320005Y0201172D01*
X0319388Y0201172D02*
X0319388Y0203641D01*
X0318770Y0203641D01*
X0319388Y0204875D02*
X0319388Y0205493D01*
X0321226Y0203641D02*
X0322460Y0201172D01*
X0323695Y0203641D01*
X0324909Y0203024D02*
X0325526Y0203641D01*
X0326761Y0203641D01*
X0327378Y0203024D01*
X0327378Y0202407D01*
X0324909Y0202407D01*
X0324909Y0203024D02*
X0324909Y0201789D01*
X0325526Y0201172D01*
X0326761Y0201172D01*
X0332275Y0201172D02*
X0334127Y0201172D01*
X0334744Y0201789D01*
X0334127Y0202407D01*
X0332892Y0202407D01*
X0332275Y0203024D01*
X0332892Y0203641D01*
X0334744Y0203641D01*
X0335958Y0203641D02*
X0335958Y0201789D01*
X0336576Y0201172D01*
X0338427Y0201172D01*
X0338427Y0203641D01*
X0339642Y0203641D02*
X0341493Y0203641D01*
X0342110Y0203024D01*
X0342110Y0201789D01*
X0341493Y0201172D01*
X0339642Y0201172D01*
X0339642Y0199938D02*
X0339642Y0203641D01*
X0343325Y0203641D02*
X0345176Y0203641D01*
X0345793Y0203024D01*
X0345793Y0201789D01*
X0345176Y0201172D01*
X0343325Y0201172D01*
X0343325Y0199938D02*
X0343325Y0203641D01*
X0347008Y0204875D02*
X0347625Y0204875D01*
X0347625Y0201172D01*
X0347008Y0201172D02*
X0348242Y0201172D01*
X0349463Y0201789D02*
X0349463Y0203641D01*
X0349463Y0201789D02*
X0350080Y0201172D01*
X0351932Y0201172D01*
X0351932Y0200555D02*
X0351315Y0199938D01*
X0350698Y0199938D01*
X0351932Y0200555D02*
X0351932Y0203641D01*
D11*
X0369004Y0173328D02*
X0367837Y0172161D01*
X0367837Y0167490D01*
X0369004Y0166322D01*
X0371340Y0166322D01*
X0372507Y0167490D01*
X0372507Y0169825D01*
X0370172Y0169825D01*
X0372507Y0172161D02*
X0371340Y0173328D01*
X0369004Y0173328D01*
X0374834Y0173328D02*
X0379505Y0166322D01*
X0379505Y0173328D01*
X0381832Y0173328D02*
X0385335Y0173328D01*
X0386503Y0172161D01*
X0386503Y0167490D01*
X0385335Y0166322D01*
X0381832Y0166322D01*
X0381832Y0173328D01*
X0374834Y0173328D02*
X0374834Y0166322D01*
X0294537Y0161022D02*
X0288537Y0161022D01*
X0291537Y0164022D02*
X0291537Y0158022D01*
X0273037Y0161022D02*
X0268537Y0161022D01*
X0268537Y0168522D01*
X0266037Y0168522D01*
X0266037Y0153522D01*
X0268537Y0153522D01*
X0268537Y0161022D01*
X0232537Y0161022D02*
X0232547Y0161820D01*
X0232576Y0162617D01*
X0232625Y0163413D01*
X0232693Y0164208D01*
X0232781Y0165000D01*
X0232889Y0165791D01*
X0233015Y0166578D01*
X0233161Y0167362D01*
X0233327Y0168143D01*
X0233511Y0168919D01*
X0233714Y0169690D01*
X0233936Y0170456D01*
X0234177Y0171217D01*
X0234437Y0171971D01*
X0234715Y0172719D01*
X0235011Y0173459D01*
X0235325Y0174192D01*
X0235657Y0174918D01*
X0236007Y0175634D01*
X0236375Y0176342D01*
X0236759Y0177041D01*
X0237161Y0177730D01*
X0237579Y0178409D01*
X0238014Y0179078D01*
X0238465Y0179736D01*
X0238933Y0180382D01*
X0239416Y0181017D01*
X0239914Y0181640D01*
X0240428Y0182250D01*
X0240956Y0182848D01*
X0241499Y0183432D01*
X0242056Y0184003D01*
X0242627Y0184560D01*
X0243211Y0185103D01*
X0243809Y0185631D01*
X0244419Y0186145D01*
X0245042Y0186643D01*
X0245677Y0187126D01*
X0246323Y0187594D01*
X0246981Y0188045D01*
X0247650Y0188480D01*
X0248329Y0188898D01*
X0249018Y0189300D01*
X0249717Y0189684D01*
X0250425Y0190052D01*
X0251141Y0190402D01*
X0251867Y0190734D01*
X0252600Y0191048D01*
X0253340Y0191344D01*
X0254088Y0191622D01*
X0254842Y0191882D01*
X0255603Y0192123D01*
X0256369Y0192345D01*
X0257140Y0192548D01*
X0257916Y0192732D01*
X0258697Y0192898D01*
X0259481Y0193044D01*
X0260268Y0193170D01*
X0261059Y0193278D01*
X0261851Y0193366D01*
X0262646Y0193434D01*
X0263442Y0193483D01*
X0264239Y0193512D01*
X0265037Y0193522D01*
X0265835Y0193512D01*
X0266632Y0193483D01*
X0267428Y0193434D01*
X0268223Y0193366D01*
X0269015Y0193278D01*
X0269806Y0193170D01*
X0270593Y0193044D01*
X0271377Y0192898D01*
X0272158Y0192732D01*
X0272934Y0192548D01*
X0273705Y0192345D01*
X0274471Y0192123D01*
X0275232Y0191882D01*
X0275986Y0191622D01*
X0276734Y0191344D01*
X0277474Y0191048D01*
X0278207Y0190734D01*
X0278933Y0190402D01*
X0279649Y0190052D01*
X0280357Y0189684D01*
X0281056Y0189300D01*
X0281745Y0188898D01*
X0282424Y0188480D01*
X0283093Y0188045D01*
X0283751Y0187594D01*
X0284397Y0187126D01*
X0285032Y0186643D01*
X0285655Y0186145D01*
X0286265Y0185631D01*
X0286863Y0185103D01*
X0287447Y0184560D01*
X0288018Y0184003D01*
X0288575Y0183432D01*
X0289118Y0182848D01*
X0289646Y0182250D01*
X0290160Y0181640D01*
X0290658Y0181017D01*
X0291141Y0180382D01*
X0291609Y0179736D01*
X0292060Y0179078D01*
X0292495Y0178409D01*
X0292913Y0177730D01*
X0293315Y0177041D01*
X0293699Y0176342D01*
X0294067Y0175634D01*
X0294417Y0174918D01*
X0294749Y0174192D01*
X0295063Y0173459D01*
X0295359Y0172719D01*
X0295637Y0171971D01*
X0295897Y0171217D01*
X0296138Y0170456D01*
X0296360Y0169690D01*
X0296563Y0168919D01*
X0296747Y0168143D01*
X0296913Y0167362D01*
X0297059Y0166578D01*
X0297185Y0165791D01*
X0297293Y0165000D01*
X0297381Y0164208D01*
X0297449Y0163413D01*
X0297498Y0162617D01*
X0297527Y0161820D01*
X0297537Y0161022D01*
X0297527Y0160224D01*
X0297498Y0159427D01*
X0297449Y0158631D01*
X0297381Y0157836D01*
X0297293Y0157044D01*
X0297185Y0156253D01*
X0297059Y0155466D01*
X0296913Y0154682D01*
X0296747Y0153901D01*
X0296563Y0153125D01*
X0296360Y0152354D01*
X0296138Y0151588D01*
X0295897Y0150827D01*
X0295637Y0150073D01*
X0295359Y0149325D01*
X0295063Y0148585D01*
X0294749Y0147852D01*
X0294417Y0147126D01*
X0294067Y0146410D01*
X0293699Y0145702D01*
X0293315Y0145003D01*
X0292913Y0144314D01*
X0292495Y0143635D01*
X0292060Y0142966D01*
X0291609Y0142308D01*
X0291141Y0141662D01*
X0290658Y0141027D01*
X0290160Y0140404D01*
X0289646Y0139794D01*
X0289118Y0139196D01*
X0288575Y0138612D01*
X0288018Y0138041D01*
X0287447Y0137484D01*
X0286863Y0136941D01*
X0286265Y0136413D01*
X0285655Y0135899D01*
X0285032Y0135401D01*
X0284397Y0134918D01*
X0283751Y0134450D01*
X0283093Y0133999D01*
X0282424Y0133564D01*
X0281745Y0133146D01*
X0281056Y0132744D01*
X0280357Y0132360D01*
X0279649Y0131992D01*
X0278933Y0131642D01*
X0278207Y0131310D01*
X0277474Y0130996D01*
X0276734Y0130700D01*
X0275986Y0130422D01*
X0275232Y0130162D01*
X0274471Y0129921D01*
X0273705Y0129699D01*
X0272934Y0129496D01*
X0272158Y0129312D01*
X0271377Y0129146D01*
X0270593Y0129000D01*
X0269806Y0128874D01*
X0269015Y0128766D01*
X0268223Y0128678D01*
X0267428Y0128610D01*
X0266632Y0128561D01*
X0265835Y0128532D01*
X0265037Y0128522D01*
X0264239Y0128532D01*
X0263442Y0128561D01*
X0262646Y0128610D01*
X0261851Y0128678D01*
X0261059Y0128766D01*
X0260268Y0128874D01*
X0259481Y0129000D01*
X0258697Y0129146D01*
X0257916Y0129312D01*
X0257140Y0129496D01*
X0256369Y0129699D01*
X0255603Y0129921D01*
X0254842Y0130162D01*
X0254088Y0130422D01*
X0253340Y0130700D01*
X0252600Y0130996D01*
X0251867Y0131310D01*
X0251141Y0131642D01*
X0250425Y0131992D01*
X0249717Y0132360D01*
X0249018Y0132744D01*
X0248329Y0133146D01*
X0247650Y0133564D01*
X0246981Y0133999D01*
X0246323Y0134450D01*
X0245677Y0134918D01*
X0245042Y0135401D01*
X0244419Y0135899D01*
X0243809Y0136413D01*
X0243211Y0136941D01*
X0242627Y0137484D01*
X0242056Y0138041D01*
X0241499Y0138612D01*
X0240956Y0139196D01*
X0240428Y0139794D01*
X0239914Y0140404D01*
X0239416Y0141027D01*
X0238933Y0141662D01*
X0238465Y0142308D01*
X0238014Y0142966D01*
X0237579Y0143635D01*
X0237161Y0144314D01*
X0236759Y0145003D01*
X0236375Y0145702D01*
X0236007Y0146410D01*
X0235657Y0147126D01*
X0235325Y0147852D01*
X0235011Y0148585D01*
X0234715Y0149325D01*
X0234437Y0150073D01*
X0234177Y0150827D01*
X0233936Y0151588D01*
X0233714Y0152354D01*
X0233511Y0153125D01*
X0233327Y0153901D01*
X0233161Y0154682D01*
X0233015Y0155466D01*
X0232889Y0156253D01*
X0232781Y0157044D01*
X0232693Y0157836D01*
X0232625Y0158631D01*
X0232576Y0159427D01*
X0232547Y0160224D01*
X0232537Y0161022D01*
X0257037Y0161022D02*
X0262537Y0161022D01*
X0258537Y0116022D02*
X0271537Y0116022D01*
X0271613Y0116020D01*
X0271689Y0116014D01*
X0271764Y0116005D01*
X0271839Y0115991D01*
X0271913Y0115974D01*
X0271986Y0115953D01*
X0272058Y0115929D01*
X0272129Y0115900D01*
X0272198Y0115869D01*
X0272265Y0115834D01*
X0272330Y0115795D01*
X0272394Y0115753D01*
X0272455Y0115708D01*
X0272514Y0115660D01*
X0272570Y0115609D01*
X0272624Y0115555D01*
X0272675Y0115499D01*
X0272723Y0115440D01*
X0272768Y0115379D01*
X0272810Y0115315D01*
X0272849Y0115250D01*
X0272884Y0115183D01*
X0272915Y0115114D01*
X0272944Y0115043D01*
X0272968Y0114971D01*
X0272989Y0114898D01*
X0273006Y0114824D01*
X0273020Y0114749D01*
X0273029Y0114674D01*
X0273035Y0114598D01*
X0273037Y0114522D01*
X0273037Y0112022D01*
X0272537Y0111522D01*
X0272537Y0080522D01*
X0273037Y0080022D01*
X0273037Y0077522D01*
X0273035Y0077446D01*
X0273029Y0077370D01*
X0273020Y0077295D01*
X0273006Y0077220D01*
X0272989Y0077146D01*
X0272968Y0077073D01*
X0272944Y0077001D01*
X0272915Y0076930D01*
X0272884Y0076861D01*
X0272849Y0076794D01*
X0272810Y0076729D01*
X0272768Y0076665D01*
X0272723Y0076604D01*
X0272675Y0076545D01*
X0272624Y0076489D01*
X0272570Y0076435D01*
X0272514Y0076384D01*
X0272455Y0076336D01*
X0272394Y0076291D01*
X0272330Y0076249D01*
X0272265Y0076210D01*
X0272198Y0076175D01*
X0272129Y0076144D01*
X0272058Y0076115D01*
X0271986Y0076091D01*
X0271913Y0076070D01*
X0271839Y0076053D01*
X0271764Y0076039D01*
X0271689Y0076030D01*
X0271613Y0076024D01*
X0271537Y0076022D01*
X0258537Y0076022D01*
X0258461Y0076024D01*
X0258385Y0076030D01*
X0258310Y0076039D01*
X0258235Y0076053D01*
X0258161Y0076070D01*
X0258088Y0076091D01*
X0258016Y0076115D01*
X0257945Y0076144D01*
X0257876Y0076175D01*
X0257809Y0076210D01*
X0257744Y0076249D01*
X0257680Y0076291D01*
X0257619Y0076336D01*
X0257560Y0076384D01*
X0257504Y0076435D01*
X0257450Y0076489D01*
X0257399Y0076545D01*
X0257351Y0076604D01*
X0257306Y0076665D01*
X0257264Y0076729D01*
X0257225Y0076794D01*
X0257190Y0076861D01*
X0257159Y0076930D01*
X0257130Y0077001D01*
X0257106Y0077073D01*
X0257085Y0077146D01*
X0257068Y0077220D01*
X0257054Y0077295D01*
X0257045Y0077370D01*
X0257039Y0077446D01*
X0257037Y0077522D01*
X0257037Y0080022D01*
X0257537Y0080522D01*
X0257537Y0111522D01*
X0257037Y0112022D01*
X0257037Y0114522D01*
X0257039Y0114598D01*
X0257045Y0114674D01*
X0257054Y0114749D01*
X0257068Y0114824D01*
X0257085Y0114898D01*
X0257106Y0114971D01*
X0257130Y0115043D01*
X0257159Y0115114D01*
X0257190Y0115183D01*
X0257225Y0115250D01*
X0257264Y0115315D01*
X0257306Y0115379D01*
X0257351Y0115440D01*
X0257399Y0115499D01*
X0257450Y0115555D01*
X0257504Y0115609D01*
X0257560Y0115660D01*
X0257619Y0115708D01*
X0257680Y0115753D01*
X0257744Y0115795D01*
X0257809Y0115834D01*
X0257876Y0115869D01*
X0257945Y0115900D01*
X0258016Y0115929D01*
X0258088Y0115953D01*
X0258161Y0115974D01*
X0258235Y0115991D01*
X0258310Y0116005D01*
X0258385Y0116014D01*
X0258461Y0116020D01*
X0258537Y0116022D01*
X0248037Y0114522D02*
X0248037Y0112022D01*
X0247537Y0111522D01*
X0247537Y0080522D01*
X0248037Y0080022D01*
X0248037Y0077522D01*
X0248035Y0077446D01*
X0248029Y0077370D01*
X0248020Y0077295D01*
X0248006Y0077220D01*
X0247989Y0077146D01*
X0247968Y0077073D01*
X0247944Y0077001D01*
X0247915Y0076930D01*
X0247884Y0076861D01*
X0247849Y0076794D01*
X0247810Y0076729D01*
X0247768Y0076665D01*
X0247723Y0076604D01*
X0247675Y0076545D01*
X0247624Y0076489D01*
X0247570Y0076435D01*
X0247514Y0076384D01*
X0247455Y0076336D01*
X0247394Y0076291D01*
X0247330Y0076249D01*
X0247265Y0076210D01*
X0247198Y0076175D01*
X0247129Y0076144D01*
X0247058Y0076115D01*
X0246986Y0076091D01*
X0246913Y0076070D01*
X0246839Y0076053D01*
X0246764Y0076039D01*
X0246689Y0076030D01*
X0246613Y0076024D01*
X0246537Y0076022D01*
X0233537Y0076022D01*
X0233461Y0076024D01*
X0233385Y0076030D01*
X0233310Y0076039D01*
X0233235Y0076053D01*
X0233161Y0076070D01*
X0233088Y0076091D01*
X0233016Y0076115D01*
X0232945Y0076144D01*
X0232876Y0076175D01*
X0232809Y0076210D01*
X0232744Y0076249D01*
X0232680Y0076291D01*
X0232619Y0076336D01*
X0232560Y0076384D01*
X0232504Y0076435D01*
X0232450Y0076489D01*
X0232399Y0076545D01*
X0232351Y0076604D01*
X0232306Y0076665D01*
X0232264Y0076729D01*
X0232225Y0076794D01*
X0232190Y0076861D01*
X0232159Y0076930D01*
X0232130Y0077001D01*
X0232106Y0077073D01*
X0232085Y0077146D01*
X0232068Y0077220D01*
X0232054Y0077295D01*
X0232045Y0077370D01*
X0232039Y0077446D01*
X0232037Y0077522D01*
X0232037Y0080022D01*
X0232537Y0080522D01*
X0232537Y0111522D01*
X0232037Y0112022D01*
X0232037Y0114522D01*
X0232039Y0114598D01*
X0232045Y0114674D01*
X0232054Y0114749D01*
X0232068Y0114824D01*
X0232085Y0114898D01*
X0232106Y0114971D01*
X0232130Y0115043D01*
X0232159Y0115114D01*
X0232190Y0115183D01*
X0232225Y0115250D01*
X0232264Y0115315D01*
X0232306Y0115379D01*
X0232351Y0115440D01*
X0232399Y0115499D01*
X0232450Y0115555D01*
X0232504Y0115609D01*
X0232560Y0115660D01*
X0232619Y0115708D01*
X0232680Y0115753D01*
X0232744Y0115795D01*
X0232809Y0115834D01*
X0232876Y0115869D01*
X0232945Y0115900D01*
X0233016Y0115929D01*
X0233088Y0115953D01*
X0233161Y0115974D01*
X0233235Y0115991D01*
X0233310Y0116005D01*
X0233385Y0116014D01*
X0233461Y0116020D01*
X0233537Y0116022D01*
X0246537Y0116022D01*
X0246613Y0116020D01*
X0246689Y0116014D01*
X0246764Y0116005D01*
X0246839Y0115991D01*
X0246913Y0115974D01*
X0246986Y0115953D01*
X0247058Y0115929D01*
X0247129Y0115900D01*
X0247198Y0115869D01*
X0247265Y0115834D01*
X0247330Y0115795D01*
X0247394Y0115753D01*
X0247455Y0115708D01*
X0247514Y0115660D01*
X0247570Y0115609D01*
X0247624Y0115555D01*
X0247675Y0115499D01*
X0247723Y0115440D01*
X0247768Y0115379D01*
X0247810Y0115315D01*
X0247849Y0115250D01*
X0247884Y0115183D01*
X0247915Y0115114D01*
X0247944Y0115043D01*
X0247968Y0114971D01*
X0247989Y0114898D01*
X0248006Y0114824D01*
X0248020Y0114749D01*
X0248029Y0114674D01*
X0248035Y0114598D01*
X0248037Y0114522D01*
X0225037Y0104022D02*
X0215037Y0104022D01*
X0215037Y0088022D01*
X0225037Y0088022D01*
X0225037Y0104022D01*
X0222537Y0100022D02*
X0217537Y0100022D01*
X0220037Y0096022D01*
X0222537Y0096022D01*
X0220037Y0096022D02*
X0220037Y0093522D01*
X0220037Y0096022D02*
X0217537Y0096022D01*
X0220037Y0096022D02*
X0220037Y0102022D01*
X0222537Y0100022D02*
X0220037Y0096022D01*
X0207537Y0111522D02*
X0207537Y0080522D01*
X0208037Y0080022D01*
X0208037Y0077522D01*
X0208035Y0077446D01*
X0208029Y0077370D01*
X0208020Y0077295D01*
X0208006Y0077220D01*
X0207989Y0077146D01*
X0207968Y0077073D01*
X0207944Y0077001D01*
X0207915Y0076930D01*
X0207884Y0076861D01*
X0207849Y0076794D01*
X0207810Y0076729D01*
X0207768Y0076665D01*
X0207723Y0076604D01*
X0207675Y0076545D01*
X0207624Y0076489D01*
X0207570Y0076435D01*
X0207514Y0076384D01*
X0207455Y0076336D01*
X0207394Y0076291D01*
X0207330Y0076249D01*
X0207265Y0076210D01*
X0207198Y0076175D01*
X0207129Y0076144D01*
X0207058Y0076115D01*
X0206986Y0076091D01*
X0206913Y0076070D01*
X0206839Y0076053D01*
X0206764Y0076039D01*
X0206689Y0076030D01*
X0206613Y0076024D01*
X0206537Y0076022D01*
X0193537Y0076022D01*
X0193461Y0076024D01*
X0193385Y0076030D01*
X0193310Y0076039D01*
X0193235Y0076053D01*
X0193161Y0076070D01*
X0193088Y0076091D01*
X0193016Y0076115D01*
X0192945Y0076144D01*
X0192876Y0076175D01*
X0192809Y0076210D01*
X0192744Y0076249D01*
X0192680Y0076291D01*
X0192619Y0076336D01*
X0192560Y0076384D01*
X0192504Y0076435D01*
X0192450Y0076489D01*
X0192399Y0076545D01*
X0192351Y0076604D01*
X0192306Y0076665D01*
X0192264Y0076729D01*
X0192225Y0076794D01*
X0192190Y0076861D01*
X0192159Y0076930D01*
X0192130Y0077001D01*
X0192106Y0077073D01*
X0192085Y0077146D01*
X0192068Y0077220D01*
X0192054Y0077295D01*
X0192045Y0077370D01*
X0192039Y0077446D01*
X0192037Y0077522D01*
X0192037Y0080022D01*
X0192537Y0080522D01*
X0192537Y0111522D01*
X0192037Y0112022D01*
X0192037Y0114522D01*
X0192039Y0114598D01*
X0192045Y0114674D01*
X0192054Y0114749D01*
X0192068Y0114824D01*
X0192085Y0114898D01*
X0192106Y0114971D01*
X0192130Y0115043D01*
X0192159Y0115114D01*
X0192190Y0115183D01*
X0192225Y0115250D01*
X0192264Y0115315D01*
X0192306Y0115379D01*
X0192351Y0115440D01*
X0192399Y0115499D01*
X0192450Y0115555D01*
X0192504Y0115609D01*
X0192560Y0115660D01*
X0192619Y0115708D01*
X0192680Y0115753D01*
X0192744Y0115795D01*
X0192809Y0115834D01*
X0192876Y0115869D01*
X0192945Y0115900D01*
X0193016Y0115929D01*
X0193088Y0115953D01*
X0193161Y0115974D01*
X0193235Y0115991D01*
X0193310Y0116005D01*
X0193385Y0116014D01*
X0193461Y0116020D01*
X0193537Y0116022D01*
X0206537Y0116022D01*
X0206613Y0116020D01*
X0206689Y0116014D01*
X0206764Y0116005D01*
X0206839Y0115991D01*
X0206913Y0115974D01*
X0206986Y0115953D01*
X0207058Y0115929D01*
X0207129Y0115900D01*
X0207198Y0115869D01*
X0207265Y0115834D01*
X0207330Y0115795D01*
X0207394Y0115753D01*
X0207455Y0115708D01*
X0207514Y0115660D01*
X0207570Y0115609D01*
X0207624Y0115555D01*
X0207675Y0115499D01*
X0207723Y0115440D01*
X0207768Y0115379D01*
X0207810Y0115315D01*
X0207849Y0115250D01*
X0207884Y0115183D01*
X0207915Y0115114D01*
X0207944Y0115043D01*
X0207968Y0114971D01*
X0207989Y0114898D01*
X0208006Y0114824D01*
X0208020Y0114749D01*
X0208029Y0114674D01*
X0208035Y0114598D01*
X0208037Y0114522D01*
X0208037Y0112022D01*
X0207537Y0111522D01*
X0106533Y0081022D02*
X0106542Y0081758D01*
X0106569Y0082494D01*
X0106614Y0083229D01*
X0106677Y0083963D01*
X0106759Y0084694D01*
X0106858Y0085424D01*
X0106975Y0086151D01*
X0107109Y0086875D01*
X0107262Y0087595D01*
X0107432Y0088311D01*
X0107620Y0089023D01*
X0107825Y0089731D01*
X0108047Y0090432D01*
X0108287Y0091129D01*
X0108543Y0091819D01*
X0108817Y0092503D01*
X0109107Y0093179D01*
X0109413Y0093849D01*
X0109736Y0094510D01*
X0110075Y0095164D01*
X0110430Y0095809D01*
X0110801Y0096445D01*
X0111187Y0097072D01*
X0111589Y0097689D01*
X0112005Y0098296D01*
X0112437Y0098893D01*
X0112883Y0099479D01*
X0113343Y0100054D01*
X0113817Y0100617D01*
X0114304Y0101169D01*
X0114806Y0101708D01*
X0115320Y0102235D01*
X0115847Y0102749D01*
X0116386Y0103251D01*
X0116938Y0103738D01*
X0117501Y0104212D01*
X0118076Y0104672D01*
X0118662Y0105118D01*
X0119259Y0105550D01*
X0119866Y0105966D01*
X0120483Y0106368D01*
X0121110Y0106754D01*
X0121746Y0107125D01*
X0122391Y0107480D01*
X0123045Y0107819D01*
X0123706Y0108142D01*
X0124376Y0108448D01*
X0125052Y0108738D01*
X0125736Y0109012D01*
X0126426Y0109268D01*
X0127123Y0109508D01*
X0127824Y0109730D01*
X0128532Y0109935D01*
X0129244Y0110123D01*
X0129960Y0110293D01*
X0130680Y0110446D01*
X0131404Y0110580D01*
X0132131Y0110697D01*
X0132861Y0110796D01*
X0133592Y0110878D01*
X0134326Y0110941D01*
X0135061Y0110986D01*
X0135797Y0111013D01*
X0136533Y0111022D01*
X0137269Y0111013D01*
X0138005Y0110986D01*
X0138740Y0110941D01*
X0139474Y0110878D01*
X0140205Y0110796D01*
X0140935Y0110697D01*
X0141662Y0110580D01*
X0142386Y0110446D01*
X0143106Y0110293D01*
X0143822Y0110123D01*
X0144534Y0109935D01*
X0145242Y0109730D01*
X0145943Y0109508D01*
X0146640Y0109268D01*
X0147330Y0109012D01*
X0148014Y0108738D01*
X0148690Y0108448D01*
X0149360Y0108142D01*
X0150021Y0107819D01*
X0150675Y0107480D01*
X0151320Y0107125D01*
X0151956Y0106754D01*
X0152583Y0106368D01*
X0153200Y0105966D01*
X0153807Y0105550D01*
X0154404Y0105118D01*
X0154990Y0104672D01*
X0155565Y0104212D01*
X0156128Y0103738D01*
X0156680Y0103251D01*
X0157219Y0102749D01*
X0157746Y0102235D01*
X0158260Y0101708D01*
X0158762Y0101169D01*
X0159249Y0100617D01*
X0159723Y0100054D01*
X0160183Y0099479D01*
X0160629Y0098893D01*
X0161061Y0098296D01*
X0161477Y0097689D01*
X0161879Y0097072D01*
X0162265Y0096445D01*
X0162636Y0095809D01*
X0162991Y0095164D01*
X0163330Y0094510D01*
X0163653Y0093849D01*
X0163959Y0093179D01*
X0164249Y0092503D01*
X0164523Y0091819D01*
X0164779Y0091129D01*
X0165019Y0090432D01*
X0165241Y0089731D01*
X0165446Y0089023D01*
X0165634Y0088311D01*
X0165804Y0087595D01*
X0165957Y0086875D01*
X0166091Y0086151D01*
X0166208Y0085424D01*
X0166307Y0084694D01*
X0166389Y0083963D01*
X0166452Y0083229D01*
X0166497Y0082494D01*
X0166524Y0081758D01*
X0166533Y0081022D01*
X0166524Y0080286D01*
X0166497Y0079550D01*
X0166452Y0078815D01*
X0166389Y0078081D01*
X0166307Y0077350D01*
X0166208Y0076620D01*
X0166091Y0075893D01*
X0165957Y0075169D01*
X0165804Y0074449D01*
X0165634Y0073733D01*
X0165446Y0073021D01*
X0165241Y0072313D01*
X0165019Y0071612D01*
X0164779Y0070915D01*
X0164523Y0070225D01*
X0164249Y0069541D01*
X0163959Y0068865D01*
X0163653Y0068195D01*
X0163330Y0067534D01*
X0162991Y0066880D01*
X0162636Y0066235D01*
X0162265Y0065599D01*
X0161879Y0064972D01*
X0161477Y0064355D01*
X0161061Y0063748D01*
X0160629Y0063151D01*
X0160183Y0062565D01*
X0159723Y0061990D01*
X0159249Y0061427D01*
X0158762Y0060875D01*
X0158260Y0060336D01*
X0157746Y0059809D01*
X0157219Y0059295D01*
X0156680Y0058793D01*
X0156128Y0058306D01*
X0155565Y0057832D01*
X0154990Y0057372D01*
X0154404Y0056926D01*
X0153807Y0056494D01*
X0153200Y0056078D01*
X0152583Y0055676D01*
X0151956Y0055290D01*
X0151320Y0054919D01*
X0150675Y0054564D01*
X0150021Y0054225D01*
X0149360Y0053902D01*
X0148690Y0053596D01*
X0148014Y0053306D01*
X0147330Y0053032D01*
X0146640Y0052776D01*
X0145943Y0052536D01*
X0145242Y0052314D01*
X0144534Y0052109D01*
X0143822Y0051921D01*
X0143106Y0051751D01*
X0142386Y0051598D01*
X0141662Y0051464D01*
X0140935Y0051347D01*
X0140205Y0051248D01*
X0139474Y0051166D01*
X0138740Y0051103D01*
X0138005Y0051058D01*
X0137269Y0051031D01*
X0136533Y0051022D01*
X0135797Y0051031D01*
X0135061Y0051058D01*
X0134326Y0051103D01*
X0133592Y0051166D01*
X0132861Y0051248D01*
X0132131Y0051347D01*
X0131404Y0051464D01*
X0130680Y0051598D01*
X0129960Y0051751D01*
X0129244Y0051921D01*
X0128532Y0052109D01*
X0127824Y0052314D01*
X0127123Y0052536D01*
X0126426Y0052776D01*
X0125736Y0053032D01*
X0125052Y0053306D01*
X0124376Y0053596D01*
X0123706Y0053902D01*
X0123045Y0054225D01*
X0122391Y0054564D01*
X0121746Y0054919D01*
X0121110Y0055290D01*
X0120483Y0055676D01*
X0119866Y0056078D01*
X0119259Y0056494D01*
X0118662Y0056926D01*
X0118076Y0057372D01*
X0117501Y0057832D01*
X0116938Y0058306D01*
X0116386Y0058793D01*
X0115847Y0059295D01*
X0115320Y0059809D01*
X0114806Y0060336D01*
X0114304Y0060875D01*
X0113817Y0061427D01*
X0113343Y0061990D01*
X0112883Y0062565D01*
X0112437Y0063151D01*
X0112005Y0063748D01*
X0111589Y0064355D01*
X0111187Y0064972D01*
X0110801Y0065599D01*
X0110430Y0066235D01*
X0110075Y0066880D01*
X0109736Y0067534D01*
X0109413Y0068195D01*
X0109107Y0068865D01*
X0108817Y0069541D01*
X0108543Y0070225D01*
X0108287Y0070915D01*
X0108047Y0071612D01*
X0107825Y0072313D01*
X0107620Y0073021D01*
X0107432Y0073733D01*
X0107262Y0074449D01*
X0107109Y0075169D01*
X0106975Y0075893D01*
X0106858Y0076620D01*
X0106759Y0077350D01*
X0106677Y0078081D01*
X0106614Y0078815D01*
X0106569Y0079550D01*
X0106542Y0080286D01*
X0106533Y0081022D01*
X0088895Y0076652D02*
X0066848Y0076652D01*
X0069871Y0073172D02*
X0069871Y0068172D01*
X0056938Y0066947D02*
X0056938Y0064447D01*
X0050438Y0064447D01*
X0047438Y0064447D01*
X0047438Y0065447D01*
X0050438Y0065447D01*
X0054938Y0065447D01*
X0054938Y0066947D01*
X0052438Y0066947D01*
X0052438Y0086947D01*
X0056938Y0086947D01*
X0056938Y0066947D01*
X0054938Y0066947D01*
X0050438Y0057947D02*
X0063938Y0057947D01*
X0063938Y0160947D01*
X0050438Y0160947D01*
X0034438Y0160947D01*
X0020938Y0160947D01*
X0020938Y0057947D01*
X0034438Y0057947D01*
X0050438Y0057947D01*
X0066848Y0056967D02*
X0066848Y0182951D01*
X0088895Y0182951D01*
X0088895Y0056967D01*
X0066848Y0056967D01*
X0032438Y0066947D02*
X0032438Y0086947D01*
X0027938Y0086947D01*
X0027938Y0066947D01*
X0032438Y0066947D01*
X0013840Y0092161D02*
X0015007Y0093328D01*
X0013840Y0092161D02*
X0011504Y0094496D01*
X0010337Y0093328D01*
X0069871Y0095172D02*
X0069959Y0095170D01*
X0070048Y0095164D01*
X0070136Y0095154D01*
X0070223Y0095141D01*
X0070310Y0095123D01*
X0070396Y0095102D01*
X0070481Y0095077D01*
X0070564Y0095048D01*
X0070647Y0095015D01*
X0070727Y0094979D01*
X0070806Y0094940D01*
X0070884Y0094897D01*
X0070959Y0094850D01*
X0071032Y0094800D01*
X0071103Y0094747D01*
X0071172Y0094691D01*
X0071238Y0094632D01*
X0071301Y0094570D01*
X0071361Y0094506D01*
X0071419Y0094439D01*
X0071473Y0094369D01*
X0071525Y0094297D01*
X0071573Y0094223D01*
X0071618Y0094146D01*
X0071659Y0094068D01*
X0071697Y0093988D01*
X0071731Y0093907D01*
X0071762Y0093824D01*
X0071789Y0093739D01*
X0071812Y0093654D01*
X0071831Y0093568D01*
X0071847Y0093480D01*
X0071859Y0093393D01*
X0071867Y0093305D01*
X0071871Y0093216D01*
X0071871Y0093128D01*
X0071867Y0093039D01*
X0071859Y0092951D01*
X0071847Y0092864D01*
X0071831Y0092776D01*
X0071812Y0092690D01*
X0071789Y0092605D01*
X0071762Y0092520D01*
X0071731Y0092437D01*
X0071697Y0092356D01*
X0071659Y0092276D01*
X0071618Y0092198D01*
X0071573Y0092121D01*
X0071525Y0092047D01*
X0071473Y0091975D01*
X0071419Y0091905D01*
X0071361Y0091838D01*
X0071301Y0091774D01*
X0071238Y0091712D01*
X0071172Y0091653D01*
X0071103Y0091597D01*
X0071032Y0091544D01*
X0070959Y0091494D01*
X0070884Y0091447D01*
X0070806Y0091404D01*
X0070727Y0091365D01*
X0070647Y0091329D01*
X0070564Y0091296D01*
X0070481Y0091267D01*
X0070396Y0091242D01*
X0070310Y0091221D01*
X0070223Y0091203D01*
X0070136Y0091190D01*
X0070048Y0091180D01*
X0069959Y0091174D01*
X0069871Y0091172D01*
X0069871Y0095172D02*
X0069783Y0095174D01*
X0069694Y0095180D01*
X0069606Y0095190D01*
X0069519Y0095203D01*
X0069432Y0095221D01*
X0069346Y0095242D01*
X0069261Y0095267D01*
X0069178Y0095296D01*
X0069095Y0095329D01*
X0069015Y0095365D01*
X0068936Y0095404D01*
X0068858Y0095447D01*
X0068783Y0095494D01*
X0068710Y0095544D01*
X0068639Y0095597D01*
X0068570Y0095653D01*
X0068504Y0095712D01*
X0068441Y0095774D01*
X0068381Y0095838D01*
X0068323Y0095905D01*
X0068269Y0095975D01*
X0068217Y0096047D01*
X0068169Y0096121D01*
X0068124Y0096198D01*
X0068083Y0096276D01*
X0068045Y0096356D01*
X0068011Y0096437D01*
X0067980Y0096520D01*
X0067953Y0096605D01*
X0067930Y0096690D01*
X0067911Y0096776D01*
X0067895Y0096864D01*
X0067883Y0096951D01*
X0067875Y0097039D01*
X0067871Y0097128D01*
X0067871Y0097216D01*
X0067875Y0097305D01*
X0067883Y0097393D01*
X0067895Y0097480D01*
X0067911Y0097568D01*
X0067930Y0097654D01*
X0067953Y0097739D01*
X0067980Y0097824D01*
X0068011Y0097907D01*
X0068045Y0097988D01*
X0068083Y0098068D01*
X0068124Y0098146D01*
X0068169Y0098223D01*
X0068217Y0098297D01*
X0068269Y0098369D01*
X0068323Y0098439D01*
X0068381Y0098506D01*
X0068441Y0098570D01*
X0068504Y0098632D01*
X0068570Y0098691D01*
X0068639Y0098747D01*
X0068710Y0098800D01*
X0068783Y0098850D01*
X0068858Y0098897D01*
X0068936Y0098940D01*
X0069015Y0098979D01*
X0069095Y0099015D01*
X0069178Y0099048D01*
X0069261Y0099077D01*
X0069346Y0099102D01*
X0069432Y0099123D01*
X0069519Y0099141D01*
X0069606Y0099154D01*
X0069694Y0099164D01*
X0069783Y0099170D01*
X0069871Y0099172D01*
X0069871Y0121172D02*
X0069959Y0121174D01*
X0070048Y0121180D01*
X0070136Y0121190D01*
X0070223Y0121203D01*
X0070310Y0121221D01*
X0070396Y0121242D01*
X0070481Y0121267D01*
X0070564Y0121296D01*
X0070647Y0121329D01*
X0070727Y0121365D01*
X0070806Y0121404D01*
X0070884Y0121447D01*
X0070959Y0121494D01*
X0071032Y0121544D01*
X0071103Y0121597D01*
X0071172Y0121653D01*
X0071238Y0121712D01*
X0071301Y0121774D01*
X0071361Y0121838D01*
X0071419Y0121905D01*
X0071473Y0121975D01*
X0071525Y0122047D01*
X0071573Y0122121D01*
X0071618Y0122198D01*
X0071659Y0122276D01*
X0071697Y0122356D01*
X0071731Y0122437D01*
X0071762Y0122520D01*
X0071789Y0122605D01*
X0071812Y0122690D01*
X0071831Y0122776D01*
X0071847Y0122864D01*
X0071859Y0122951D01*
X0071867Y0123039D01*
X0071871Y0123128D01*
X0071871Y0123216D01*
X0071867Y0123305D01*
X0071859Y0123393D01*
X0071847Y0123480D01*
X0071831Y0123568D01*
X0071812Y0123654D01*
X0071789Y0123739D01*
X0071762Y0123824D01*
X0071731Y0123907D01*
X0071697Y0123988D01*
X0071659Y0124068D01*
X0071618Y0124146D01*
X0071573Y0124223D01*
X0071525Y0124297D01*
X0071473Y0124369D01*
X0071419Y0124439D01*
X0071361Y0124506D01*
X0071301Y0124570D01*
X0071238Y0124632D01*
X0071172Y0124691D01*
X0071103Y0124747D01*
X0071032Y0124800D01*
X0070959Y0124850D01*
X0070884Y0124897D01*
X0070806Y0124940D01*
X0070727Y0124979D01*
X0070647Y0125015D01*
X0070564Y0125048D01*
X0070481Y0125077D01*
X0070396Y0125102D01*
X0070310Y0125123D01*
X0070223Y0125141D01*
X0070136Y0125154D01*
X0070048Y0125164D01*
X0069959Y0125170D01*
X0069871Y0125172D01*
X0069783Y0125174D01*
X0069694Y0125180D01*
X0069606Y0125190D01*
X0069519Y0125203D01*
X0069432Y0125221D01*
X0069346Y0125242D01*
X0069261Y0125267D01*
X0069178Y0125296D01*
X0069095Y0125329D01*
X0069015Y0125365D01*
X0068936Y0125404D01*
X0068858Y0125447D01*
X0068783Y0125494D01*
X0068710Y0125544D01*
X0068639Y0125597D01*
X0068570Y0125653D01*
X0068504Y0125712D01*
X0068441Y0125774D01*
X0068381Y0125838D01*
X0068323Y0125905D01*
X0068269Y0125975D01*
X0068217Y0126047D01*
X0068169Y0126121D01*
X0068124Y0126198D01*
X0068083Y0126276D01*
X0068045Y0126356D01*
X0068011Y0126437D01*
X0067980Y0126520D01*
X0067953Y0126605D01*
X0067930Y0126690D01*
X0067911Y0126776D01*
X0067895Y0126864D01*
X0067883Y0126951D01*
X0067875Y0127039D01*
X0067871Y0127128D01*
X0067871Y0127216D01*
X0067875Y0127305D01*
X0067883Y0127393D01*
X0067895Y0127480D01*
X0067911Y0127568D01*
X0067930Y0127654D01*
X0067953Y0127739D01*
X0067980Y0127824D01*
X0068011Y0127907D01*
X0068045Y0127988D01*
X0068083Y0128068D01*
X0068124Y0128146D01*
X0068169Y0128223D01*
X0068217Y0128297D01*
X0068269Y0128369D01*
X0068323Y0128439D01*
X0068381Y0128506D01*
X0068441Y0128570D01*
X0068504Y0128632D01*
X0068570Y0128691D01*
X0068639Y0128747D01*
X0068710Y0128800D01*
X0068783Y0128850D01*
X0068858Y0128897D01*
X0068936Y0128940D01*
X0069015Y0128979D01*
X0069095Y0129015D01*
X0069178Y0129048D01*
X0069261Y0129077D01*
X0069346Y0129102D01*
X0069432Y0129123D01*
X0069519Y0129141D01*
X0069606Y0129154D01*
X0069694Y0129164D01*
X0069783Y0129170D01*
X0069871Y0129172D01*
X0056938Y0131947D02*
X0052438Y0131947D01*
X0052438Y0151947D01*
X0056938Y0151947D01*
X0056938Y0131947D01*
X0032438Y0131947D02*
X0027938Y0131947D01*
X0027938Y0151947D01*
X0027938Y0154447D01*
X0034438Y0154447D01*
X0037438Y0154447D01*
X0037438Y0153447D01*
X0034438Y0153447D01*
X0029938Y0153447D01*
X0029938Y0151947D01*
X0032438Y0151947D01*
X0032438Y0131947D01*
X0015007Y0138328D02*
X0013840Y0137161D01*
X0011504Y0139496D01*
X0010337Y0138328D01*
X0027938Y0151947D02*
X0029938Y0151947D01*
X0067371Y0163172D02*
X0072371Y0163172D01*
X0069871Y0165672D02*
X0069871Y0160672D01*
X0106533Y0166022D02*
X0106542Y0166758D01*
X0106569Y0167494D01*
X0106614Y0168229D01*
X0106677Y0168963D01*
X0106759Y0169694D01*
X0106858Y0170424D01*
X0106975Y0171151D01*
X0107109Y0171875D01*
X0107262Y0172595D01*
X0107432Y0173311D01*
X0107620Y0174023D01*
X0107825Y0174731D01*
X0108047Y0175432D01*
X0108287Y0176129D01*
X0108543Y0176819D01*
X0108817Y0177503D01*
X0109107Y0178179D01*
X0109413Y0178849D01*
X0109736Y0179510D01*
X0110075Y0180164D01*
X0110430Y0180809D01*
X0110801Y0181445D01*
X0111187Y0182072D01*
X0111589Y0182689D01*
X0112005Y0183296D01*
X0112437Y0183893D01*
X0112883Y0184479D01*
X0113343Y0185054D01*
X0113817Y0185617D01*
X0114304Y0186169D01*
X0114806Y0186708D01*
X0115320Y0187235D01*
X0115847Y0187749D01*
X0116386Y0188251D01*
X0116938Y0188738D01*
X0117501Y0189212D01*
X0118076Y0189672D01*
X0118662Y0190118D01*
X0119259Y0190550D01*
X0119866Y0190966D01*
X0120483Y0191368D01*
X0121110Y0191754D01*
X0121746Y0192125D01*
X0122391Y0192480D01*
X0123045Y0192819D01*
X0123706Y0193142D01*
X0124376Y0193448D01*
X0125052Y0193738D01*
X0125736Y0194012D01*
X0126426Y0194268D01*
X0127123Y0194508D01*
X0127824Y0194730D01*
X0128532Y0194935D01*
X0129244Y0195123D01*
X0129960Y0195293D01*
X0130680Y0195446D01*
X0131404Y0195580D01*
X0132131Y0195697D01*
X0132861Y0195796D01*
X0133592Y0195878D01*
X0134326Y0195941D01*
X0135061Y0195986D01*
X0135797Y0196013D01*
X0136533Y0196022D01*
X0137269Y0196013D01*
X0138005Y0195986D01*
X0138740Y0195941D01*
X0139474Y0195878D01*
X0140205Y0195796D01*
X0140935Y0195697D01*
X0141662Y0195580D01*
X0142386Y0195446D01*
X0143106Y0195293D01*
X0143822Y0195123D01*
X0144534Y0194935D01*
X0145242Y0194730D01*
X0145943Y0194508D01*
X0146640Y0194268D01*
X0147330Y0194012D01*
X0148014Y0193738D01*
X0148690Y0193448D01*
X0149360Y0193142D01*
X0150021Y0192819D01*
X0150675Y0192480D01*
X0151320Y0192125D01*
X0151956Y0191754D01*
X0152583Y0191368D01*
X0153200Y0190966D01*
X0153807Y0190550D01*
X0154404Y0190118D01*
X0154990Y0189672D01*
X0155565Y0189212D01*
X0156128Y0188738D01*
X0156680Y0188251D01*
X0157219Y0187749D01*
X0157746Y0187235D01*
X0158260Y0186708D01*
X0158762Y0186169D01*
X0159249Y0185617D01*
X0159723Y0185054D01*
X0160183Y0184479D01*
X0160629Y0183893D01*
X0161061Y0183296D01*
X0161477Y0182689D01*
X0161879Y0182072D01*
X0162265Y0181445D01*
X0162636Y0180809D01*
X0162991Y0180164D01*
X0163330Y0179510D01*
X0163653Y0178849D01*
X0163959Y0178179D01*
X0164249Y0177503D01*
X0164523Y0176819D01*
X0164779Y0176129D01*
X0165019Y0175432D01*
X0165241Y0174731D01*
X0165446Y0174023D01*
X0165634Y0173311D01*
X0165804Y0172595D01*
X0165957Y0171875D01*
X0166091Y0171151D01*
X0166208Y0170424D01*
X0166307Y0169694D01*
X0166389Y0168963D01*
X0166452Y0168229D01*
X0166497Y0167494D01*
X0166524Y0166758D01*
X0166533Y0166022D01*
X0166524Y0165286D01*
X0166497Y0164550D01*
X0166452Y0163815D01*
X0166389Y0163081D01*
X0166307Y0162350D01*
X0166208Y0161620D01*
X0166091Y0160893D01*
X0165957Y0160169D01*
X0165804Y0159449D01*
X0165634Y0158733D01*
X0165446Y0158021D01*
X0165241Y0157313D01*
X0165019Y0156612D01*
X0164779Y0155915D01*
X0164523Y0155225D01*
X0164249Y0154541D01*
X0163959Y0153865D01*
X0163653Y0153195D01*
X0163330Y0152534D01*
X0162991Y0151880D01*
X0162636Y0151235D01*
X0162265Y0150599D01*
X0161879Y0149972D01*
X0161477Y0149355D01*
X0161061Y0148748D01*
X0160629Y0148151D01*
X0160183Y0147565D01*
X0159723Y0146990D01*
X0159249Y0146427D01*
X0158762Y0145875D01*
X0158260Y0145336D01*
X0157746Y0144809D01*
X0157219Y0144295D01*
X0156680Y0143793D01*
X0156128Y0143306D01*
X0155565Y0142832D01*
X0154990Y0142372D01*
X0154404Y0141926D01*
X0153807Y0141494D01*
X0153200Y0141078D01*
X0152583Y0140676D01*
X0151956Y0140290D01*
X0151320Y0139919D01*
X0150675Y0139564D01*
X0150021Y0139225D01*
X0149360Y0138902D01*
X0148690Y0138596D01*
X0148014Y0138306D01*
X0147330Y0138032D01*
X0146640Y0137776D01*
X0145943Y0137536D01*
X0145242Y0137314D01*
X0144534Y0137109D01*
X0143822Y0136921D01*
X0143106Y0136751D01*
X0142386Y0136598D01*
X0141662Y0136464D01*
X0140935Y0136347D01*
X0140205Y0136248D01*
X0139474Y0136166D01*
X0138740Y0136103D01*
X0138005Y0136058D01*
X0137269Y0136031D01*
X0136533Y0136022D01*
X0135797Y0136031D01*
X0135061Y0136058D01*
X0134326Y0136103D01*
X0133592Y0136166D01*
X0132861Y0136248D01*
X0132131Y0136347D01*
X0131404Y0136464D01*
X0130680Y0136598D01*
X0129960Y0136751D01*
X0129244Y0136921D01*
X0128532Y0137109D01*
X0127824Y0137314D01*
X0127123Y0137536D01*
X0126426Y0137776D01*
X0125736Y0138032D01*
X0125052Y0138306D01*
X0124376Y0138596D01*
X0123706Y0138902D01*
X0123045Y0139225D01*
X0122391Y0139564D01*
X0121746Y0139919D01*
X0121110Y0140290D01*
X0120483Y0140676D01*
X0119866Y0141078D01*
X0119259Y0141494D01*
X0118662Y0141926D01*
X0118076Y0142372D01*
X0117501Y0142832D01*
X0116938Y0143306D01*
X0116386Y0143793D01*
X0115847Y0144295D01*
X0115320Y0144809D01*
X0114806Y0145336D01*
X0114304Y0145875D01*
X0113817Y0146427D01*
X0113343Y0146990D01*
X0112883Y0147565D01*
X0112437Y0148151D01*
X0112005Y0148748D01*
X0111589Y0149355D01*
X0111187Y0149972D01*
X0110801Y0150599D01*
X0110430Y0151235D01*
X0110075Y0151880D01*
X0109736Y0152534D01*
X0109413Y0153195D01*
X0109107Y0153865D01*
X0108817Y0154541D01*
X0108543Y0155225D01*
X0108287Y0155915D01*
X0108047Y0156612D01*
X0107825Y0157313D01*
X0107620Y0158021D01*
X0107432Y0158733D01*
X0107262Y0159449D01*
X0107109Y0160169D01*
X0106975Y0160893D01*
X0106858Y0161620D01*
X0106759Y0162350D01*
X0106677Y0163081D01*
X0106614Y0163815D01*
X0106569Y0164550D01*
X0106542Y0165286D01*
X0106533Y0166022D01*
X0096533Y0166022D02*
X0096545Y0167004D01*
X0096581Y0167985D01*
X0096641Y0168965D01*
X0096726Y0169943D01*
X0096834Y0170918D01*
X0096966Y0171891D01*
X0097122Y0172860D01*
X0097302Y0173826D01*
X0097505Y0174786D01*
X0097732Y0175741D01*
X0097982Y0176691D01*
X0098255Y0177633D01*
X0098552Y0178569D01*
X0098871Y0179498D01*
X0099213Y0180418D01*
X0099578Y0181329D01*
X0099965Y0182232D01*
X0100373Y0183124D01*
X0100804Y0184006D01*
X0101256Y0184878D01*
X0101730Y0185738D01*
X0102224Y0186586D01*
X0102739Y0187422D01*
X0103274Y0188245D01*
X0103830Y0189054D01*
X0104405Y0189850D01*
X0104999Y0190631D01*
X0105613Y0191398D01*
X0106245Y0192149D01*
X0106895Y0192884D01*
X0107563Y0193604D01*
X0108249Y0194306D01*
X0108951Y0194992D01*
X0109671Y0195660D01*
X0110406Y0196310D01*
X0111157Y0196942D01*
X0111924Y0197556D01*
X0112705Y0198150D01*
X0113501Y0198725D01*
X0114310Y0199281D01*
X0115133Y0199816D01*
X0115969Y0200331D01*
X0116817Y0200825D01*
X0117677Y0201299D01*
X0118549Y0201751D01*
X0119431Y0202182D01*
X0120323Y0202590D01*
X0121226Y0202977D01*
X0122137Y0203342D01*
X0123057Y0203684D01*
X0123986Y0204003D01*
X0124922Y0204300D01*
X0125864Y0204573D01*
X0126814Y0204823D01*
X0127769Y0205050D01*
X0128729Y0205253D01*
X0129695Y0205433D01*
X0130664Y0205589D01*
X0131637Y0205721D01*
X0132612Y0205829D01*
X0133590Y0205914D01*
X0134570Y0205974D01*
X0135551Y0206010D01*
X0136533Y0206022D01*
X0137515Y0206010D01*
X0138496Y0205974D01*
X0139476Y0205914D01*
X0140454Y0205829D01*
X0141429Y0205721D01*
X0142402Y0205589D01*
X0143371Y0205433D01*
X0144337Y0205253D01*
X0145297Y0205050D01*
X0146252Y0204823D01*
X0147202Y0204573D01*
X0148144Y0204300D01*
X0149080Y0204003D01*
X0150009Y0203684D01*
X0150929Y0203342D01*
X0151840Y0202977D01*
X0152743Y0202590D01*
X0153635Y0202182D01*
X0154517Y0201751D01*
X0155389Y0201299D01*
X0156249Y0200825D01*
X0157097Y0200331D01*
X0157933Y0199816D01*
X0158756Y0199281D01*
X0159565Y0198725D01*
X0160361Y0198150D01*
X0161142Y0197556D01*
X0161909Y0196942D01*
X0162660Y0196310D01*
X0163395Y0195660D01*
X0164115Y0194992D01*
X0164817Y0194306D01*
X0165503Y0193604D01*
X0166171Y0192884D01*
X0166821Y0192149D01*
X0167453Y0191398D01*
X0168067Y0190631D01*
X0168661Y0189850D01*
X0169236Y0189054D01*
X0169792Y0188245D01*
X0170327Y0187422D01*
X0170842Y0186586D01*
X0171336Y0185738D01*
X0171810Y0184878D01*
X0172262Y0184006D01*
X0172693Y0183124D01*
X0173101Y0182232D01*
X0173488Y0181329D01*
X0173853Y0180418D01*
X0174195Y0179498D01*
X0174514Y0178569D01*
X0174811Y0177633D01*
X0175084Y0176691D01*
X0175334Y0175741D01*
X0175561Y0174786D01*
X0175764Y0173826D01*
X0175944Y0172860D01*
X0176100Y0171891D01*
X0176232Y0170918D01*
X0176340Y0169943D01*
X0176425Y0168965D01*
X0176485Y0167985D01*
X0176521Y0167004D01*
X0176533Y0166022D01*
X0176521Y0165040D01*
X0176485Y0164059D01*
X0176425Y0163079D01*
X0176340Y0162101D01*
X0176232Y0161126D01*
X0176100Y0160153D01*
X0175944Y0159184D01*
X0175764Y0158218D01*
X0175561Y0157258D01*
X0175334Y0156303D01*
X0175084Y0155353D01*
X0174811Y0154411D01*
X0174514Y0153475D01*
X0174195Y0152546D01*
X0173853Y0151626D01*
X0173488Y0150715D01*
X0173101Y0149812D01*
X0172693Y0148920D01*
X0172262Y0148038D01*
X0171810Y0147166D01*
X0171336Y0146306D01*
X0170842Y0145458D01*
X0170327Y0144622D01*
X0169792Y0143799D01*
X0169236Y0142990D01*
X0168661Y0142194D01*
X0168067Y0141413D01*
X0167453Y0140646D01*
X0166821Y0139895D01*
X0166171Y0139160D01*
X0165503Y0138440D01*
X0164817Y0137738D01*
X0164115Y0137052D01*
X0163395Y0136384D01*
X0162660Y0135734D01*
X0161909Y0135102D01*
X0161142Y0134488D01*
X0160361Y0133894D01*
X0159565Y0133319D01*
X0158756Y0132763D01*
X0157933Y0132228D01*
X0157097Y0131713D01*
X0156249Y0131219D01*
X0155389Y0130745D01*
X0154517Y0130293D01*
X0153635Y0129862D01*
X0152743Y0129454D01*
X0151840Y0129067D01*
X0150929Y0128702D01*
X0150009Y0128360D01*
X0149080Y0128041D01*
X0148144Y0127744D01*
X0147202Y0127471D01*
X0146252Y0127221D01*
X0145297Y0126994D01*
X0144337Y0126791D01*
X0143371Y0126611D01*
X0142402Y0126455D01*
X0141429Y0126323D01*
X0140454Y0126215D01*
X0139476Y0126130D01*
X0138496Y0126070D01*
X0137515Y0126034D01*
X0136533Y0126022D01*
X0135551Y0126034D01*
X0134570Y0126070D01*
X0133590Y0126130D01*
X0132612Y0126215D01*
X0131637Y0126323D01*
X0130664Y0126455D01*
X0129695Y0126611D01*
X0128729Y0126791D01*
X0127769Y0126994D01*
X0126814Y0127221D01*
X0125864Y0127471D01*
X0124922Y0127744D01*
X0123986Y0128041D01*
X0123057Y0128360D01*
X0122137Y0128702D01*
X0121226Y0129067D01*
X0120323Y0129454D01*
X0119431Y0129862D01*
X0118549Y0130293D01*
X0117677Y0130745D01*
X0116817Y0131219D01*
X0115969Y0131713D01*
X0115133Y0132228D01*
X0114310Y0132763D01*
X0113501Y0133319D01*
X0112705Y0133894D01*
X0111924Y0134488D01*
X0111157Y0135102D01*
X0110406Y0135734D01*
X0109671Y0136384D01*
X0108951Y0137052D01*
X0108249Y0137738D01*
X0107563Y0138440D01*
X0106895Y0139160D01*
X0106245Y0139895D01*
X0105613Y0140646D01*
X0104999Y0141413D01*
X0104405Y0142194D01*
X0103830Y0142990D01*
X0103274Y0143799D01*
X0102739Y0144622D01*
X0102224Y0145458D01*
X0101730Y0146306D01*
X0101256Y0147166D01*
X0100804Y0148038D01*
X0100373Y0148920D01*
X0099965Y0149812D01*
X0099578Y0150715D01*
X0099213Y0151626D01*
X0098871Y0152546D01*
X0098552Y0153475D01*
X0098255Y0154411D01*
X0097982Y0155353D01*
X0097732Y0156303D01*
X0097505Y0157258D01*
X0097302Y0158218D01*
X0097122Y0159184D01*
X0096966Y0160153D01*
X0096834Y0161126D01*
X0096726Y0162101D01*
X0096641Y0163079D01*
X0096581Y0164059D01*
X0096545Y0165040D01*
X0096533Y0166022D01*
X0096533Y0081022D02*
X0096545Y0082004D01*
X0096581Y0082985D01*
X0096641Y0083965D01*
X0096726Y0084943D01*
X0096834Y0085918D01*
X0096966Y0086891D01*
X0097122Y0087860D01*
X0097302Y0088826D01*
X0097505Y0089786D01*
X0097732Y0090741D01*
X0097982Y0091691D01*
X0098255Y0092633D01*
X0098552Y0093569D01*
X0098871Y0094498D01*
X0099213Y0095418D01*
X0099578Y0096329D01*
X0099965Y0097232D01*
X0100373Y0098124D01*
X0100804Y0099006D01*
X0101256Y0099878D01*
X0101730Y0100738D01*
X0102224Y0101586D01*
X0102739Y0102422D01*
X0103274Y0103245D01*
X0103830Y0104054D01*
X0104405Y0104850D01*
X0104999Y0105631D01*
X0105613Y0106398D01*
X0106245Y0107149D01*
X0106895Y0107884D01*
X0107563Y0108604D01*
X0108249Y0109306D01*
X0108951Y0109992D01*
X0109671Y0110660D01*
X0110406Y0111310D01*
X0111157Y0111942D01*
X0111924Y0112556D01*
X0112705Y0113150D01*
X0113501Y0113725D01*
X0114310Y0114281D01*
X0115133Y0114816D01*
X0115969Y0115331D01*
X0116817Y0115825D01*
X0117677Y0116299D01*
X0118549Y0116751D01*
X0119431Y0117182D01*
X0120323Y0117590D01*
X0121226Y0117977D01*
X0122137Y0118342D01*
X0123057Y0118684D01*
X0123986Y0119003D01*
X0124922Y0119300D01*
X0125864Y0119573D01*
X0126814Y0119823D01*
X0127769Y0120050D01*
X0128729Y0120253D01*
X0129695Y0120433D01*
X0130664Y0120589D01*
X0131637Y0120721D01*
X0132612Y0120829D01*
X0133590Y0120914D01*
X0134570Y0120974D01*
X0135551Y0121010D01*
X0136533Y0121022D01*
X0137515Y0121010D01*
X0138496Y0120974D01*
X0139476Y0120914D01*
X0140454Y0120829D01*
X0141429Y0120721D01*
X0142402Y0120589D01*
X0143371Y0120433D01*
X0144337Y0120253D01*
X0145297Y0120050D01*
X0146252Y0119823D01*
X0147202Y0119573D01*
X0148144Y0119300D01*
X0149080Y0119003D01*
X0150009Y0118684D01*
X0150929Y0118342D01*
X0151840Y0117977D01*
X0152743Y0117590D01*
X0153635Y0117182D01*
X0154517Y0116751D01*
X0155389Y0116299D01*
X0156249Y0115825D01*
X0157097Y0115331D01*
X0157933Y0114816D01*
X0158756Y0114281D01*
X0159565Y0113725D01*
X0160361Y0113150D01*
X0161142Y0112556D01*
X0161909Y0111942D01*
X0162660Y0111310D01*
X0163395Y0110660D01*
X0164115Y0109992D01*
X0164817Y0109306D01*
X0165503Y0108604D01*
X0166171Y0107884D01*
X0166821Y0107149D01*
X0167453Y0106398D01*
X0168067Y0105631D01*
X0168661Y0104850D01*
X0169236Y0104054D01*
X0169792Y0103245D01*
X0170327Y0102422D01*
X0170842Y0101586D01*
X0171336Y0100738D01*
X0171810Y0099878D01*
X0172262Y0099006D01*
X0172693Y0098124D01*
X0173101Y0097232D01*
X0173488Y0096329D01*
X0173853Y0095418D01*
X0174195Y0094498D01*
X0174514Y0093569D01*
X0174811Y0092633D01*
X0175084Y0091691D01*
X0175334Y0090741D01*
X0175561Y0089786D01*
X0175764Y0088826D01*
X0175944Y0087860D01*
X0176100Y0086891D01*
X0176232Y0085918D01*
X0176340Y0084943D01*
X0176425Y0083965D01*
X0176485Y0082985D01*
X0176521Y0082004D01*
X0176533Y0081022D01*
X0176521Y0080040D01*
X0176485Y0079059D01*
X0176425Y0078079D01*
X0176340Y0077101D01*
X0176232Y0076126D01*
X0176100Y0075153D01*
X0175944Y0074184D01*
X0175764Y0073218D01*
X0175561Y0072258D01*
X0175334Y0071303D01*
X0175084Y0070353D01*
X0174811Y0069411D01*
X0174514Y0068475D01*
X0174195Y0067546D01*
X0173853Y0066626D01*
X0173488Y0065715D01*
X0173101Y0064812D01*
X0172693Y0063920D01*
X0172262Y0063038D01*
X0171810Y0062166D01*
X0171336Y0061306D01*
X0170842Y0060458D01*
X0170327Y0059622D01*
X0169792Y0058799D01*
X0169236Y0057990D01*
X0168661Y0057194D01*
X0168067Y0056413D01*
X0167453Y0055646D01*
X0166821Y0054895D01*
X0166171Y0054160D01*
X0165503Y0053440D01*
X0164817Y0052738D01*
X0164115Y0052052D01*
X0163395Y0051384D01*
X0162660Y0050734D01*
X0161909Y0050102D01*
X0161142Y0049488D01*
X0160361Y0048894D01*
X0159565Y0048319D01*
X0158756Y0047763D01*
X0157933Y0047228D01*
X0157097Y0046713D01*
X0156249Y0046219D01*
X0155389Y0045745D01*
X0154517Y0045293D01*
X0153635Y0044862D01*
X0152743Y0044454D01*
X0151840Y0044067D01*
X0150929Y0043702D01*
X0150009Y0043360D01*
X0149080Y0043041D01*
X0148144Y0042744D01*
X0147202Y0042471D01*
X0146252Y0042221D01*
X0145297Y0041994D01*
X0144337Y0041791D01*
X0143371Y0041611D01*
X0142402Y0041455D01*
X0141429Y0041323D01*
X0140454Y0041215D01*
X0139476Y0041130D01*
X0138496Y0041070D01*
X0137515Y0041034D01*
X0136533Y0041022D01*
X0135551Y0041034D01*
X0134570Y0041070D01*
X0133590Y0041130D01*
X0132612Y0041215D01*
X0131637Y0041323D01*
X0130664Y0041455D01*
X0129695Y0041611D01*
X0128729Y0041791D01*
X0127769Y0041994D01*
X0126814Y0042221D01*
X0125864Y0042471D01*
X0124922Y0042744D01*
X0123986Y0043041D01*
X0123057Y0043360D01*
X0122137Y0043702D01*
X0121226Y0044067D01*
X0120323Y0044454D01*
X0119431Y0044862D01*
X0118549Y0045293D01*
X0117677Y0045745D01*
X0116817Y0046219D01*
X0115969Y0046713D01*
X0115133Y0047228D01*
X0114310Y0047763D01*
X0113501Y0048319D01*
X0112705Y0048894D01*
X0111924Y0049488D01*
X0111157Y0050102D01*
X0110406Y0050734D01*
X0109671Y0051384D01*
X0108951Y0052052D01*
X0108249Y0052738D01*
X0107563Y0053440D01*
X0106895Y0054160D01*
X0106245Y0054895D01*
X0105613Y0055646D01*
X0104999Y0056413D01*
X0104405Y0057194D01*
X0103830Y0057990D01*
X0103274Y0058799D01*
X0102739Y0059622D01*
X0102224Y0060458D01*
X0101730Y0061306D01*
X0101256Y0062166D01*
X0100804Y0063038D01*
X0100373Y0063920D01*
X0099965Y0064812D01*
X0099578Y0065715D01*
X0099213Y0066626D01*
X0098871Y0067546D01*
X0098552Y0068475D01*
X0098255Y0069411D01*
X0097982Y0070353D01*
X0097732Y0071303D01*
X0097505Y0072258D01*
X0097302Y0073218D01*
X0097122Y0074184D01*
X0096966Y0075153D01*
X0096834Y0076126D01*
X0096726Y0077101D01*
X0096641Y0078079D01*
X0096581Y0079059D01*
X0096545Y0080040D01*
X0096533Y0081022D01*
X0068394Y0026880D02*
X0068396Y0027064D01*
X0068403Y0027248D01*
X0068414Y0027432D01*
X0068430Y0027615D01*
X0068450Y0027798D01*
X0068475Y0027980D01*
X0068504Y0028162D01*
X0068538Y0028343D01*
X0068576Y0028523D01*
X0068619Y0028702D01*
X0068666Y0028880D01*
X0068717Y0029057D01*
X0068773Y0029233D01*
X0068832Y0029407D01*
X0068897Y0029579D01*
X0068965Y0029750D01*
X0069037Y0029919D01*
X0069114Y0030087D01*
X0069195Y0030252D01*
X0069280Y0030415D01*
X0069368Y0030577D01*
X0069461Y0030736D01*
X0069558Y0030892D01*
X0069658Y0031047D01*
X0069762Y0031199D01*
X0069870Y0031348D01*
X0069981Y0031494D01*
X0070096Y0031638D01*
X0070215Y0031779D01*
X0070337Y0031917D01*
X0070462Y0032052D01*
X0070591Y0032183D01*
X0070722Y0032312D01*
X0070857Y0032437D01*
X0070995Y0032559D01*
X0071136Y0032678D01*
X0071280Y0032793D01*
X0071426Y0032904D01*
X0071575Y0033012D01*
X0071727Y0033116D01*
X0071882Y0033216D01*
X0072038Y0033313D01*
X0072197Y0033406D01*
X0072359Y0033494D01*
X0072522Y0033579D01*
X0072687Y0033660D01*
X0072855Y0033737D01*
X0073024Y0033809D01*
X0073195Y0033877D01*
X0073367Y0033942D01*
X0073541Y0034001D01*
X0073717Y0034057D01*
X0073894Y0034108D01*
X0074072Y0034155D01*
X0074251Y0034198D01*
X0074431Y0034236D01*
X0074612Y0034270D01*
X0074794Y0034299D01*
X0074976Y0034324D01*
X0075159Y0034344D01*
X0075342Y0034360D01*
X0075526Y0034371D01*
X0075710Y0034378D01*
X0075894Y0034380D01*
X0076078Y0034378D01*
X0076262Y0034371D01*
X0076446Y0034360D01*
X0076629Y0034344D01*
X0076812Y0034324D01*
X0076994Y0034299D01*
X0077176Y0034270D01*
X0077357Y0034236D01*
X0077537Y0034198D01*
X0077716Y0034155D01*
X0077894Y0034108D01*
X0078071Y0034057D01*
X0078247Y0034001D01*
X0078421Y0033942D01*
X0078593Y0033877D01*
X0078764Y0033809D01*
X0078933Y0033737D01*
X0079101Y0033660D01*
X0079266Y0033579D01*
X0079429Y0033494D01*
X0079591Y0033406D01*
X0079750Y0033313D01*
X0079906Y0033216D01*
X0080061Y0033116D01*
X0080213Y0033012D01*
X0080362Y0032904D01*
X0080508Y0032793D01*
X0080652Y0032678D01*
X0080793Y0032559D01*
X0080931Y0032437D01*
X0081066Y0032312D01*
X0081197Y0032183D01*
X0081326Y0032052D01*
X0081451Y0031917D01*
X0081573Y0031779D01*
X0081692Y0031638D01*
X0081807Y0031494D01*
X0081918Y0031348D01*
X0082026Y0031199D01*
X0082130Y0031047D01*
X0082230Y0030892D01*
X0082327Y0030736D01*
X0082420Y0030577D01*
X0082508Y0030415D01*
X0082593Y0030252D01*
X0082674Y0030087D01*
X0082751Y0029919D01*
X0082823Y0029750D01*
X0082891Y0029579D01*
X0082956Y0029407D01*
X0083015Y0029233D01*
X0083071Y0029057D01*
X0083122Y0028880D01*
X0083169Y0028702D01*
X0083212Y0028523D01*
X0083250Y0028343D01*
X0083284Y0028162D01*
X0083313Y0027980D01*
X0083338Y0027798D01*
X0083358Y0027615D01*
X0083374Y0027432D01*
X0083385Y0027248D01*
X0083392Y0027064D01*
X0083394Y0026880D01*
X0083392Y0026696D01*
X0083385Y0026512D01*
X0083374Y0026328D01*
X0083358Y0026145D01*
X0083338Y0025962D01*
X0083313Y0025780D01*
X0083284Y0025598D01*
X0083250Y0025417D01*
X0083212Y0025237D01*
X0083169Y0025058D01*
X0083122Y0024880D01*
X0083071Y0024703D01*
X0083015Y0024527D01*
X0082956Y0024353D01*
X0082891Y0024181D01*
X0082823Y0024010D01*
X0082751Y0023841D01*
X0082674Y0023673D01*
X0082593Y0023508D01*
X0082508Y0023345D01*
X0082420Y0023183D01*
X0082327Y0023024D01*
X0082230Y0022868D01*
X0082130Y0022713D01*
X0082026Y0022561D01*
X0081918Y0022412D01*
X0081807Y0022266D01*
X0081692Y0022122D01*
X0081573Y0021981D01*
X0081451Y0021843D01*
X0081326Y0021708D01*
X0081197Y0021577D01*
X0081066Y0021448D01*
X0080931Y0021323D01*
X0080793Y0021201D01*
X0080652Y0021082D01*
X0080508Y0020967D01*
X0080362Y0020856D01*
X0080213Y0020748D01*
X0080061Y0020644D01*
X0079906Y0020544D01*
X0079750Y0020447D01*
X0079591Y0020354D01*
X0079429Y0020266D01*
X0079266Y0020181D01*
X0079101Y0020100D01*
X0078933Y0020023D01*
X0078764Y0019951D01*
X0078593Y0019883D01*
X0078421Y0019818D01*
X0078247Y0019759D01*
X0078071Y0019703D01*
X0077894Y0019652D01*
X0077716Y0019605D01*
X0077537Y0019562D01*
X0077357Y0019524D01*
X0077176Y0019490D01*
X0076994Y0019461D01*
X0076812Y0019436D01*
X0076629Y0019416D01*
X0076446Y0019400D01*
X0076262Y0019389D01*
X0076078Y0019382D01*
X0075894Y0019380D01*
X0075710Y0019382D01*
X0075526Y0019389D01*
X0075342Y0019400D01*
X0075159Y0019416D01*
X0074976Y0019436D01*
X0074794Y0019461D01*
X0074612Y0019490D01*
X0074431Y0019524D01*
X0074251Y0019562D01*
X0074072Y0019605D01*
X0073894Y0019652D01*
X0073717Y0019703D01*
X0073541Y0019759D01*
X0073367Y0019818D01*
X0073195Y0019883D01*
X0073024Y0019951D01*
X0072855Y0020023D01*
X0072687Y0020100D01*
X0072522Y0020181D01*
X0072359Y0020266D01*
X0072197Y0020354D01*
X0072038Y0020447D01*
X0071882Y0020544D01*
X0071727Y0020644D01*
X0071575Y0020748D01*
X0071426Y0020856D01*
X0071280Y0020967D01*
X0071136Y0021082D01*
X0070995Y0021201D01*
X0070857Y0021323D01*
X0070722Y0021448D01*
X0070591Y0021577D01*
X0070462Y0021708D01*
X0070337Y0021843D01*
X0070215Y0021981D01*
X0070096Y0022122D01*
X0069981Y0022266D01*
X0069870Y0022412D01*
X0069762Y0022561D01*
X0069658Y0022713D01*
X0069558Y0022868D01*
X0069461Y0023024D01*
X0069368Y0023183D01*
X0069280Y0023345D01*
X0069195Y0023508D01*
X0069114Y0023673D01*
X0069037Y0023841D01*
X0068965Y0024010D01*
X0068897Y0024181D01*
X0068832Y0024353D01*
X0068773Y0024527D01*
X0068717Y0024703D01*
X0068666Y0024880D01*
X0068619Y0025058D01*
X0068576Y0025237D01*
X0068538Y0025417D01*
X0068504Y0025598D01*
X0068475Y0025780D01*
X0068450Y0025962D01*
X0068430Y0026145D01*
X0068414Y0026328D01*
X0068403Y0026512D01*
X0068396Y0026696D01*
X0068394Y0026880D01*
X0057894Y0026880D02*
X0057899Y0027322D01*
X0057916Y0027763D01*
X0057943Y0028204D01*
X0057981Y0028644D01*
X0058029Y0029083D01*
X0058089Y0029521D01*
X0058159Y0029957D01*
X0058240Y0030392D01*
X0058331Y0030824D01*
X0058433Y0031254D01*
X0058546Y0031681D01*
X0058669Y0032105D01*
X0058802Y0032526D01*
X0058946Y0032944D01*
X0059100Y0033358D01*
X0059264Y0033768D01*
X0059438Y0034174D01*
X0059622Y0034576D01*
X0059816Y0034973D01*
X0060019Y0035365D01*
X0060232Y0035752D01*
X0060455Y0036134D01*
X0060687Y0036510D01*
X0060928Y0036880D01*
X0061177Y0037245D01*
X0061436Y0037603D01*
X0061704Y0037954D01*
X0061980Y0038299D01*
X0062264Y0038637D01*
X0062557Y0038968D01*
X0062858Y0039292D01*
X0063166Y0039608D01*
X0063482Y0039916D01*
X0063806Y0040217D01*
X0064137Y0040510D01*
X0064475Y0040794D01*
X0064820Y0041070D01*
X0065171Y0041338D01*
X0065529Y0041597D01*
X0065894Y0041846D01*
X0066264Y0042087D01*
X0066640Y0042319D01*
X0067022Y0042542D01*
X0067409Y0042755D01*
X0067801Y0042958D01*
X0068198Y0043152D01*
X0068600Y0043336D01*
X0069006Y0043510D01*
X0069416Y0043674D01*
X0069830Y0043828D01*
X0070248Y0043972D01*
X0070669Y0044105D01*
X0071093Y0044228D01*
X0071520Y0044341D01*
X0071950Y0044443D01*
X0072382Y0044534D01*
X0072817Y0044615D01*
X0073253Y0044685D01*
X0073691Y0044745D01*
X0074130Y0044793D01*
X0074570Y0044831D01*
X0075011Y0044858D01*
X0075452Y0044875D01*
X0075894Y0044880D01*
X0076336Y0044875D01*
X0076777Y0044858D01*
X0077218Y0044831D01*
X0077658Y0044793D01*
X0078097Y0044745D01*
X0078535Y0044685D01*
X0078971Y0044615D01*
X0079406Y0044534D01*
X0079838Y0044443D01*
X0080268Y0044341D01*
X0080695Y0044228D01*
X0081119Y0044105D01*
X0081540Y0043972D01*
X0081958Y0043828D01*
X0082372Y0043674D01*
X0082782Y0043510D01*
X0083188Y0043336D01*
X0083590Y0043152D01*
X0083987Y0042958D01*
X0084379Y0042755D01*
X0084766Y0042542D01*
X0085148Y0042319D01*
X0085524Y0042087D01*
X0085894Y0041846D01*
X0086259Y0041597D01*
X0086617Y0041338D01*
X0086968Y0041070D01*
X0087313Y0040794D01*
X0087651Y0040510D01*
X0087982Y0040217D01*
X0088306Y0039916D01*
X0088622Y0039608D01*
X0088930Y0039292D01*
X0089231Y0038968D01*
X0089524Y0038637D01*
X0089808Y0038299D01*
X0090084Y0037954D01*
X0090352Y0037603D01*
X0090611Y0037245D01*
X0090860Y0036880D01*
X0091101Y0036510D01*
X0091333Y0036134D01*
X0091556Y0035752D01*
X0091769Y0035365D01*
X0091972Y0034973D01*
X0092166Y0034576D01*
X0092350Y0034174D01*
X0092524Y0033768D01*
X0092688Y0033358D01*
X0092842Y0032944D01*
X0092986Y0032526D01*
X0093119Y0032105D01*
X0093242Y0031681D01*
X0093355Y0031254D01*
X0093457Y0030824D01*
X0093548Y0030392D01*
X0093629Y0029957D01*
X0093699Y0029521D01*
X0093759Y0029083D01*
X0093807Y0028644D01*
X0093845Y0028204D01*
X0093872Y0027763D01*
X0093889Y0027322D01*
X0093894Y0026880D01*
X0093889Y0026438D01*
X0093872Y0025997D01*
X0093845Y0025556D01*
X0093807Y0025116D01*
X0093759Y0024677D01*
X0093699Y0024239D01*
X0093629Y0023803D01*
X0093548Y0023368D01*
X0093457Y0022936D01*
X0093355Y0022506D01*
X0093242Y0022079D01*
X0093119Y0021655D01*
X0092986Y0021234D01*
X0092842Y0020816D01*
X0092688Y0020402D01*
X0092524Y0019992D01*
X0092350Y0019586D01*
X0092166Y0019184D01*
X0091972Y0018787D01*
X0091769Y0018395D01*
X0091556Y0018008D01*
X0091333Y0017626D01*
X0091101Y0017250D01*
X0090860Y0016880D01*
X0090611Y0016515D01*
X0090352Y0016157D01*
X0090084Y0015806D01*
X0089808Y0015461D01*
X0089524Y0015123D01*
X0089231Y0014792D01*
X0088930Y0014468D01*
X0088622Y0014152D01*
X0088306Y0013844D01*
X0087982Y0013543D01*
X0087651Y0013250D01*
X0087313Y0012966D01*
X0086968Y0012690D01*
X0086617Y0012422D01*
X0086259Y0012163D01*
X0085894Y0011914D01*
X0085524Y0011673D01*
X0085148Y0011441D01*
X0084766Y0011218D01*
X0084379Y0011005D01*
X0083987Y0010802D01*
X0083590Y0010608D01*
X0083188Y0010424D01*
X0082782Y0010250D01*
X0082372Y0010086D01*
X0081958Y0009932D01*
X0081540Y0009788D01*
X0081119Y0009655D01*
X0080695Y0009532D01*
X0080268Y0009419D01*
X0079838Y0009317D01*
X0079406Y0009226D01*
X0078971Y0009145D01*
X0078535Y0009075D01*
X0078097Y0009015D01*
X0077658Y0008967D01*
X0077218Y0008929D01*
X0076777Y0008902D01*
X0076336Y0008885D01*
X0075894Y0008880D01*
X0075452Y0008885D01*
X0075011Y0008902D01*
X0074570Y0008929D01*
X0074130Y0008967D01*
X0073691Y0009015D01*
X0073253Y0009075D01*
X0072817Y0009145D01*
X0072382Y0009226D01*
X0071950Y0009317D01*
X0071520Y0009419D01*
X0071093Y0009532D01*
X0070669Y0009655D01*
X0070248Y0009788D01*
X0069830Y0009932D01*
X0069416Y0010086D01*
X0069006Y0010250D01*
X0068600Y0010424D01*
X0068198Y0010608D01*
X0067801Y0010802D01*
X0067409Y0011005D01*
X0067022Y0011218D01*
X0066640Y0011441D01*
X0066264Y0011673D01*
X0065894Y0011914D01*
X0065529Y0012163D01*
X0065171Y0012422D01*
X0064820Y0012690D01*
X0064475Y0012966D01*
X0064137Y0013250D01*
X0063806Y0013543D01*
X0063482Y0013844D01*
X0063166Y0014152D01*
X0062858Y0014468D01*
X0062557Y0014792D01*
X0062264Y0015123D01*
X0061980Y0015461D01*
X0061704Y0015806D01*
X0061436Y0016157D01*
X0061177Y0016515D01*
X0060928Y0016880D01*
X0060687Y0017250D01*
X0060455Y0017626D01*
X0060232Y0018008D01*
X0060019Y0018395D01*
X0059816Y0018787D01*
X0059622Y0019184D01*
X0059438Y0019586D01*
X0059264Y0019992D01*
X0059100Y0020402D01*
X0058946Y0020816D01*
X0058802Y0021234D01*
X0058669Y0021655D01*
X0058546Y0022079D01*
X0058433Y0022506D01*
X0058331Y0022936D01*
X0058240Y0023368D01*
X0058159Y0023803D01*
X0058089Y0024239D01*
X0058029Y0024677D01*
X0057981Y0025116D01*
X0057943Y0025556D01*
X0057916Y0025997D01*
X0057899Y0026438D01*
X0057894Y0026880D01*
X0209537Y0037231D02*
X0209537Y0041731D01*
X0210537Y0047731D01*
X0214037Y0047731D01*
X0218037Y0047731D01*
X0223037Y0047731D01*
X0227037Y0047731D01*
X0232037Y0047731D01*
X0236037Y0047731D01*
X0239537Y0047731D01*
X0240537Y0041731D01*
X0240537Y0037231D01*
X0235937Y0045231D02*
X0235939Y0045311D01*
X0235945Y0045390D01*
X0235955Y0045469D01*
X0235969Y0045548D01*
X0235986Y0045626D01*
X0236008Y0045703D01*
X0236033Y0045778D01*
X0236063Y0045852D01*
X0236095Y0045925D01*
X0236132Y0045996D01*
X0236172Y0046065D01*
X0236215Y0046132D01*
X0236262Y0046197D01*
X0236311Y0046259D01*
X0236364Y0046319D01*
X0236420Y0046376D01*
X0236478Y0046431D01*
X0236539Y0046482D01*
X0236603Y0046530D01*
X0236669Y0046575D01*
X0236737Y0046617D01*
X0236807Y0046655D01*
X0236879Y0046689D01*
X0236952Y0046720D01*
X0237027Y0046748D01*
X0237104Y0046771D01*
X0237181Y0046791D01*
X0237259Y0046807D01*
X0237338Y0046819D01*
X0237417Y0046827D01*
X0237497Y0046831D01*
X0237577Y0046831D01*
X0237657Y0046827D01*
X0237736Y0046819D01*
X0237815Y0046807D01*
X0237893Y0046791D01*
X0237970Y0046771D01*
X0238047Y0046748D01*
X0238122Y0046720D01*
X0238195Y0046689D01*
X0238267Y0046655D01*
X0238337Y0046617D01*
X0238405Y0046575D01*
X0238471Y0046530D01*
X0238535Y0046482D01*
X0238596Y0046431D01*
X0238654Y0046376D01*
X0238710Y0046319D01*
X0238763Y0046259D01*
X0238812Y0046197D01*
X0238859Y0046132D01*
X0238902Y0046065D01*
X0238942Y0045996D01*
X0238979Y0045925D01*
X0239011Y0045852D01*
X0239041Y0045778D01*
X0239066Y0045703D01*
X0239088Y0045626D01*
X0239105Y0045548D01*
X0239119Y0045469D01*
X0239129Y0045390D01*
X0239135Y0045311D01*
X0239137Y0045231D01*
X0239135Y0045151D01*
X0239129Y0045072D01*
X0239119Y0044993D01*
X0239105Y0044914D01*
X0239088Y0044836D01*
X0239066Y0044759D01*
X0239041Y0044684D01*
X0239011Y0044610D01*
X0238979Y0044537D01*
X0238942Y0044466D01*
X0238902Y0044397D01*
X0238859Y0044330D01*
X0238812Y0044265D01*
X0238763Y0044203D01*
X0238710Y0044143D01*
X0238654Y0044086D01*
X0238596Y0044031D01*
X0238535Y0043980D01*
X0238471Y0043932D01*
X0238405Y0043887D01*
X0238337Y0043845D01*
X0238267Y0043807D01*
X0238195Y0043773D01*
X0238122Y0043742D01*
X0238047Y0043714D01*
X0237970Y0043691D01*
X0237893Y0043671D01*
X0237815Y0043655D01*
X0237736Y0043643D01*
X0237657Y0043635D01*
X0237577Y0043631D01*
X0237497Y0043631D01*
X0237417Y0043635D01*
X0237338Y0043643D01*
X0237259Y0043655D01*
X0237181Y0043671D01*
X0237104Y0043691D01*
X0237027Y0043714D01*
X0236952Y0043742D01*
X0236879Y0043773D01*
X0236807Y0043807D01*
X0236737Y0043845D01*
X0236669Y0043887D01*
X0236603Y0043932D01*
X0236539Y0043980D01*
X0236478Y0044031D01*
X0236420Y0044086D01*
X0236364Y0044143D01*
X0236311Y0044203D01*
X0236262Y0044265D01*
X0236215Y0044330D01*
X0236172Y0044397D01*
X0236132Y0044466D01*
X0236095Y0044537D01*
X0236063Y0044610D01*
X0236033Y0044684D01*
X0236008Y0044759D01*
X0235986Y0044836D01*
X0235969Y0044914D01*
X0235955Y0044993D01*
X0235945Y0045072D01*
X0235939Y0045151D01*
X0235937Y0045231D01*
X0282037Y0077522D02*
X0282037Y0080022D01*
X0282537Y0080522D01*
X0282537Y0111522D01*
X0282037Y0112022D01*
X0282037Y0114522D01*
X0282039Y0114598D01*
X0282045Y0114674D01*
X0282054Y0114749D01*
X0282068Y0114824D01*
X0282085Y0114898D01*
X0282106Y0114971D01*
X0282130Y0115043D01*
X0282159Y0115114D01*
X0282190Y0115183D01*
X0282225Y0115250D01*
X0282264Y0115315D01*
X0282306Y0115379D01*
X0282351Y0115440D01*
X0282399Y0115499D01*
X0282450Y0115555D01*
X0282504Y0115609D01*
X0282560Y0115660D01*
X0282619Y0115708D01*
X0282680Y0115753D01*
X0282744Y0115795D01*
X0282809Y0115834D01*
X0282876Y0115869D01*
X0282945Y0115900D01*
X0283016Y0115929D01*
X0283088Y0115953D01*
X0283161Y0115974D01*
X0283235Y0115991D01*
X0283310Y0116005D01*
X0283385Y0116014D01*
X0283461Y0116020D01*
X0283537Y0116022D01*
X0296537Y0116022D01*
X0296613Y0116020D01*
X0296689Y0116014D01*
X0296764Y0116005D01*
X0296839Y0115991D01*
X0296913Y0115974D01*
X0296986Y0115953D01*
X0297058Y0115929D01*
X0297129Y0115900D01*
X0297198Y0115869D01*
X0297265Y0115834D01*
X0297330Y0115795D01*
X0297394Y0115753D01*
X0297455Y0115708D01*
X0297514Y0115660D01*
X0297570Y0115609D01*
X0297624Y0115555D01*
X0297675Y0115499D01*
X0297723Y0115440D01*
X0297768Y0115379D01*
X0297810Y0115315D01*
X0297849Y0115250D01*
X0297884Y0115183D01*
X0297915Y0115114D01*
X0297944Y0115043D01*
X0297968Y0114971D01*
X0297989Y0114898D01*
X0298006Y0114824D01*
X0298020Y0114749D01*
X0298029Y0114674D01*
X0298035Y0114598D01*
X0298037Y0114522D01*
X0298037Y0112022D01*
X0297537Y0111522D01*
X0297537Y0080522D01*
X0298037Y0080022D01*
X0298037Y0077522D01*
X0298035Y0077446D01*
X0298029Y0077370D01*
X0298020Y0077295D01*
X0298006Y0077220D01*
X0297989Y0077146D01*
X0297968Y0077073D01*
X0297944Y0077001D01*
X0297915Y0076930D01*
X0297884Y0076861D01*
X0297849Y0076794D01*
X0297810Y0076729D01*
X0297768Y0076665D01*
X0297723Y0076604D01*
X0297675Y0076545D01*
X0297624Y0076489D01*
X0297570Y0076435D01*
X0297514Y0076384D01*
X0297455Y0076336D01*
X0297394Y0076291D01*
X0297330Y0076249D01*
X0297265Y0076210D01*
X0297198Y0076175D01*
X0297129Y0076144D01*
X0297058Y0076115D01*
X0296986Y0076091D01*
X0296913Y0076070D01*
X0296839Y0076053D01*
X0296764Y0076039D01*
X0296689Y0076030D01*
X0296613Y0076024D01*
X0296537Y0076022D01*
X0283537Y0076022D01*
X0283461Y0076024D01*
X0283385Y0076030D01*
X0283310Y0076039D01*
X0283235Y0076053D01*
X0283161Y0076070D01*
X0283088Y0076091D01*
X0283016Y0076115D01*
X0282945Y0076144D01*
X0282876Y0076175D01*
X0282809Y0076210D01*
X0282744Y0076249D01*
X0282680Y0076291D01*
X0282619Y0076336D01*
X0282560Y0076384D01*
X0282504Y0076435D01*
X0282450Y0076489D01*
X0282399Y0076545D01*
X0282351Y0076604D01*
X0282306Y0076665D01*
X0282264Y0076729D01*
X0282225Y0076794D01*
X0282190Y0076861D01*
X0282159Y0076930D01*
X0282130Y0077001D01*
X0282106Y0077073D01*
X0282085Y0077146D01*
X0282068Y0077220D01*
X0282054Y0077295D01*
X0282045Y0077370D01*
X0282039Y0077446D01*
X0282037Y0077522D01*
X0325037Y0109447D02*
X0325046Y0110183D01*
X0325073Y0110919D01*
X0325118Y0111654D01*
X0325181Y0112388D01*
X0325263Y0113119D01*
X0325362Y0113849D01*
X0325479Y0114576D01*
X0325613Y0115300D01*
X0325766Y0116020D01*
X0325936Y0116736D01*
X0326124Y0117448D01*
X0326329Y0118156D01*
X0326551Y0118857D01*
X0326791Y0119554D01*
X0327047Y0120244D01*
X0327321Y0120928D01*
X0327611Y0121604D01*
X0327917Y0122274D01*
X0328240Y0122935D01*
X0328579Y0123589D01*
X0328934Y0124234D01*
X0329305Y0124870D01*
X0329691Y0125497D01*
X0330093Y0126114D01*
X0330509Y0126721D01*
X0330941Y0127318D01*
X0331387Y0127904D01*
X0331847Y0128479D01*
X0332321Y0129042D01*
X0332808Y0129594D01*
X0333310Y0130133D01*
X0333824Y0130660D01*
X0334351Y0131174D01*
X0334890Y0131676D01*
X0335442Y0132163D01*
X0336005Y0132637D01*
X0336580Y0133097D01*
X0337166Y0133543D01*
X0337763Y0133975D01*
X0338370Y0134391D01*
X0338987Y0134793D01*
X0339614Y0135179D01*
X0340250Y0135550D01*
X0340895Y0135905D01*
X0341549Y0136244D01*
X0342210Y0136567D01*
X0342880Y0136873D01*
X0343556Y0137163D01*
X0344240Y0137437D01*
X0344930Y0137693D01*
X0345627Y0137933D01*
X0346328Y0138155D01*
X0347036Y0138360D01*
X0347748Y0138548D01*
X0348464Y0138718D01*
X0349184Y0138871D01*
X0349908Y0139005D01*
X0350635Y0139122D01*
X0351365Y0139221D01*
X0352096Y0139303D01*
X0352830Y0139366D01*
X0353565Y0139411D01*
X0354301Y0139438D01*
X0355037Y0139447D01*
X0355773Y0139438D01*
X0356509Y0139411D01*
X0357244Y0139366D01*
X0357978Y0139303D01*
X0358709Y0139221D01*
X0359439Y0139122D01*
X0360166Y0139005D01*
X0360890Y0138871D01*
X0361610Y0138718D01*
X0362326Y0138548D01*
X0363038Y0138360D01*
X0363746Y0138155D01*
X0364447Y0137933D01*
X0365144Y0137693D01*
X0365834Y0137437D01*
X0366518Y0137163D01*
X0367194Y0136873D01*
X0367864Y0136567D01*
X0368525Y0136244D01*
X0369179Y0135905D01*
X0369824Y0135550D01*
X0370460Y0135179D01*
X0371087Y0134793D01*
X0371704Y0134391D01*
X0372311Y0133975D01*
X0372908Y0133543D01*
X0373494Y0133097D01*
X0374069Y0132637D01*
X0374632Y0132163D01*
X0375184Y0131676D01*
X0375723Y0131174D01*
X0376250Y0130660D01*
X0376764Y0130133D01*
X0377266Y0129594D01*
X0377753Y0129042D01*
X0378227Y0128479D01*
X0378687Y0127904D01*
X0379133Y0127318D01*
X0379565Y0126721D01*
X0379981Y0126114D01*
X0380383Y0125497D01*
X0380769Y0124870D01*
X0381140Y0124234D01*
X0381495Y0123589D01*
X0381834Y0122935D01*
X0382157Y0122274D01*
X0382463Y0121604D01*
X0382753Y0120928D01*
X0383027Y0120244D01*
X0383283Y0119554D01*
X0383523Y0118857D01*
X0383745Y0118156D01*
X0383950Y0117448D01*
X0384138Y0116736D01*
X0384308Y0116020D01*
X0384461Y0115300D01*
X0384595Y0114576D01*
X0384712Y0113849D01*
X0384811Y0113119D01*
X0384893Y0112388D01*
X0384956Y0111654D01*
X0385001Y0110919D01*
X0385028Y0110183D01*
X0385037Y0109447D01*
X0385028Y0108711D01*
X0385001Y0107975D01*
X0384956Y0107240D01*
X0384893Y0106506D01*
X0384811Y0105775D01*
X0384712Y0105045D01*
X0384595Y0104318D01*
X0384461Y0103594D01*
X0384308Y0102874D01*
X0384138Y0102158D01*
X0383950Y0101446D01*
X0383745Y0100738D01*
X0383523Y0100037D01*
X0383283Y0099340D01*
X0383027Y0098650D01*
X0382753Y0097966D01*
X0382463Y0097290D01*
X0382157Y0096620D01*
X0381834Y0095959D01*
X0381495Y0095305D01*
X0381140Y0094660D01*
X0380769Y0094024D01*
X0380383Y0093397D01*
X0379981Y0092780D01*
X0379565Y0092173D01*
X0379133Y0091576D01*
X0378687Y0090990D01*
X0378227Y0090415D01*
X0377753Y0089852D01*
X0377266Y0089300D01*
X0376764Y0088761D01*
X0376250Y0088234D01*
X0375723Y0087720D01*
X0375184Y0087218D01*
X0374632Y0086731D01*
X0374069Y0086257D01*
X0373494Y0085797D01*
X0372908Y0085351D01*
X0372311Y0084919D01*
X0371704Y0084503D01*
X0371087Y0084101D01*
X0370460Y0083715D01*
X0369824Y0083344D01*
X0369179Y0082989D01*
X0368525Y0082650D01*
X0367864Y0082327D01*
X0367194Y0082021D01*
X0366518Y0081731D01*
X0365834Y0081457D01*
X0365144Y0081201D01*
X0364447Y0080961D01*
X0363746Y0080739D01*
X0363038Y0080534D01*
X0362326Y0080346D01*
X0361610Y0080176D01*
X0360890Y0080023D01*
X0360166Y0079889D01*
X0359439Y0079772D01*
X0358709Y0079673D01*
X0357978Y0079591D01*
X0357244Y0079528D01*
X0356509Y0079483D01*
X0355773Y0079456D01*
X0355037Y0079447D01*
X0354301Y0079456D01*
X0353565Y0079483D01*
X0352830Y0079528D01*
X0352096Y0079591D01*
X0351365Y0079673D01*
X0350635Y0079772D01*
X0349908Y0079889D01*
X0349184Y0080023D01*
X0348464Y0080176D01*
X0347748Y0080346D01*
X0347036Y0080534D01*
X0346328Y0080739D01*
X0345627Y0080961D01*
X0344930Y0081201D01*
X0344240Y0081457D01*
X0343556Y0081731D01*
X0342880Y0082021D01*
X0342210Y0082327D01*
X0341549Y0082650D01*
X0340895Y0082989D01*
X0340250Y0083344D01*
X0339614Y0083715D01*
X0338987Y0084101D01*
X0338370Y0084503D01*
X0337763Y0084919D01*
X0337166Y0085351D01*
X0336580Y0085797D01*
X0336005Y0086257D01*
X0335442Y0086731D01*
X0334890Y0087218D01*
X0334351Y0087720D01*
X0333824Y0088234D01*
X0333310Y0088761D01*
X0332808Y0089300D01*
X0332321Y0089852D01*
X0331847Y0090415D01*
X0331387Y0090990D01*
X0330941Y0091576D01*
X0330509Y0092173D01*
X0330093Y0092780D01*
X0329691Y0093397D01*
X0329305Y0094024D01*
X0328934Y0094660D01*
X0328579Y0095305D01*
X0328240Y0095959D01*
X0327917Y0096620D01*
X0327611Y0097290D01*
X0327321Y0097966D01*
X0327047Y0098650D01*
X0326791Y0099340D01*
X0326551Y0100037D01*
X0326329Y0100738D01*
X0326124Y0101446D01*
X0325936Y0102158D01*
X0325766Y0102874D01*
X0325613Y0103594D01*
X0325479Y0104318D01*
X0325362Y0105045D01*
X0325263Y0105775D01*
X0325181Y0106506D01*
X0325118Y0107240D01*
X0325073Y0107975D01*
X0325046Y0108711D01*
X0325037Y0109447D01*
X0315037Y0109447D02*
X0315049Y0110429D01*
X0315085Y0111410D01*
X0315145Y0112390D01*
X0315230Y0113368D01*
X0315338Y0114343D01*
X0315470Y0115316D01*
X0315626Y0116285D01*
X0315806Y0117251D01*
X0316009Y0118211D01*
X0316236Y0119166D01*
X0316486Y0120116D01*
X0316759Y0121058D01*
X0317056Y0121994D01*
X0317375Y0122923D01*
X0317717Y0123843D01*
X0318082Y0124754D01*
X0318469Y0125657D01*
X0318877Y0126549D01*
X0319308Y0127431D01*
X0319760Y0128303D01*
X0320234Y0129163D01*
X0320728Y0130011D01*
X0321243Y0130847D01*
X0321778Y0131670D01*
X0322334Y0132479D01*
X0322909Y0133275D01*
X0323503Y0134056D01*
X0324117Y0134823D01*
X0324749Y0135574D01*
X0325399Y0136309D01*
X0326067Y0137029D01*
X0326753Y0137731D01*
X0327455Y0138417D01*
X0328175Y0139085D01*
X0328910Y0139735D01*
X0329661Y0140367D01*
X0330428Y0140981D01*
X0331209Y0141575D01*
X0332005Y0142150D01*
X0332814Y0142706D01*
X0333637Y0143241D01*
X0334473Y0143756D01*
X0335321Y0144250D01*
X0336181Y0144724D01*
X0337053Y0145176D01*
X0337935Y0145607D01*
X0338827Y0146015D01*
X0339730Y0146402D01*
X0340641Y0146767D01*
X0341561Y0147109D01*
X0342490Y0147428D01*
X0343426Y0147725D01*
X0344368Y0147998D01*
X0345318Y0148248D01*
X0346273Y0148475D01*
X0347233Y0148678D01*
X0348199Y0148858D01*
X0349168Y0149014D01*
X0350141Y0149146D01*
X0351116Y0149254D01*
X0352094Y0149339D01*
X0353074Y0149399D01*
X0354055Y0149435D01*
X0355037Y0149447D01*
X0356019Y0149435D01*
X0357000Y0149399D01*
X0357980Y0149339D01*
X0358958Y0149254D01*
X0359933Y0149146D01*
X0360906Y0149014D01*
X0361875Y0148858D01*
X0362841Y0148678D01*
X0363801Y0148475D01*
X0364756Y0148248D01*
X0365706Y0147998D01*
X0366648Y0147725D01*
X0367584Y0147428D01*
X0368513Y0147109D01*
X0369433Y0146767D01*
X0370344Y0146402D01*
X0371247Y0146015D01*
X0372139Y0145607D01*
X0373021Y0145176D01*
X0373893Y0144724D01*
X0374753Y0144250D01*
X0375601Y0143756D01*
X0376437Y0143241D01*
X0377260Y0142706D01*
X0378069Y0142150D01*
X0378865Y0141575D01*
X0379646Y0140981D01*
X0380413Y0140367D01*
X0381164Y0139735D01*
X0381899Y0139085D01*
X0382619Y0138417D01*
X0383321Y0137731D01*
X0384007Y0137029D01*
X0384675Y0136309D01*
X0385325Y0135574D01*
X0385957Y0134823D01*
X0386571Y0134056D01*
X0387165Y0133275D01*
X0387740Y0132479D01*
X0388296Y0131670D01*
X0388831Y0130847D01*
X0389346Y0130011D01*
X0389840Y0129163D01*
X0390314Y0128303D01*
X0390766Y0127431D01*
X0391197Y0126549D01*
X0391605Y0125657D01*
X0391992Y0124754D01*
X0392357Y0123843D01*
X0392699Y0122923D01*
X0393018Y0121994D01*
X0393315Y0121058D01*
X0393588Y0120116D01*
X0393838Y0119166D01*
X0394065Y0118211D01*
X0394268Y0117251D01*
X0394448Y0116285D01*
X0394604Y0115316D01*
X0394736Y0114343D01*
X0394844Y0113368D01*
X0394929Y0112390D01*
X0394989Y0111410D01*
X0395025Y0110429D01*
X0395037Y0109447D01*
X0395025Y0108465D01*
X0394989Y0107484D01*
X0394929Y0106504D01*
X0394844Y0105526D01*
X0394736Y0104551D01*
X0394604Y0103578D01*
X0394448Y0102609D01*
X0394268Y0101643D01*
X0394065Y0100683D01*
X0393838Y0099728D01*
X0393588Y0098778D01*
X0393315Y0097836D01*
X0393018Y0096900D01*
X0392699Y0095971D01*
X0392357Y0095051D01*
X0391992Y0094140D01*
X0391605Y0093237D01*
X0391197Y0092345D01*
X0390766Y0091463D01*
X0390314Y0090591D01*
X0389840Y0089731D01*
X0389346Y0088883D01*
X0388831Y0088047D01*
X0388296Y0087224D01*
X0387740Y0086415D01*
X0387165Y0085619D01*
X0386571Y0084838D01*
X0385957Y0084071D01*
X0385325Y0083320D01*
X0384675Y0082585D01*
X0384007Y0081865D01*
X0383321Y0081163D01*
X0382619Y0080477D01*
X0381899Y0079809D01*
X0381164Y0079159D01*
X0380413Y0078527D01*
X0379646Y0077913D01*
X0378865Y0077319D01*
X0378069Y0076744D01*
X0377260Y0076188D01*
X0376437Y0075653D01*
X0375601Y0075138D01*
X0374753Y0074644D01*
X0373893Y0074170D01*
X0373021Y0073718D01*
X0372139Y0073287D01*
X0371247Y0072879D01*
X0370344Y0072492D01*
X0369433Y0072127D01*
X0368513Y0071785D01*
X0367584Y0071466D01*
X0366648Y0071169D01*
X0365706Y0070896D01*
X0364756Y0070646D01*
X0363801Y0070419D01*
X0362841Y0070216D01*
X0361875Y0070036D01*
X0360906Y0069880D01*
X0359933Y0069748D01*
X0358958Y0069640D01*
X0357980Y0069555D01*
X0357000Y0069495D01*
X0356019Y0069459D01*
X0355037Y0069447D01*
X0354055Y0069459D01*
X0353074Y0069495D01*
X0352094Y0069555D01*
X0351116Y0069640D01*
X0350141Y0069748D01*
X0349168Y0069880D01*
X0348199Y0070036D01*
X0347233Y0070216D01*
X0346273Y0070419D01*
X0345318Y0070646D01*
X0344368Y0070896D01*
X0343426Y0071169D01*
X0342490Y0071466D01*
X0341561Y0071785D01*
X0340641Y0072127D01*
X0339730Y0072492D01*
X0338827Y0072879D01*
X0337935Y0073287D01*
X0337053Y0073718D01*
X0336181Y0074170D01*
X0335321Y0074644D01*
X0334473Y0075138D01*
X0333637Y0075653D01*
X0332814Y0076188D01*
X0332005Y0076744D01*
X0331209Y0077319D01*
X0330428Y0077913D01*
X0329661Y0078527D01*
X0328910Y0079159D01*
X0328175Y0079809D01*
X0327455Y0080477D01*
X0326753Y0081163D01*
X0326067Y0081865D01*
X0325399Y0082585D01*
X0324749Y0083320D01*
X0324117Y0084071D01*
X0323503Y0084838D01*
X0322909Y0085619D01*
X0322334Y0086415D01*
X0321778Y0087224D01*
X0321243Y0088047D01*
X0320728Y0088883D01*
X0320234Y0089731D01*
X0319760Y0090591D01*
X0319308Y0091463D01*
X0318877Y0092345D01*
X0318469Y0093237D01*
X0318082Y0094140D01*
X0317717Y0095051D01*
X0317375Y0095971D01*
X0317056Y0096900D01*
X0316759Y0097836D01*
X0316486Y0098778D01*
X0316236Y0099728D01*
X0316009Y0100683D01*
X0315806Y0101643D01*
X0315626Y0102609D01*
X0315470Y0103578D01*
X0315338Y0104551D01*
X0315230Y0105526D01*
X0315145Y0106504D01*
X0315085Y0107484D01*
X0315049Y0108465D01*
X0315037Y0109447D01*
X0367837Y0050828D02*
X0367837Y0046158D01*
X0370172Y0043822D01*
X0372507Y0046158D01*
X0372507Y0050828D01*
X0374834Y0047325D02*
X0379505Y0047325D01*
D12*
X0355037Y0099447D02*
X0355037Y0106947D01*
X0365037Y0111147D02*
X0345037Y0111147D01*
X0345037Y0115647D01*
X0355037Y0115647D01*
X0365037Y0115647D01*
X0365037Y0111147D01*
X0362537Y0117947D02*
X0362537Y0122947D01*
X0365037Y0120447D02*
X0360037Y0120447D01*
X0355037Y0119447D02*
X0355037Y0115647D01*
X0146533Y0081022D02*
X0139033Y0081022D01*
X0130333Y0081022D02*
X0130333Y0071022D01*
X0134833Y0071022D01*
X0134833Y0091022D01*
X0130333Y0091022D01*
X0130333Y0081022D01*
X0126533Y0081022D01*
X0125533Y0086022D02*
X0125533Y0091022D01*
X0128033Y0088522D02*
X0123033Y0088522D01*
X0130333Y0156022D02*
X0130333Y0166022D01*
X0130333Y0176022D01*
X0134833Y0176022D01*
X0134833Y0156022D01*
X0130333Y0156022D01*
X0130333Y0166022D02*
X0126533Y0166022D01*
X0125533Y0171022D02*
X0125533Y0176022D01*
X0128033Y0173522D02*
X0123033Y0173522D01*
X0139033Y0166022D02*
X0146533Y0166022D01*
D13*
X0140333Y0166022D03*
X0140333Y0081022D03*
D14*
X0053938Y0089447D02*
X0053938Y0129447D01*
X0042438Y0129947D02*
X0042438Y0088947D01*
X0030938Y0089447D02*
X0030938Y0129447D01*
D15*
X0042438Y0150197D03*
X0042438Y0068697D03*
D16*
X0034688Y0069697D03*
X0050188Y0069697D03*
X0050188Y0149197D03*
X0034688Y0149197D03*
D17*
X0032188Y0130697D03*
X0052688Y0130697D03*
X0052688Y0088197D03*
X0032188Y0088197D03*
D18*
X0042438Y0088197D03*
X0042438Y0130697D03*
D19*
X0032938Y0109447D03*
X0051938Y0109447D03*
D20*
X0050188Y0079197D03*
X0034688Y0079197D03*
X0034688Y0139697D03*
X0050188Y0139697D03*
D21*
X0051438Y0141447D03*
X0033438Y0141447D03*
X0033438Y0077447D03*
X0051438Y0077447D03*
D22*
X0093926Y0044911D02*
X0097108Y0048093D01*
X0079430Y0030416D02*
X0075894Y0026880D01*
D23*
X0067716Y0033198D02*
X0066891Y0032372D01*
X0066065Y0032372D01*
X0065652Y0033611D02*
X0066891Y0034849D01*
X0067716Y0034023D02*
X0066065Y0035675D01*
X0065239Y0035675D01*
X0064414Y0034849D01*
X0064414Y0034023D01*
X0064827Y0033611D01*
X0065652Y0033611D01*
X0067716Y0033198D02*
X0067716Y0034023D01*
X0069082Y0034564D02*
X0069082Y0037866D01*
X0068669Y0038279D01*
X0067844Y0038279D01*
X0067018Y0037453D01*
X0067018Y0036628D01*
X0069082Y0034564D02*
X0070734Y0036215D01*
X0071687Y0037168D02*
X0071687Y0040471D01*
X0071274Y0040884D01*
X0070448Y0040884D01*
X0069622Y0040058D01*
X0069623Y0039232D01*
X0071687Y0037168D02*
X0073338Y0038819D01*
X0065112Y0031419D02*
X0065112Y0030593D01*
X0064286Y0029768D01*
X0063461Y0029768D01*
X0063461Y0033070D01*
X0065112Y0031419D01*
X0063461Y0029768D02*
X0061809Y0031419D01*
X0061809Y0032245D01*
X0062635Y0033070D01*
X0063461Y0033070D01*
X0106926Y0036416D02*
X0106926Y0012794D01*
X0343147Y0012794D01*
X0343147Y0036416D01*
X0310037Y0036416D01*
X0310037Y0022833D01*
X0309682Y0022833D02*
X0297871Y0022833D01*
X0297871Y0036416D01*
X0310037Y0036416D01*
X0297871Y0036416D02*
X0230942Y0036416D01*
X0230942Y0022833D01*
X0219131Y0022833D01*
X0219131Y0036416D01*
X0230942Y0036416D01*
X0219131Y0036416D02*
X0152202Y0036416D01*
X0152202Y0022833D01*
X0140391Y0022833D01*
X0140391Y0036416D01*
X0152202Y0036416D01*
X0140391Y0036416D02*
X0106926Y0036416D01*
X0273962Y0042613D02*
X0274462Y0055113D01*
X0275962Y0056613D01*
X0278462Y0056613D01*
X0285462Y0056613D01*
X0299962Y0056613D01*
X0306962Y0056613D01*
X0321462Y0056613D01*
X0328462Y0056613D01*
X0330962Y0056613D01*
X0332462Y0055113D01*
X0332962Y0042613D01*
X0326110Y0050113D02*
X0325360Y0049363D01*
X0323108Y0049363D01*
X0323108Y0053867D01*
X0325360Y0053867D01*
X0326110Y0053116D01*
X0326110Y0052365D01*
X0325360Y0051615D01*
X0323108Y0051615D01*
X0325360Y0051615D02*
X0326110Y0050864D01*
X0326110Y0050113D01*
X0304610Y0050113D02*
X0303860Y0049363D01*
X0302358Y0049363D01*
X0301608Y0050113D01*
X0301608Y0053116D01*
X0302358Y0053867D01*
X0303860Y0053867D01*
X0304610Y0053116D01*
X0283110Y0053867D02*
X0280108Y0053867D01*
X0280108Y0049363D01*
X0283110Y0049363D01*
X0281609Y0051615D02*
X0280108Y0051615D01*
D24*
G36*
X0094845Y0043567D02*
X0080562Y0029284D01*
X0078299Y0031547D01*
X0092582Y0045830D01*
X0094845Y0043567D01*
G37*
D25*
X0303462Y0038863D03*
D26*
X0274462Y0041863D03*
X0332462Y0041863D03*
D27*
X0314212Y0041863D03*
X0292712Y0041863D03*
D28*
X0303462Y0041863D03*
X0281962Y0041863D03*
X0324962Y0041863D03*
D29*
X0290037Y0071022D02*
X0290037Y0074522D01*
X0265037Y0074522D02*
X0265037Y0071022D01*
X0240037Y0071022D02*
X0240037Y0074522D01*
X0220037Y0076022D02*
X0220037Y0080022D01*
X0200037Y0074522D02*
X0200037Y0071022D01*
X0220037Y0112022D02*
X0220037Y0116022D01*
X0240037Y0117522D02*
X0240037Y0121022D01*
X0265037Y0121022D02*
X0265037Y0117522D01*
X0290037Y0117522D02*
X0290037Y0121022D01*
X0200037Y0121022D02*
X0200037Y0117522D01*
D30*
X0200037Y0116572D03*
X0240037Y0116572D03*
X0265037Y0116572D03*
X0290037Y0116572D03*
X0290037Y0075472D03*
X0265037Y0075472D03*
X0240037Y0075472D03*
X0200037Y0075472D03*
D31*
X0262787Y0161022D03*
D32*
X0355037Y0105647D03*
D33*
X0005037Y0011022D02*
X0005037Y0207873D01*
X0398737Y0207873D01*
X0398737Y0011022D01*
X0005037Y0011022D01*
D34*
X0220037Y0090522D03*
D35*
X0220037Y0084272D03*
X0220037Y0107772D03*
D36*
X0211037Y0037481D03*
X0239037Y0037481D03*
D37*
X0229537Y0037481D03*
X0220537Y0037481D03*
D38*
X0225037Y0037481D03*
X0234037Y0037481D03*
X0216037Y0037481D03*
M02*
