G75*
%MOIN*%
%OFA0B0*%
%FSLAX25Y25*%
%IPPOS*%
%LPD*%
%AMOC8*
5,1,8,0,0,1.08239X$1,22.5*
%
%ADD10C,0.00300*%
%ADD11C,0.00600*%
%ADD12C,0.00000*%
%ADD13C,0.00800*%
%ADD14R,0.02000X0.02000*%
%ADD15R,0.02000X0.02000*%
D10*
X0273141Y0200555D02*
X0273758Y0199938D01*
X0274375Y0199938D01*
X0273141Y0200555D02*
X0273141Y0203641D01*
X0273141Y0201172D02*
X0274993Y0201172D01*
X0275610Y0201789D01*
X0275610Y0203641D01*
X0277448Y0204875D02*
X0277448Y0201172D01*
X0278065Y0201172D02*
X0276831Y0201172D01*
X0279280Y0201789D02*
X0279897Y0201172D01*
X0281748Y0201172D01*
X0281748Y0199938D02*
X0281748Y0203641D01*
X0279897Y0203641D01*
X0279280Y0203024D01*
X0279280Y0201789D01*
X0278065Y0204875D02*
X0277448Y0204875D01*
X0282963Y0203024D02*
X0282963Y0201789D01*
X0283580Y0201172D01*
X0285432Y0201172D01*
X0286646Y0201172D02*
X0286646Y0203641D01*
X0285432Y0203641D02*
X0283580Y0203641D01*
X0282963Y0203024D01*
X0285432Y0203641D02*
X0285432Y0199938D01*
X0286646Y0201172D02*
X0288497Y0201172D01*
X0289115Y0201789D01*
X0289115Y0203641D01*
X0290329Y0203641D02*
X0292181Y0203641D01*
X0292798Y0203024D01*
X0292181Y0202407D01*
X0290946Y0202407D01*
X0290329Y0201789D01*
X0290946Y0201172D01*
X0292798Y0201172D01*
X0297695Y0202407D02*
X0300164Y0202407D01*
X0300164Y0203024D02*
X0299547Y0203641D01*
X0298313Y0203641D01*
X0297695Y0203024D01*
X0297695Y0202407D01*
X0298313Y0201172D02*
X0299547Y0201172D01*
X0300164Y0201789D01*
X0300164Y0203024D01*
X0301378Y0203641D02*
X0302613Y0201172D01*
X0303847Y0203641D01*
X0305685Y0203641D02*
X0305685Y0201172D01*
X0305068Y0201172D02*
X0306303Y0201172D01*
X0307524Y0201172D02*
X0308141Y0201789D01*
X0308141Y0204258D01*
X0308758Y0203641D02*
X0307524Y0203641D01*
X0306303Y0203641D02*
X0305685Y0203641D01*
X0305685Y0204875D02*
X0305685Y0205493D01*
X0309972Y0203024D02*
X0310590Y0203641D01*
X0311824Y0203641D01*
X0311824Y0202407D02*
X0309972Y0202407D01*
X0309972Y0203024D02*
X0309972Y0201172D01*
X0311824Y0201172D01*
X0312441Y0201789D01*
X0311824Y0202407D01*
X0313656Y0203641D02*
X0313656Y0200555D01*
X0314273Y0199938D01*
X0314890Y0199938D01*
X0315507Y0201172D02*
X0313656Y0201172D01*
X0315507Y0201172D02*
X0316124Y0201789D01*
X0316124Y0203024D01*
X0315507Y0203641D01*
X0313656Y0203641D01*
X0317339Y0203024D02*
X0317339Y0202407D01*
X0319808Y0202407D01*
X0319808Y0203024D02*
X0319190Y0203641D01*
X0317956Y0203641D01*
X0317339Y0203024D01*
X0317956Y0201172D02*
X0319190Y0201172D01*
X0319808Y0201789D01*
X0319808Y0203024D01*
X0321022Y0203024D02*
X0321639Y0203641D01*
X0323491Y0203641D01*
X0323491Y0201172D01*
X0321022Y0201172D02*
X0321022Y0203024D01*
X0328392Y0203641D02*
X0329009Y0203641D01*
X0330243Y0202407D01*
X0331457Y0202407D02*
X0333309Y0202407D01*
X0333926Y0201789D01*
X0333309Y0201172D01*
X0331457Y0201172D01*
X0331457Y0203024D01*
X0332075Y0203641D01*
X0333309Y0203641D01*
X0335764Y0204875D02*
X0335764Y0201172D01*
X0335147Y0201172D02*
X0336382Y0201172D01*
X0337596Y0201789D02*
X0337596Y0203024D01*
X0338213Y0203641D01*
X0339448Y0203641D01*
X0340065Y0203024D01*
X0340065Y0201789D01*
X0339448Y0201172D01*
X0338213Y0201172D01*
X0337596Y0201789D01*
X0336382Y0204875D02*
X0335764Y0204875D01*
X0330243Y0203641D02*
X0330243Y0201172D01*
X0341279Y0201789D02*
X0341896Y0201172D01*
X0343748Y0201172D01*
X0344969Y0201172D02*
X0346203Y0201172D01*
X0345586Y0201172D02*
X0345586Y0203641D01*
X0346203Y0203641D01*
X0347418Y0203024D02*
X0348035Y0203641D01*
X0349887Y0203641D01*
X0349887Y0204875D02*
X0349887Y0201172D01*
X0348035Y0201172D01*
X0347418Y0201789D01*
X0347418Y0203024D01*
X0345586Y0204875D02*
X0345586Y0205493D01*
X0343748Y0203641D02*
X0341896Y0203641D01*
X0341279Y0203024D01*
X0341279Y0201789D01*
X0343748Y0199938D02*
X0343748Y0203641D01*
D11*
X0372238Y0173328D02*
X0375741Y0173328D01*
X0375741Y0166322D01*
X0372238Y0166322D01*
X0371070Y0167490D01*
X0371070Y0172161D01*
X0372238Y0173328D01*
X0378068Y0173328D02*
X0378068Y0166322D01*
X0382739Y0173328D01*
X0382739Y0166322D01*
X0385066Y0167490D02*
X0385066Y0169825D01*
X0387401Y0169825D01*
X0385066Y0167490D02*
X0386234Y0166322D01*
X0388569Y0166322D01*
X0389737Y0167490D01*
X0389737Y0172161D01*
X0388569Y0173328D01*
X0386234Y0173328D01*
X0385066Y0172161D01*
X0387237Y0050828D02*
X0387237Y0046158D01*
X0384901Y0043822D01*
X0382566Y0046158D01*
X0382566Y0050828D01*
X0380239Y0047325D02*
X0375568Y0047325D01*
X0017237Y0093328D02*
X0016069Y0094496D01*
X0013734Y0092161D01*
X0012566Y0093328D01*
X0013734Y0137161D02*
X0012566Y0138328D01*
X0013734Y0137161D02*
X0016069Y0139496D01*
X0017237Y0138328D01*
D12*
X0005037Y0207873D02*
X0005037Y0011022D01*
X0398737Y0011022D01*
X0398737Y0207873D01*
X0005037Y0207873D01*
D13*
X0015080Y0131326D02*
X0018615Y0131326D01*
X0022151Y0127790D01*
X0015080Y0131326D02*
X0011544Y0127790D01*
X0011544Y0124254D01*
X0015080Y0120719D01*
X0015080Y0086326D02*
X0018615Y0086326D01*
X0022151Y0082790D01*
X0015080Y0086326D02*
X0011544Y0082790D01*
X0011544Y0079254D01*
X0015080Y0075719D01*
X0382537Y0066022D02*
X0387537Y0066022D01*
X0390037Y0063522D01*
X0390037Y0058522D01*
X0387537Y0056022D01*
X0382537Y0056022D01*
X0382537Y0151022D02*
X0387537Y0151022D01*
X0390037Y0153522D01*
X0390037Y0158522D01*
X0387537Y0161022D01*
X0382537Y0161022D01*
D14*
G36*
X0018262Y0126022D02*
X0016848Y0124608D01*
X0015434Y0126022D01*
X0016848Y0127436D01*
X0018262Y0126022D01*
G37*
G36*
X0018262Y0081022D02*
X0016848Y0079608D01*
X0015434Y0081022D01*
X0016848Y0082436D01*
X0018262Y0081022D01*
G37*
D15*
X0385037Y0061022D03*
X0385037Y0156022D03*
M02*
