%
M48
M72
T01C0.02362
T02C0.03543
T03C0.03600
T04C0.04000
T05C0.04400
T06C0.05200
T07C0.05500
T08C0.07900
T09C0.11024
T10C0.12598
%
T01
X135037Y181022
X140037Y196022
X180037Y196022
X220037Y196022
X265037Y196022
X305037Y196022
X305037Y171022
X305037Y136022
X310037Y136022
X310037Y131022
X305037Y131022
X305037Y126022
X310037Y126022
X195037Y66022
X170037Y51022
X195037Y21022
X225037Y21022
X225037Y26022
X175037Y86022
X170037Y86022
X170037Y91022
X175037Y91022
X175037Y96022
X180037Y96022
X170037Y96022
X135037Y121022
X135037Y126022
X135037Y131022
X135037Y136022
X135037Y141022
X135037Y146022
X175037Y141022
X175037Y126022
T02
X216037Y41731
X225037Y41731
X234037Y41731
T03
X200037Y71022
X240037Y71022
X265037Y71022
X290037Y71022
X290037Y121022
X265037Y121022
X240037Y121022
X200037Y121022
T04
X250037Y161022
X280037Y161022
X97108Y48093
X75894Y26880
T05
X220037Y76022
X220037Y116022
T06
X42438Y158747
X42438Y60147
T07
X77871Y70747
X77871Y100274
X77871Y129802
X77871Y169172
X281962Y49113
X303462Y49113
X324962Y49113
T08
X116533Y81022
X156533Y81022
X156533Y166022
X116533Y166022
X355037Y129447
X355037Y89447
T09
X16848Y81022
X16848Y126022
X146296Y22833
X303777Y22833
X385037Y61022
X385037Y156022
T10
X27674Y195077
X27674Y23818
X376100Y23818
X376100Y195077
M30
