G75*
%MOIN*%
%OFA0B0*%
%FSLAX25Y25*%
%IPPOS*%
%LPD*%
%AMOC8*
5,1,8,0,0,1.08239X$1,22.5*
%
%ADD10C,0.00300*%
%ADD11C,0.00500*%
%ADD12C,0.00000*%
%ADD13C,0.00800*%
%ADD14R,0.02000X0.02000*%
D10*
X0275720Y0015035D02*
X0276337Y0014418D01*
X0276955Y0014418D01*
X0277572Y0015652D02*
X0275720Y0015652D01*
X0275720Y0015035D02*
X0275720Y0018121D01*
X0278189Y0018121D02*
X0278189Y0016269D01*
X0277572Y0015652D01*
X0279410Y0015652D02*
X0280644Y0015652D01*
X0280027Y0015652D02*
X0280027Y0019355D01*
X0280644Y0019355D01*
X0282476Y0018121D02*
X0281859Y0017504D01*
X0281859Y0016269D01*
X0282476Y0015652D01*
X0284328Y0015652D01*
X0284328Y0014418D02*
X0284328Y0018121D01*
X0282476Y0018121D01*
X0285542Y0017504D02*
X0285542Y0016269D01*
X0286159Y0015652D01*
X0288011Y0015652D01*
X0289225Y0015652D02*
X0289225Y0018121D01*
X0288011Y0018121D02*
X0286159Y0018121D01*
X0285542Y0017504D01*
X0288011Y0018121D02*
X0288011Y0014418D01*
X0289225Y0015652D02*
X0291077Y0015652D01*
X0291694Y0016269D01*
X0291694Y0018121D01*
X0292908Y0018121D02*
X0294760Y0018121D01*
X0295377Y0017504D01*
X0294760Y0016886D01*
X0293525Y0016886D01*
X0292908Y0016269D01*
X0293525Y0015652D01*
X0295377Y0015652D01*
X0300275Y0016886D02*
X0300275Y0017504D01*
X0300892Y0018121D01*
X0302126Y0018121D01*
X0302743Y0017504D01*
X0302743Y0016269D01*
X0302126Y0015652D01*
X0300892Y0015652D01*
X0300275Y0016886D02*
X0302743Y0016886D01*
X0303958Y0018121D02*
X0305192Y0015652D01*
X0306426Y0018121D01*
X0308265Y0018121D02*
X0308265Y0015652D01*
X0308882Y0015652D02*
X0307647Y0015652D01*
X0310103Y0015652D02*
X0310720Y0016269D01*
X0310720Y0018738D01*
X0311337Y0018121D02*
X0310103Y0018121D01*
X0308882Y0018121D02*
X0308265Y0018121D01*
X0308265Y0019355D02*
X0308265Y0019972D01*
X0313176Y0019972D02*
X0313176Y0019355D01*
X0313176Y0018121D02*
X0313176Y0015652D01*
X0313793Y0015652D02*
X0312558Y0015652D01*
X0315007Y0016269D02*
X0315624Y0016886D01*
X0316859Y0016886D01*
X0317476Y0017504D01*
X0316859Y0018121D01*
X0315007Y0018121D01*
X0313793Y0018121D02*
X0313176Y0018121D01*
X0315007Y0016269D02*
X0315624Y0015652D01*
X0317476Y0015652D01*
X0318690Y0016269D02*
X0318690Y0017504D01*
X0319307Y0018121D01*
X0320542Y0018121D01*
X0321159Y0017504D01*
X0321159Y0016269D01*
X0320542Y0015652D01*
X0319307Y0015652D01*
X0318690Y0016269D01*
X0322373Y0016269D02*
X0322373Y0017504D01*
X0322991Y0018121D01*
X0324842Y0018121D01*
X0324842Y0014418D01*
X0324842Y0015652D02*
X0322991Y0015652D01*
X0322373Y0016269D01*
X0329740Y0018738D02*
X0329740Y0019355D01*
X0332208Y0019355D01*
X0334657Y0019355D02*
X0335892Y0018121D01*
X0337106Y0018121D02*
X0337723Y0017504D01*
X0337106Y0016886D01*
X0337106Y0016269D01*
X0337723Y0015652D01*
X0338958Y0015652D01*
X0339575Y0016269D01*
X0340789Y0015652D02*
X0340789Y0017504D01*
X0341406Y0018121D01*
X0342023Y0017504D01*
X0342023Y0015652D01*
X0343258Y0015652D02*
X0343258Y0018121D01*
X0342641Y0018121D01*
X0342023Y0017504D01*
X0339575Y0018738D02*
X0338958Y0019355D01*
X0337723Y0019355D01*
X0337106Y0018738D01*
X0337106Y0018121D01*
X0337723Y0017504D02*
X0338340Y0017504D01*
X0335892Y0015652D02*
X0333423Y0015652D01*
X0332208Y0015652D02*
X0332208Y0016269D01*
X0329740Y0018738D01*
X0334657Y0019355D02*
X0334657Y0015652D01*
X0344479Y0015652D02*
X0345713Y0015652D01*
X0345096Y0015652D02*
X0345096Y0019355D01*
X0345713Y0019355D01*
D11*
X0373562Y0039407D02*
X0373562Y0043477D01*
X0374580Y0044495D01*
X0377632Y0044495D01*
X0377632Y0038390D01*
X0374580Y0038390D01*
X0373562Y0039407D01*
X0379639Y0038390D02*
X0379639Y0044495D01*
X0383709Y0044495D02*
X0379639Y0038390D01*
X0383709Y0038390D02*
X0383709Y0044495D01*
X0385716Y0043477D02*
X0386734Y0044495D01*
X0388769Y0044495D01*
X0389787Y0043477D01*
X0389787Y0039407D01*
X0388769Y0038390D01*
X0386734Y0038390D01*
X0385716Y0039407D01*
X0385716Y0041442D01*
X0387751Y0041442D01*
X0382751Y0168390D02*
X0380716Y0170425D01*
X0380716Y0174495D01*
X0378709Y0171442D02*
X0374639Y0171442D01*
X0376674Y0173477D02*
X0376674Y0169407D01*
X0382751Y0168390D02*
X0384787Y0170425D01*
X0384787Y0174495D01*
X0014787Y0124495D02*
X0013769Y0125513D01*
X0011734Y0123477D01*
X0010716Y0124495D01*
X0013769Y0085513D02*
X0011734Y0083477D01*
X0010716Y0084495D01*
X0013769Y0085513D02*
X0014787Y0084495D01*
D12*
X0005037Y0008140D02*
X0005037Y0204990D01*
X0398737Y0204990D01*
X0398737Y0008140D01*
X0005037Y0008140D01*
D13*
X0015080Y0067836D02*
X0011544Y0071372D01*
X0011544Y0074908D01*
X0015080Y0078443D01*
X0018615Y0078443D01*
X0022151Y0074908D01*
X0015080Y0107836D02*
X0011544Y0111372D01*
X0011544Y0114908D01*
X0015080Y0118443D01*
X0018615Y0118443D01*
X0022151Y0114908D01*
D14*
G36*
X0018262Y0113140D02*
X0016848Y0111726D01*
X0015434Y0113140D01*
X0016848Y0114554D01*
X0018262Y0113140D01*
G37*
G36*
X0018262Y0073140D02*
X0016848Y0071726D01*
X0015434Y0073140D01*
X0016848Y0074554D01*
X0018262Y0073140D01*
G37*
M02*
