%
M48
M72
T01C0.03200
T02C0.03600
T03C0.04000
T04C0.04400
T05C0.05200
T06C0.05500
T07C0.07900
T08C0.11024
T09C0.12598
%
T01
X250430Y57746
X260430Y57746
T02
X205037Y81329
X230037Y81329
X230037Y131329
X205037Y131329
T03
X80894Y177282
X102108Y156069
X209997Y169400
X219997Y169400
X229997Y169400
T04
X255037Y131053
X274328Y129715
X274328Y89715
X255037Y91053
T05
X45037Y57265
X45037Y155865
T06
X80037Y136289
X80037Y96919
X80037Y67392
X80037Y37864
T07
X120351Y48140
X159722Y48140
X159722Y128140
X120351Y128140
X351611Y125187
X351611Y85817
T08
X16848Y73140
X16848Y113140
X141296Y193140
X298777Y193140
X385037Y153140
X385037Y58140
T09
X27674Y20935
X27674Y192195
X376100Y192195
X376100Y20935
M30
