G75*
%MOIN*%
%OFA0B0*%
%FSLAX25Y25*%
%IPPOS*%
%LPD*%
%AMOC8*
5,1,8,0,0,1.08239X$1,22.5*
%
%ADD10C,0.00300*%
%ADD11C,0.00500*%
%ADD12C,0.00600*%
%ADD13C,0.00200*%
%ADD14R,0.16000X0.01500*%
%ADD15R,0.00500X0.03500*%
%ADD16R,0.04500X0.02500*%
%ADD17R,0.16000X0.02500*%
%ADD18R,0.02000X0.40000*%
%ADD19R,0.00500X0.15500*%
%ADD20R,0.02000X0.19000*%
%ADD21C,0.03000*%
%ADD22R,0.03000X0.01100*%
%ADD23C,0.03200*%
%ADD24R,0.20200X0.03200*%
%ADD25C,0.00000*%
%ADD26C,0.00800*%
%ADD27R,0.02000X0.02000*%
%ADD28R,0.10000X0.02000*%
%ADD29R,0.03000X0.07500*%
%ADD30C,0.01000*%
%ADD31R,0.05000X0.20000*%
%ADD32R,0.20000X0.05000*%
%ADD33C,0.02000*%
%ADD34R,0.07500X0.05000*%
%ADD35R,0.07000X0.03000*%
%ADD36R,0.03000X0.05000*%
%ADD37R,0.07000X0.02000*%
%ADD38R,0.02000X0.10000*%
D10*
X0275738Y0015652D02*
X0276972Y0015652D01*
X0276355Y0015652D02*
X0276355Y0019355D01*
X0275738Y0019355D01*
X0278193Y0018121D02*
X0278810Y0018121D01*
X0279428Y0017504D01*
X0280045Y0018121D01*
X0280662Y0017504D01*
X0280662Y0015652D01*
X0279428Y0015652D02*
X0279428Y0017504D01*
X0278193Y0018121D02*
X0278193Y0015652D01*
X0281876Y0016269D02*
X0282493Y0015652D01*
X0283728Y0015652D01*
X0284345Y0016269D01*
X0284345Y0016886D01*
X0283728Y0017504D01*
X0283111Y0017504D01*
X0283728Y0017504D02*
X0284345Y0018121D01*
X0284345Y0018738D01*
X0283728Y0019355D01*
X0282493Y0019355D01*
X0281876Y0018738D01*
X0285559Y0018121D02*
X0286794Y0019355D01*
X0286794Y0015652D01*
X0288028Y0015652D02*
X0285559Y0015652D01*
X0289243Y0015652D02*
X0289243Y0016269D01*
X0291711Y0018738D01*
X0291711Y0019355D01*
X0289243Y0019355D01*
X0296609Y0018121D02*
X0298460Y0018121D01*
X0299078Y0017504D01*
X0299078Y0016269D01*
X0298460Y0015652D01*
X0296609Y0015652D01*
X0296609Y0014418D02*
X0296609Y0018121D01*
X0300292Y0017504D02*
X0300292Y0016269D01*
X0300909Y0015652D01*
X0302144Y0015652D01*
X0302761Y0016269D01*
X0302761Y0017504D01*
X0302144Y0018121D01*
X0300909Y0018121D01*
X0300292Y0017504D01*
X0303975Y0017504D02*
X0304592Y0016886D01*
X0305827Y0016886D01*
X0306444Y0016269D01*
X0305827Y0015652D01*
X0303975Y0015652D01*
X0303975Y0017504D02*
X0304592Y0018121D01*
X0306444Y0018121D01*
X0307658Y0018121D02*
X0308275Y0018121D01*
X0308275Y0015652D01*
X0307658Y0015652D02*
X0308893Y0015652D01*
X0310731Y0016269D02*
X0310731Y0018738D01*
X0310114Y0018121D02*
X0311348Y0018121D01*
X0312569Y0018121D02*
X0313186Y0018121D01*
X0313186Y0015652D01*
X0312569Y0015652D02*
X0313804Y0015652D01*
X0316259Y0015652D02*
X0317493Y0018121D01*
X0318708Y0017504D02*
X0318708Y0016269D01*
X0319325Y0015652D01*
X0320559Y0015652D01*
X0321176Y0016886D02*
X0318708Y0016886D01*
X0318708Y0017504D02*
X0319325Y0018121D01*
X0320559Y0018121D01*
X0321176Y0017504D01*
X0321176Y0016886D01*
X0316259Y0015652D02*
X0315025Y0018121D01*
X0313186Y0019355D02*
X0313186Y0019972D01*
X0308275Y0019972D02*
X0308275Y0019355D01*
X0310731Y0016269D02*
X0311348Y0015652D01*
X0326074Y0015652D02*
X0327926Y0015652D01*
X0328543Y0016269D01*
X0327926Y0016886D01*
X0326691Y0016886D01*
X0326074Y0017504D01*
X0326691Y0018121D01*
X0328543Y0018121D01*
X0329757Y0018121D02*
X0329757Y0016269D01*
X0330374Y0015652D01*
X0332226Y0015652D01*
X0332226Y0018121D01*
X0333440Y0018121D02*
X0335292Y0018121D01*
X0335909Y0017504D01*
X0335909Y0016269D01*
X0335292Y0015652D01*
X0333440Y0015652D01*
X0333440Y0014418D02*
X0333440Y0018121D01*
X0337123Y0018121D02*
X0338975Y0018121D01*
X0339592Y0017504D01*
X0339592Y0016269D01*
X0338975Y0015652D01*
X0337123Y0015652D01*
X0337123Y0014418D02*
X0337123Y0018121D01*
X0340807Y0019355D02*
X0341424Y0019355D01*
X0341424Y0015652D01*
X0340807Y0015652D02*
X0342041Y0015652D01*
X0343262Y0016269D02*
X0343879Y0015652D01*
X0345731Y0015652D01*
X0345731Y0015035D02*
X0345114Y0014418D01*
X0344496Y0014418D01*
X0345731Y0015035D02*
X0345731Y0018121D01*
X0343262Y0018121D02*
X0343262Y0016269D01*
D11*
X0366304Y0038390D02*
X0365287Y0039407D01*
X0365287Y0043477D01*
X0366304Y0044495D01*
X0368339Y0044495D01*
X0369357Y0043477D01*
X0369357Y0041442D02*
X0367322Y0041442D01*
X0369357Y0041442D02*
X0369357Y0039407D01*
X0368339Y0038390D01*
X0366304Y0038390D01*
X0371364Y0038390D02*
X0371364Y0044495D01*
X0375434Y0038390D01*
X0375434Y0044495D01*
X0377441Y0044495D02*
X0380494Y0044495D01*
X0381511Y0043477D01*
X0381511Y0039407D01*
X0380494Y0038390D01*
X0377441Y0038390D01*
X0377441Y0044495D01*
X0229248Y0164650D02*
X0227747Y0164650D01*
X0228498Y0164650D02*
X0228498Y0169153D01*
X0229248Y0169153D02*
X0227747Y0169153D01*
X0220750Y0168403D02*
X0220750Y0165400D01*
X0219999Y0164650D01*
X0218498Y0164650D01*
X0217747Y0165400D01*
X0217747Y0168403D01*
X0218498Y0169153D01*
X0219999Y0169153D01*
X0220750Y0168403D01*
X0210750Y0167652D02*
X0210750Y0164650D01*
X0210750Y0166902D02*
X0207747Y0166902D01*
X0207747Y0167652D02*
X0209248Y0169153D01*
X0210750Y0167652D01*
X0207747Y0167652D02*
X0207747Y0164650D01*
X0214131Y0179557D02*
X0214131Y0193140D01*
X0225942Y0193140D01*
X0225942Y0179557D01*
X0214131Y0179557D01*
X0147202Y0179557D01*
X0135037Y0179557D01*
X0135037Y0193140D01*
X0135391Y0193140D02*
X0147202Y0193140D01*
X0147202Y0179557D01*
X0135037Y0179557D02*
X0101926Y0179557D01*
X0101926Y0203179D01*
X0338147Y0203179D01*
X0338147Y0179557D01*
X0304682Y0179557D01*
X0304682Y0193140D01*
X0292871Y0193140D01*
X0292871Y0179557D01*
X0304682Y0179557D01*
X0292871Y0179557D02*
X0225942Y0179557D01*
X0094898Y0181902D02*
X0094898Y0182728D01*
X0094072Y0183554D01*
X0093246Y0183554D01*
X0092293Y0184507D02*
X0092293Y0185332D01*
X0091468Y0186158D01*
X0090642Y0186158D01*
X0089689Y0187111D02*
X0089689Y0187937D01*
X0088863Y0188762D01*
X0088038Y0188762D01*
X0087625Y0188350D01*
X0087625Y0187524D01*
X0088863Y0186285D01*
X0088038Y0185460D02*
X0089689Y0187111D01*
X0088038Y0185460D02*
X0087212Y0185460D01*
X0086386Y0186285D01*
X0086386Y0187111D01*
X0085433Y0188064D02*
X0084608Y0188064D01*
X0083782Y0188890D01*
X0083782Y0189716D01*
X0087085Y0189716D01*
X0085433Y0188064D01*
X0083782Y0189716D02*
X0085433Y0191367D01*
X0086259Y0191367D01*
X0087085Y0190541D01*
X0087085Y0189716D01*
X0088578Y0184094D02*
X0091881Y0184094D01*
X0092293Y0184507D01*
X0090229Y0182443D02*
X0088578Y0184094D01*
X0091182Y0181490D02*
X0094485Y0181490D01*
X0094898Y0181902D01*
X0092834Y0179838D02*
X0091182Y0181490D01*
X0019357Y0124495D02*
X0018339Y0123477D01*
X0016304Y0125513D01*
X0015287Y0124495D01*
X0016304Y0085513D02*
X0018339Y0083477D01*
X0019357Y0084495D01*
X0016304Y0085513D02*
X0015287Y0084495D01*
X0365287Y0170425D02*
X0367322Y0168390D01*
X0369357Y0170425D01*
X0369357Y0174495D01*
X0371364Y0171442D02*
X0375434Y0171442D01*
X0373399Y0173477D02*
X0373399Y0169407D01*
X0365287Y0170425D02*
X0365287Y0174495D01*
D12*
X0279328Y0117715D02*
X0269328Y0117715D01*
X0269328Y0101715D01*
X0279328Y0101715D01*
X0279328Y0117715D01*
X0274328Y0112215D02*
X0274328Y0109715D01*
X0271828Y0109715D01*
X0274328Y0109715D02*
X0276828Y0109715D01*
X0274328Y0109715D02*
X0276828Y0105715D01*
X0271828Y0105715D01*
X0274328Y0109715D01*
X0274328Y0103715D01*
X0260037Y0103053D02*
X0260037Y0119053D01*
X0250037Y0119053D01*
X0250037Y0103053D01*
X0260037Y0103053D01*
X0255037Y0105053D02*
X0255037Y0111053D01*
X0252537Y0111053D01*
X0255037Y0111053D02*
X0255037Y0113553D01*
X0255037Y0111053D02*
X0257537Y0111053D01*
X0255037Y0111053D02*
X0257537Y0107053D01*
X0252537Y0107053D01*
X0255037Y0111053D01*
X0238037Y0122329D02*
X0237537Y0121829D01*
X0237537Y0090829D01*
X0238037Y0090329D01*
X0238037Y0087829D01*
X0238035Y0087753D01*
X0238029Y0087677D01*
X0238020Y0087602D01*
X0238006Y0087527D01*
X0237989Y0087453D01*
X0237968Y0087380D01*
X0237944Y0087308D01*
X0237915Y0087237D01*
X0237884Y0087168D01*
X0237849Y0087101D01*
X0237810Y0087036D01*
X0237768Y0086972D01*
X0237723Y0086911D01*
X0237675Y0086852D01*
X0237624Y0086796D01*
X0237570Y0086742D01*
X0237514Y0086691D01*
X0237455Y0086643D01*
X0237394Y0086598D01*
X0237330Y0086556D01*
X0237265Y0086517D01*
X0237198Y0086482D01*
X0237129Y0086451D01*
X0237058Y0086422D01*
X0236986Y0086398D01*
X0236913Y0086377D01*
X0236839Y0086360D01*
X0236764Y0086346D01*
X0236689Y0086337D01*
X0236613Y0086331D01*
X0236537Y0086329D01*
X0223537Y0086329D01*
X0223461Y0086331D01*
X0223385Y0086337D01*
X0223310Y0086346D01*
X0223235Y0086360D01*
X0223161Y0086377D01*
X0223088Y0086398D01*
X0223016Y0086422D01*
X0222945Y0086451D01*
X0222876Y0086482D01*
X0222809Y0086517D01*
X0222744Y0086556D01*
X0222680Y0086598D01*
X0222619Y0086643D01*
X0222560Y0086691D01*
X0222504Y0086742D01*
X0222450Y0086796D01*
X0222399Y0086852D01*
X0222351Y0086911D01*
X0222306Y0086972D01*
X0222264Y0087036D01*
X0222225Y0087101D01*
X0222190Y0087168D01*
X0222159Y0087237D01*
X0222130Y0087308D01*
X0222106Y0087380D01*
X0222085Y0087453D01*
X0222068Y0087527D01*
X0222054Y0087602D01*
X0222045Y0087677D01*
X0222039Y0087753D01*
X0222037Y0087829D01*
X0222037Y0090329D01*
X0222537Y0090829D01*
X0222537Y0121829D01*
X0222037Y0122329D01*
X0222037Y0124829D01*
X0222039Y0124905D01*
X0222045Y0124981D01*
X0222054Y0125056D01*
X0222068Y0125131D01*
X0222085Y0125205D01*
X0222106Y0125278D01*
X0222130Y0125350D01*
X0222159Y0125421D01*
X0222190Y0125490D01*
X0222225Y0125557D01*
X0222264Y0125622D01*
X0222306Y0125686D01*
X0222351Y0125747D01*
X0222399Y0125806D01*
X0222450Y0125862D01*
X0222504Y0125916D01*
X0222560Y0125967D01*
X0222619Y0126015D01*
X0222680Y0126060D01*
X0222744Y0126102D01*
X0222809Y0126141D01*
X0222876Y0126176D01*
X0222945Y0126207D01*
X0223016Y0126236D01*
X0223088Y0126260D01*
X0223161Y0126281D01*
X0223235Y0126298D01*
X0223310Y0126312D01*
X0223385Y0126321D01*
X0223461Y0126327D01*
X0223537Y0126329D01*
X0236537Y0126329D01*
X0236613Y0126327D01*
X0236689Y0126321D01*
X0236764Y0126312D01*
X0236839Y0126298D01*
X0236913Y0126281D01*
X0236986Y0126260D01*
X0237058Y0126236D01*
X0237129Y0126207D01*
X0237198Y0126176D01*
X0237265Y0126141D01*
X0237330Y0126102D01*
X0237394Y0126060D01*
X0237455Y0126015D01*
X0237514Y0125967D01*
X0237570Y0125916D01*
X0237624Y0125862D01*
X0237675Y0125806D01*
X0237723Y0125747D01*
X0237768Y0125686D01*
X0237810Y0125622D01*
X0237849Y0125557D01*
X0237884Y0125490D01*
X0237915Y0125421D01*
X0237944Y0125350D01*
X0237968Y0125278D01*
X0237989Y0125205D01*
X0238006Y0125131D01*
X0238020Y0125056D01*
X0238029Y0124981D01*
X0238035Y0124905D01*
X0238037Y0124829D01*
X0238037Y0122329D01*
X0213037Y0122329D02*
X0212537Y0121829D01*
X0212537Y0090829D01*
X0213037Y0090329D01*
X0213037Y0087829D01*
X0213035Y0087753D01*
X0213029Y0087677D01*
X0213020Y0087602D01*
X0213006Y0087527D01*
X0212989Y0087453D01*
X0212968Y0087380D01*
X0212944Y0087308D01*
X0212915Y0087237D01*
X0212884Y0087168D01*
X0212849Y0087101D01*
X0212810Y0087036D01*
X0212768Y0086972D01*
X0212723Y0086911D01*
X0212675Y0086852D01*
X0212624Y0086796D01*
X0212570Y0086742D01*
X0212514Y0086691D01*
X0212455Y0086643D01*
X0212394Y0086598D01*
X0212330Y0086556D01*
X0212265Y0086517D01*
X0212198Y0086482D01*
X0212129Y0086451D01*
X0212058Y0086422D01*
X0211986Y0086398D01*
X0211913Y0086377D01*
X0211839Y0086360D01*
X0211764Y0086346D01*
X0211689Y0086337D01*
X0211613Y0086331D01*
X0211537Y0086329D01*
X0198537Y0086329D01*
X0198461Y0086331D01*
X0198385Y0086337D01*
X0198310Y0086346D01*
X0198235Y0086360D01*
X0198161Y0086377D01*
X0198088Y0086398D01*
X0198016Y0086422D01*
X0197945Y0086451D01*
X0197876Y0086482D01*
X0197809Y0086517D01*
X0197744Y0086556D01*
X0197680Y0086598D01*
X0197619Y0086643D01*
X0197560Y0086691D01*
X0197504Y0086742D01*
X0197450Y0086796D01*
X0197399Y0086852D01*
X0197351Y0086911D01*
X0197306Y0086972D01*
X0197264Y0087036D01*
X0197225Y0087101D01*
X0197190Y0087168D01*
X0197159Y0087237D01*
X0197130Y0087308D01*
X0197106Y0087380D01*
X0197085Y0087453D01*
X0197068Y0087527D01*
X0197054Y0087602D01*
X0197045Y0087677D01*
X0197039Y0087753D01*
X0197037Y0087829D01*
X0197037Y0090329D01*
X0197537Y0090829D01*
X0197537Y0121829D01*
X0197037Y0122329D01*
X0197037Y0124829D01*
X0197039Y0124905D01*
X0197045Y0124981D01*
X0197054Y0125056D01*
X0197068Y0125131D01*
X0197085Y0125205D01*
X0197106Y0125278D01*
X0197130Y0125350D01*
X0197159Y0125421D01*
X0197190Y0125490D01*
X0197225Y0125557D01*
X0197264Y0125622D01*
X0197306Y0125686D01*
X0197351Y0125747D01*
X0197399Y0125806D01*
X0197450Y0125862D01*
X0197504Y0125916D01*
X0197560Y0125967D01*
X0197619Y0126015D01*
X0197680Y0126060D01*
X0197744Y0126102D01*
X0197809Y0126141D01*
X0197876Y0126176D01*
X0197945Y0126207D01*
X0198016Y0126236D01*
X0198088Y0126260D01*
X0198161Y0126281D01*
X0198235Y0126298D01*
X0198310Y0126312D01*
X0198385Y0126321D01*
X0198461Y0126327D01*
X0198537Y0126329D01*
X0211537Y0126329D01*
X0211613Y0126327D01*
X0211689Y0126321D01*
X0211764Y0126312D01*
X0211839Y0126298D01*
X0211913Y0126281D01*
X0211986Y0126260D01*
X0212058Y0126236D01*
X0212129Y0126207D01*
X0212198Y0126176D01*
X0212265Y0126141D01*
X0212330Y0126102D01*
X0212394Y0126060D01*
X0212455Y0126015D01*
X0212514Y0125967D01*
X0212570Y0125916D01*
X0212624Y0125862D01*
X0212675Y0125806D01*
X0212723Y0125747D01*
X0212768Y0125686D01*
X0212810Y0125622D01*
X0212849Y0125557D01*
X0212884Y0125490D01*
X0212915Y0125421D01*
X0212944Y0125350D01*
X0212968Y0125278D01*
X0212989Y0125205D01*
X0213006Y0125131D01*
X0213020Y0125056D01*
X0213029Y0124981D01*
X0213035Y0124905D01*
X0213037Y0124829D01*
X0213037Y0122329D01*
X0200997Y0162400D02*
X0199997Y0163400D01*
X0199997Y0174900D01*
X0200997Y0162400D02*
X0238997Y0162400D01*
X0239997Y0163400D01*
X0239997Y0174900D01*
X0100667Y0128140D02*
X0100679Y0129106D01*
X0100714Y0130072D01*
X0100774Y0131036D01*
X0100857Y0131999D01*
X0100963Y0132959D01*
X0101093Y0133917D01*
X0101247Y0134871D01*
X0101423Y0135821D01*
X0101624Y0136766D01*
X0101847Y0137706D01*
X0102093Y0138640D01*
X0102362Y0139569D01*
X0102654Y0140490D01*
X0102968Y0141403D01*
X0103305Y0142309D01*
X0103664Y0143206D01*
X0104045Y0144094D01*
X0104447Y0144973D01*
X0104871Y0145841D01*
X0105316Y0146699D01*
X0105782Y0147545D01*
X0106268Y0148380D01*
X0106775Y0149203D01*
X0107302Y0150013D01*
X0107849Y0150810D01*
X0108415Y0151593D01*
X0109000Y0152362D01*
X0109604Y0153116D01*
X0110226Y0153855D01*
X0110866Y0154579D01*
X0111523Y0155287D01*
X0112198Y0155979D01*
X0112890Y0156654D01*
X0113598Y0157311D01*
X0114322Y0157951D01*
X0115061Y0158573D01*
X0115815Y0159177D01*
X0116584Y0159762D01*
X0117367Y0160328D01*
X0118164Y0160875D01*
X0118974Y0161402D01*
X0119797Y0161909D01*
X0120632Y0162395D01*
X0121478Y0162861D01*
X0122336Y0163306D01*
X0123204Y0163730D01*
X0124083Y0164132D01*
X0124971Y0164513D01*
X0125868Y0164872D01*
X0126774Y0165209D01*
X0127687Y0165523D01*
X0128608Y0165815D01*
X0129537Y0166084D01*
X0130471Y0166330D01*
X0131411Y0166553D01*
X0132356Y0166754D01*
X0133306Y0166930D01*
X0134260Y0167084D01*
X0135218Y0167214D01*
X0136178Y0167320D01*
X0137141Y0167403D01*
X0138105Y0167463D01*
X0139071Y0167498D01*
X0140037Y0167510D01*
X0141003Y0167498D01*
X0141969Y0167463D01*
X0142933Y0167403D01*
X0143896Y0167320D01*
X0144856Y0167214D01*
X0145814Y0167084D01*
X0146768Y0166930D01*
X0147718Y0166754D01*
X0148663Y0166553D01*
X0149603Y0166330D01*
X0150537Y0166084D01*
X0151466Y0165815D01*
X0152387Y0165523D01*
X0153300Y0165209D01*
X0154206Y0164872D01*
X0155103Y0164513D01*
X0155991Y0164132D01*
X0156870Y0163730D01*
X0157738Y0163306D01*
X0158596Y0162861D01*
X0159442Y0162395D01*
X0160277Y0161909D01*
X0161100Y0161402D01*
X0161910Y0160875D01*
X0162707Y0160328D01*
X0163490Y0159762D01*
X0164259Y0159177D01*
X0165013Y0158573D01*
X0165752Y0157951D01*
X0166476Y0157311D01*
X0167184Y0156654D01*
X0167876Y0155979D01*
X0168551Y0155287D01*
X0169208Y0154579D01*
X0169848Y0153855D01*
X0170470Y0153116D01*
X0171074Y0152362D01*
X0171659Y0151593D01*
X0172225Y0150810D01*
X0172772Y0150013D01*
X0173299Y0149203D01*
X0173806Y0148380D01*
X0174292Y0147545D01*
X0174758Y0146699D01*
X0175203Y0145841D01*
X0175627Y0144973D01*
X0176029Y0144094D01*
X0176410Y0143206D01*
X0176769Y0142309D01*
X0177106Y0141403D01*
X0177420Y0140490D01*
X0177712Y0139569D01*
X0177981Y0138640D01*
X0178227Y0137706D01*
X0178450Y0136766D01*
X0178651Y0135821D01*
X0178827Y0134871D01*
X0178981Y0133917D01*
X0179111Y0132959D01*
X0179217Y0131999D01*
X0179300Y0131036D01*
X0179360Y0130072D01*
X0179395Y0129106D01*
X0179407Y0128140D01*
X0179395Y0127174D01*
X0179360Y0126208D01*
X0179300Y0125244D01*
X0179217Y0124281D01*
X0179111Y0123321D01*
X0178981Y0122363D01*
X0178827Y0121409D01*
X0178651Y0120459D01*
X0178450Y0119514D01*
X0178227Y0118574D01*
X0177981Y0117640D01*
X0177712Y0116711D01*
X0177420Y0115790D01*
X0177106Y0114877D01*
X0176769Y0113971D01*
X0176410Y0113074D01*
X0176029Y0112186D01*
X0175627Y0111307D01*
X0175203Y0110439D01*
X0174758Y0109581D01*
X0174292Y0108735D01*
X0173806Y0107900D01*
X0173299Y0107077D01*
X0172772Y0106267D01*
X0172225Y0105470D01*
X0171659Y0104687D01*
X0171074Y0103918D01*
X0170470Y0103164D01*
X0169848Y0102425D01*
X0169208Y0101701D01*
X0168551Y0100993D01*
X0167876Y0100301D01*
X0167184Y0099626D01*
X0166476Y0098969D01*
X0165752Y0098329D01*
X0165013Y0097707D01*
X0164259Y0097103D01*
X0163490Y0096518D01*
X0162707Y0095952D01*
X0161910Y0095405D01*
X0161100Y0094878D01*
X0160277Y0094371D01*
X0159442Y0093885D01*
X0158596Y0093419D01*
X0157738Y0092974D01*
X0156870Y0092550D01*
X0155991Y0092148D01*
X0155103Y0091767D01*
X0154206Y0091408D01*
X0153300Y0091071D01*
X0152387Y0090757D01*
X0151466Y0090465D01*
X0150537Y0090196D01*
X0149603Y0089950D01*
X0148663Y0089727D01*
X0147718Y0089526D01*
X0146768Y0089350D01*
X0145814Y0089196D01*
X0144856Y0089066D01*
X0143896Y0088960D01*
X0142933Y0088877D01*
X0141969Y0088817D01*
X0141003Y0088782D01*
X0140037Y0088770D01*
X0139071Y0088782D01*
X0138105Y0088817D01*
X0137141Y0088877D01*
X0136178Y0088960D01*
X0135218Y0089066D01*
X0134260Y0089196D01*
X0133306Y0089350D01*
X0132356Y0089526D01*
X0131411Y0089727D01*
X0130471Y0089950D01*
X0129537Y0090196D01*
X0128608Y0090465D01*
X0127687Y0090757D01*
X0126774Y0091071D01*
X0125868Y0091408D01*
X0124971Y0091767D01*
X0124083Y0092148D01*
X0123204Y0092550D01*
X0122336Y0092974D01*
X0121478Y0093419D01*
X0120632Y0093885D01*
X0119797Y0094371D01*
X0118974Y0094878D01*
X0118164Y0095405D01*
X0117367Y0095952D01*
X0116584Y0096518D01*
X0115815Y0097103D01*
X0115061Y0097707D01*
X0114322Y0098329D01*
X0113598Y0098969D01*
X0112890Y0099626D01*
X0112198Y0100301D01*
X0111523Y0100993D01*
X0110866Y0101701D01*
X0110226Y0102425D01*
X0109604Y0103164D01*
X0109000Y0103918D01*
X0108415Y0104687D01*
X0107849Y0105470D01*
X0107302Y0106267D01*
X0106775Y0107077D01*
X0106268Y0107900D01*
X0105782Y0108735D01*
X0105316Y0109581D01*
X0104871Y0110439D01*
X0104447Y0111307D01*
X0104045Y0112186D01*
X0103664Y0113074D01*
X0103305Y0113971D01*
X0102968Y0114877D01*
X0102654Y0115790D01*
X0102362Y0116711D01*
X0102093Y0117640D01*
X0101847Y0118574D01*
X0101624Y0119514D01*
X0101423Y0120459D01*
X0101247Y0121409D01*
X0101093Y0122363D01*
X0100963Y0123321D01*
X0100857Y0124281D01*
X0100774Y0125244D01*
X0100714Y0126208D01*
X0100679Y0127174D01*
X0100667Y0128140D01*
X0074537Y0130289D02*
X0069537Y0130289D01*
X0072037Y0132789D02*
X0072037Y0127789D01*
X0059537Y0129065D02*
X0055037Y0129065D01*
X0055037Y0149065D01*
X0059537Y0149065D01*
X0059537Y0129065D01*
X0035037Y0129065D02*
X0030537Y0129065D01*
X0030537Y0149065D01*
X0030537Y0151565D01*
X0037037Y0151565D01*
X0040037Y0151565D01*
X0040037Y0150565D01*
X0037037Y0150565D01*
X0032537Y0150565D01*
X0032537Y0149065D01*
X0035037Y0149065D01*
X0035037Y0129065D01*
X0032537Y0149065D02*
X0030537Y0149065D01*
X0037037Y0158065D02*
X0023537Y0158065D01*
X0023537Y0055065D01*
X0037037Y0055065D01*
X0053037Y0055065D01*
X0066537Y0055065D01*
X0066537Y0158065D01*
X0053037Y0158065D01*
X0037037Y0158065D01*
X0069013Y0150069D02*
X0069013Y0024085D01*
X0091060Y0024085D01*
X0091060Y0150069D01*
X0069013Y0150069D01*
X0073394Y0177282D02*
X0073396Y0177466D01*
X0073403Y0177650D01*
X0073414Y0177834D01*
X0073430Y0178017D01*
X0073450Y0178200D01*
X0073475Y0178382D01*
X0073504Y0178564D01*
X0073538Y0178745D01*
X0073576Y0178925D01*
X0073619Y0179104D01*
X0073666Y0179282D01*
X0073717Y0179459D01*
X0073773Y0179635D01*
X0073832Y0179809D01*
X0073897Y0179981D01*
X0073965Y0180152D01*
X0074037Y0180321D01*
X0074114Y0180489D01*
X0074195Y0180654D01*
X0074280Y0180817D01*
X0074368Y0180979D01*
X0074461Y0181138D01*
X0074558Y0181294D01*
X0074658Y0181449D01*
X0074762Y0181601D01*
X0074870Y0181750D01*
X0074981Y0181896D01*
X0075096Y0182040D01*
X0075215Y0182181D01*
X0075337Y0182319D01*
X0075462Y0182454D01*
X0075591Y0182585D01*
X0075722Y0182714D01*
X0075857Y0182839D01*
X0075995Y0182961D01*
X0076136Y0183080D01*
X0076280Y0183195D01*
X0076426Y0183306D01*
X0076575Y0183414D01*
X0076727Y0183518D01*
X0076882Y0183618D01*
X0077038Y0183715D01*
X0077197Y0183808D01*
X0077359Y0183896D01*
X0077522Y0183981D01*
X0077687Y0184062D01*
X0077855Y0184139D01*
X0078024Y0184211D01*
X0078195Y0184279D01*
X0078367Y0184344D01*
X0078541Y0184403D01*
X0078717Y0184459D01*
X0078894Y0184510D01*
X0079072Y0184557D01*
X0079251Y0184600D01*
X0079431Y0184638D01*
X0079612Y0184672D01*
X0079794Y0184701D01*
X0079976Y0184726D01*
X0080159Y0184746D01*
X0080342Y0184762D01*
X0080526Y0184773D01*
X0080710Y0184780D01*
X0080894Y0184782D01*
X0081078Y0184780D01*
X0081262Y0184773D01*
X0081446Y0184762D01*
X0081629Y0184746D01*
X0081812Y0184726D01*
X0081994Y0184701D01*
X0082176Y0184672D01*
X0082357Y0184638D01*
X0082537Y0184600D01*
X0082716Y0184557D01*
X0082894Y0184510D01*
X0083071Y0184459D01*
X0083247Y0184403D01*
X0083421Y0184344D01*
X0083593Y0184279D01*
X0083764Y0184211D01*
X0083933Y0184139D01*
X0084101Y0184062D01*
X0084266Y0183981D01*
X0084429Y0183896D01*
X0084591Y0183808D01*
X0084750Y0183715D01*
X0084906Y0183618D01*
X0085061Y0183518D01*
X0085213Y0183414D01*
X0085362Y0183306D01*
X0085508Y0183195D01*
X0085652Y0183080D01*
X0085793Y0182961D01*
X0085931Y0182839D01*
X0086066Y0182714D01*
X0086197Y0182585D01*
X0086326Y0182454D01*
X0086451Y0182319D01*
X0086573Y0182181D01*
X0086692Y0182040D01*
X0086807Y0181896D01*
X0086918Y0181750D01*
X0087026Y0181601D01*
X0087130Y0181449D01*
X0087230Y0181294D01*
X0087327Y0181138D01*
X0087420Y0180979D01*
X0087508Y0180817D01*
X0087593Y0180654D01*
X0087674Y0180489D01*
X0087751Y0180321D01*
X0087823Y0180152D01*
X0087891Y0179981D01*
X0087956Y0179809D01*
X0088015Y0179635D01*
X0088071Y0179459D01*
X0088122Y0179282D01*
X0088169Y0179104D01*
X0088212Y0178925D01*
X0088250Y0178745D01*
X0088284Y0178564D01*
X0088313Y0178382D01*
X0088338Y0178200D01*
X0088358Y0178017D01*
X0088374Y0177834D01*
X0088385Y0177650D01*
X0088392Y0177466D01*
X0088394Y0177282D01*
X0088392Y0177098D01*
X0088385Y0176914D01*
X0088374Y0176730D01*
X0088358Y0176547D01*
X0088338Y0176364D01*
X0088313Y0176182D01*
X0088284Y0176000D01*
X0088250Y0175819D01*
X0088212Y0175639D01*
X0088169Y0175460D01*
X0088122Y0175282D01*
X0088071Y0175105D01*
X0088015Y0174929D01*
X0087956Y0174755D01*
X0087891Y0174583D01*
X0087823Y0174412D01*
X0087751Y0174243D01*
X0087674Y0174075D01*
X0087593Y0173910D01*
X0087508Y0173747D01*
X0087420Y0173585D01*
X0087327Y0173426D01*
X0087230Y0173270D01*
X0087130Y0173115D01*
X0087026Y0172963D01*
X0086918Y0172814D01*
X0086807Y0172668D01*
X0086692Y0172524D01*
X0086573Y0172383D01*
X0086451Y0172245D01*
X0086326Y0172110D01*
X0086197Y0171979D01*
X0086066Y0171850D01*
X0085931Y0171725D01*
X0085793Y0171603D01*
X0085652Y0171484D01*
X0085508Y0171369D01*
X0085362Y0171258D01*
X0085213Y0171150D01*
X0085061Y0171046D01*
X0084906Y0170946D01*
X0084750Y0170849D01*
X0084591Y0170756D01*
X0084429Y0170668D01*
X0084266Y0170583D01*
X0084101Y0170502D01*
X0083933Y0170425D01*
X0083764Y0170353D01*
X0083593Y0170285D01*
X0083421Y0170220D01*
X0083247Y0170161D01*
X0083071Y0170105D01*
X0082894Y0170054D01*
X0082716Y0170007D01*
X0082537Y0169964D01*
X0082357Y0169926D01*
X0082176Y0169892D01*
X0081994Y0169863D01*
X0081812Y0169838D01*
X0081629Y0169818D01*
X0081446Y0169802D01*
X0081262Y0169791D01*
X0081078Y0169784D01*
X0080894Y0169782D01*
X0080710Y0169784D01*
X0080526Y0169791D01*
X0080342Y0169802D01*
X0080159Y0169818D01*
X0079976Y0169838D01*
X0079794Y0169863D01*
X0079612Y0169892D01*
X0079431Y0169926D01*
X0079251Y0169964D01*
X0079072Y0170007D01*
X0078894Y0170054D01*
X0078717Y0170105D01*
X0078541Y0170161D01*
X0078367Y0170220D01*
X0078195Y0170285D01*
X0078024Y0170353D01*
X0077855Y0170425D01*
X0077687Y0170502D01*
X0077522Y0170583D01*
X0077359Y0170668D01*
X0077197Y0170756D01*
X0077038Y0170849D01*
X0076882Y0170946D01*
X0076727Y0171046D01*
X0076575Y0171150D01*
X0076426Y0171258D01*
X0076280Y0171369D01*
X0076136Y0171484D01*
X0075995Y0171603D01*
X0075857Y0171725D01*
X0075722Y0171850D01*
X0075591Y0171979D01*
X0075462Y0172110D01*
X0075337Y0172245D01*
X0075215Y0172383D01*
X0075096Y0172524D01*
X0074981Y0172668D01*
X0074870Y0172814D01*
X0074762Y0172963D01*
X0074658Y0173115D01*
X0074558Y0173270D01*
X0074461Y0173426D01*
X0074368Y0173585D01*
X0074280Y0173747D01*
X0074195Y0173910D01*
X0074114Y0174075D01*
X0074037Y0174243D01*
X0073965Y0174412D01*
X0073897Y0174583D01*
X0073832Y0174755D01*
X0073773Y0174929D01*
X0073717Y0175105D01*
X0073666Y0175282D01*
X0073619Y0175460D01*
X0073576Y0175639D01*
X0073538Y0175819D01*
X0073504Y0176000D01*
X0073475Y0176182D01*
X0073450Y0176364D01*
X0073430Y0176547D01*
X0073414Y0176730D01*
X0073403Y0176914D01*
X0073396Y0177098D01*
X0073394Y0177282D01*
X0062894Y0177282D02*
X0062899Y0177724D01*
X0062916Y0178165D01*
X0062943Y0178606D01*
X0062981Y0179046D01*
X0063029Y0179485D01*
X0063089Y0179923D01*
X0063159Y0180359D01*
X0063240Y0180794D01*
X0063331Y0181226D01*
X0063433Y0181656D01*
X0063546Y0182083D01*
X0063669Y0182507D01*
X0063802Y0182928D01*
X0063946Y0183346D01*
X0064100Y0183760D01*
X0064264Y0184170D01*
X0064438Y0184576D01*
X0064622Y0184978D01*
X0064816Y0185375D01*
X0065019Y0185767D01*
X0065232Y0186154D01*
X0065455Y0186536D01*
X0065687Y0186912D01*
X0065928Y0187282D01*
X0066177Y0187647D01*
X0066436Y0188005D01*
X0066704Y0188356D01*
X0066980Y0188701D01*
X0067264Y0189039D01*
X0067557Y0189370D01*
X0067858Y0189694D01*
X0068166Y0190010D01*
X0068482Y0190318D01*
X0068806Y0190619D01*
X0069137Y0190912D01*
X0069475Y0191196D01*
X0069820Y0191472D01*
X0070171Y0191740D01*
X0070529Y0191999D01*
X0070894Y0192248D01*
X0071264Y0192489D01*
X0071640Y0192721D01*
X0072022Y0192944D01*
X0072409Y0193157D01*
X0072801Y0193360D01*
X0073198Y0193554D01*
X0073600Y0193738D01*
X0074006Y0193912D01*
X0074416Y0194076D01*
X0074830Y0194230D01*
X0075248Y0194374D01*
X0075669Y0194507D01*
X0076093Y0194630D01*
X0076520Y0194743D01*
X0076950Y0194845D01*
X0077382Y0194936D01*
X0077817Y0195017D01*
X0078253Y0195087D01*
X0078691Y0195147D01*
X0079130Y0195195D01*
X0079570Y0195233D01*
X0080011Y0195260D01*
X0080452Y0195277D01*
X0080894Y0195282D01*
X0081336Y0195277D01*
X0081777Y0195260D01*
X0082218Y0195233D01*
X0082658Y0195195D01*
X0083097Y0195147D01*
X0083535Y0195087D01*
X0083971Y0195017D01*
X0084406Y0194936D01*
X0084838Y0194845D01*
X0085268Y0194743D01*
X0085695Y0194630D01*
X0086119Y0194507D01*
X0086540Y0194374D01*
X0086958Y0194230D01*
X0087372Y0194076D01*
X0087782Y0193912D01*
X0088188Y0193738D01*
X0088590Y0193554D01*
X0088987Y0193360D01*
X0089379Y0193157D01*
X0089766Y0192944D01*
X0090148Y0192721D01*
X0090524Y0192489D01*
X0090894Y0192248D01*
X0091259Y0191999D01*
X0091617Y0191740D01*
X0091968Y0191472D01*
X0092313Y0191196D01*
X0092651Y0190912D01*
X0092982Y0190619D01*
X0093306Y0190318D01*
X0093622Y0190010D01*
X0093930Y0189694D01*
X0094231Y0189370D01*
X0094524Y0189039D01*
X0094808Y0188701D01*
X0095084Y0188356D01*
X0095352Y0188005D01*
X0095611Y0187647D01*
X0095860Y0187282D01*
X0096101Y0186912D01*
X0096333Y0186536D01*
X0096556Y0186154D01*
X0096769Y0185767D01*
X0096972Y0185375D01*
X0097166Y0184978D01*
X0097350Y0184576D01*
X0097524Y0184170D01*
X0097688Y0183760D01*
X0097842Y0183346D01*
X0097986Y0182928D01*
X0098119Y0182507D01*
X0098242Y0182083D01*
X0098355Y0181656D01*
X0098457Y0181226D01*
X0098548Y0180794D01*
X0098629Y0180359D01*
X0098699Y0179923D01*
X0098759Y0179485D01*
X0098807Y0179046D01*
X0098845Y0178606D01*
X0098872Y0178165D01*
X0098889Y0177724D01*
X0098894Y0177282D01*
X0098889Y0176840D01*
X0098872Y0176399D01*
X0098845Y0175958D01*
X0098807Y0175518D01*
X0098759Y0175079D01*
X0098699Y0174641D01*
X0098629Y0174205D01*
X0098548Y0173770D01*
X0098457Y0173338D01*
X0098355Y0172908D01*
X0098242Y0172481D01*
X0098119Y0172057D01*
X0097986Y0171636D01*
X0097842Y0171218D01*
X0097688Y0170804D01*
X0097524Y0170394D01*
X0097350Y0169988D01*
X0097166Y0169586D01*
X0096972Y0169189D01*
X0096769Y0168797D01*
X0096556Y0168410D01*
X0096333Y0168028D01*
X0096101Y0167652D01*
X0095860Y0167282D01*
X0095611Y0166917D01*
X0095352Y0166559D01*
X0095084Y0166208D01*
X0094808Y0165863D01*
X0094524Y0165525D01*
X0094231Y0165194D01*
X0093930Y0164870D01*
X0093622Y0164554D01*
X0093306Y0164246D01*
X0092982Y0163945D01*
X0092651Y0163652D01*
X0092313Y0163368D01*
X0091968Y0163092D01*
X0091617Y0162824D01*
X0091259Y0162565D01*
X0090894Y0162316D01*
X0090524Y0162075D01*
X0090148Y0161843D01*
X0089766Y0161620D01*
X0089379Y0161407D01*
X0088987Y0161204D01*
X0088590Y0161010D01*
X0088188Y0160826D01*
X0087782Y0160652D01*
X0087372Y0160488D01*
X0086958Y0160334D01*
X0086540Y0160190D01*
X0086119Y0160057D01*
X0085695Y0159934D01*
X0085268Y0159821D01*
X0084838Y0159719D01*
X0084406Y0159628D01*
X0083971Y0159547D01*
X0083535Y0159477D01*
X0083097Y0159417D01*
X0082658Y0159369D01*
X0082218Y0159331D01*
X0081777Y0159304D01*
X0081336Y0159287D01*
X0080894Y0159282D01*
X0080452Y0159287D01*
X0080011Y0159304D01*
X0079570Y0159331D01*
X0079130Y0159369D01*
X0078691Y0159417D01*
X0078253Y0159477D01*
X0077817Y0159547D01*
X0077382Y0159628D01*
X0076950Y0159719D01*
X0076520Y0159821D01*
X0076093Y0159934D01*
X0075669Y0160057D01*
X0075248Y0160190D01*
X0074830Y0160334D01*
X0074416Y0160488D01*
X0074006Y0160652D01*
X0073600Y0160826D01*
X0073198Y0161010D01*
X0072801Y0161204D01*
X0072409Y0161407D01*
X0072022Y0161620D01*
X0071640Y0161843D01*
X0071264Y0162075D01*
X0070894Y0162316D01*
X0070529Y0162565D01*
X0070171Y0162824D01*
X0069820Y0163092D01*
X0069475Y0163368D01*
X0069137Y0163652D01*
X0068806Y0163945D01*
X0068482Y0164246D01*
X0068166Y0164554D01*
X0067858Y0164870D01*
X0067557Y0165194D01*
X0067264Y0165525D01*
X0066980Y0165863D01*
X0066704Y0166208D01*
X0066436Y0166559D01*
X0066177Y0166917D01*
X0065928Y0167282D01*
X0065687Y0167652D01*
X0065455Y0168028D01*
X0065232Y0168410D01*
X0065019Y0168797D01*
X0064816Y0169189D01*
X0064622Y0169586D01*
X0064438Y0169988D01*
X0064264Y0170394D01*
X0064100Y0170804D01*
X0063946Y0171218D01*
X0063802Y0171636D01*
X0063669Y0172057D01*
X0063546Y0172481D01*
X0063433Y0172908D01*
X0063331Y0173338D01*
X0063240Y0173770D01*
X0063159Y0174205D01*
X0063089Y0174641D01*
X0063029Y0175079D01*
X0062981Y0175518D01*
X0062943Y0175958D01*
X0062916Y0176399D01*
X0062899Y0176840D01*
X0062894Y0177282D01*
X0072037Y0096289D02*
X0071949Y0096287D01*
X0071860Y0096281D01*
X0071772Y0096271D01*
X0071685Y0096258D01*
X0071598Y0096240D01*
X0071512Y0096219D01*
X0071427Y0096194D01*
X0071344Y0096165D01*
X0071261Y0096132D01*
X0071181Y0096096D01*
X0071102Y0096057D01*
X0071024Y0096014D01*
X0070949Y0095967D01*
X0070876Y0095917D01*
X0070805Y0095864D01*
X0070736Y0095808D01*
X0070670Y0095749D01*
X0070607Y0095687D01*
X0070547Y0095623D01*
X0070489Y0095556D01*
X0070435Y0095486D01*
X0070383Y0095414D01*
X0070335Y0095340D01*
X0070290Y0095263D01*
X0070249Y0095185D01*
X0070211Y0095105D01*
X0070177Y0095024D01*
X0070146Y0094941D01*
X0070119Y0094856D01*
X0070096Y0094771D01*
X0070077Y0094685D01*
X0070061Y0094597D01*
X0070049Y0094510D01*
X0070041Y0094422D01*
X0070037Y0094333D01*
X0070037Y0094245D01*
X0070041Y0094156D01*
X0070049Y0094068D01*
X0070061Y0093981D01*
X0070077Y0093893D01*
X0070096Y0093807D01*
X0070119Y0093722D01*
X0070146Y0093637D01*
X0070177Y0093554D01*
X0070211Y0093473D01*
X0070249Y0093393D01*
X0070290Y0093315D01*
X0070335Y0093238D01*
X0070383Y0093164D01*
X0070435Y0093092D01*
X0070489Y0093022D01*
X0070547Y0092955D01*
X0070607Y0092891D01*
X0070670Y0092829D01*
X0070736Y0092770D01*
X0070805Y0092714D01*
X0070876Y0092661D01*
X0070949Y0092611D01*
X0071024Y0092564D01*
X0071102Y0092521D01*
X0071181Y0092482D01*
X0071261Y0092446D01*
X0071344Y0092413D01*
X0071427Y0092384D01*
X0071512Y0092359D01*
X0071598Y0092338D01*
X0071685Y0092320D01*
X0071772Y0092307D01*
X0071860Y0092297D01*
X0071949Y0092291D01*
X0072037Y0092289D01*
X0072125Y0092287D01*
X0072214Y0092281D01*
X0072302Y0092271D01*
X0072389Y0092258D01*
X0072476Y0092240D01*
X0072562Y0092219D01*
X0072647Y0092194D01*
X0072730Y0092165D01*
X0072813Y0092132D01*
X0072893Y0092096D01*
X0072972Y0092057D01*
X0073050Y0092014D01*
X0073125Y0091967D01*
X0073198Y0091917D01*
X0073269Y0091864D01*
X0073338Y0091808D01*
X0073404Y0091749D01*
X0073467Y0091687D01*
X0073527Y0091623D01*
X0073585Y0091556D01*
X0073639Y0091486D01*
X0073691Y0091414D01*
X0073739Y0091340D01*
X0073784Y0091263D01*
X0073825Y0091185D01*
X0073863Y0091105D01*
X0073897Y0091024D01*
X0073928Y0090941D01*
X0073955Y0090856D01*
X0073978Y0090771D01*
X0073997Y0090685D01*
X0074013Y0090597D01*
X0074025Y0090510D01*
X0074033Y0090422D01*
X0074037Y0090333D01*
X0074037Y0090245D01*
X0074033Y0090156D01*
X0074025Y0090068D01*
X0074013Y0089981D01*
X0073997Y0089893D01*
X0073978Y0089807D01*
X0073955Y0089722D01*
X0073928Y0089637D01*
X0073897Y0089554D01*
X0073863Y0089473D01*
X0073825Y0089393D01*
X0073784Y0089315D01*
X0073739Y0089238D01*
X0073691Y0089164D01*
X0073639Y0089092D01*
X0073585Y0089022D01*
X0073527Y0088955D01*
X0073467Y0088891D01*
X0073404Y0088829D01*
X0073338Y0088770D01*
X0073269Y0088714D01*
X0073198Y0088661D01*
X0073125Y0088611D01*
X0073050Y0088564D01*
X0072972Y0088521D01*
X0072893Y0088482D01*
X0072813Y0088446D01*
X0072730Y0088413D01*
X0072647Y0088384D01*
X0072562Y0088359D01*
X0072476Y0088338D01*
X0072389Y0088320D01*
X0072302Y0088307D01*
X0072214Y0088297D01*
X0072125Y0088291D01*
X0072037Y0088289D01*
X0059537Y0084065D02*
X0055037Y0084065D01*
X0055037Y0064065D01*
X0057537Y0064065D01*
X0057537Y0062565D01*
X0053037Y0062565D01*
X0050037Y0062565D01*
X0050037Y0061565D01*
X0053037Y0061565D01*
X0059537Y0061565D01*
X0059537Y0064065D01*
X0059537Y0084065D01*
X0035037Y0084065D02*
X0030537Y0084065D01*
X0030537Y0064065D01*
X0035037Y0064065D01*
X0035037Y0084065D01*
X0057537Y0064065D02*
X0059537Y0064065D01*
X0072037Y0062289D02*
X0071949Y0062291D01*
X0071860Y0062297D01*
X0071772Y0062307D01*
X0071685Y0062320D01*
X0071598Y0062338D01*
X0071512Y0062359D01*
X0071427Y0062384D01*
X0071344Y0062413D01*
X0071261Y0062446D01*
X0071181Y0062482D01*
X0071102Y0062521D01*
X0071024Y0062564D01*
X0070949Y0062611D01*
X0070876Y0062661D01*
X0070805Y0062714D01*
X0070736Y0062770D01*
X0070670Y0062829D01*
X0070607Y0062891D01*
X0070547Y0062955D01*
X0070489Y0063022D01*
X0070435Y0063092D01*
X0070383Y0063164D01*
X0070335Y0063238D01*
X0070290Y0063315D01*
X0070249Y0063393D01*
X0070211Y0063473D01*
X0070177Y0063554D01*
X0070146Y0063637D01*
X0070119Y0063722D01*
X0070096Y0063807D01*
X0070077Y0063893D01*
X0070061Y0063981D01*
X0070049Y0064068D01*
X0070041Y0064156D01*
X0070037Y0064245D01*
X0070037Y0064333D01*
X0070041Y0064422D01*
X0070049Y0064510D01*
X0070061Y0064597D01*
X0070077Y0064685D01*
X0070096Y0064771D01*
X0070119Y0064856D01*
X0070146Y0064941D01*
X0070177Y0065024D01*
X0070211Y0065105D01*
X0070249Y0065185D01*
X0070290Y0065263D01*
X0070335Y0065340D01*
X0070383Y0065414D01*
X0070435Y0065486D01*
X0070489Y0065556D01*
X0070547Y0065623D01*
X0070607Y0065687D01*
X0070670Y0065749D01*
X0070736Y0065808D01*
X0070805Y0065864D01*
X0070876Y0065917D01*
X0070949Y0065967D01*
X0071024Y0066014D01*
X0071102Y0066057D01*
X0071181Y0066096D01*
X0071261Y0066132D01*
X0071344Y0066165D01*
X0071427Y0066194D01*
X0071512Y0066219D01*
X0071598Y0066240D01*
X0071685Y0066258D01*
X0071772Y0066271D01*
X0071860Y0066281D01*
X0071949Y0066287D01*
X0072037Y0066289D01*
X0072037Y0062289D02*
X0072125Y0062287D01*
X0072214Y0062281D01*
X0072302Y0062271D01*
X0072389Y0062258D01*
X0072476Y0062240D01*
X0072562Y0062219D01*
X0072647Y0062194D01*
X0072730Y0062165D01*
X0072813Y0062132D01*
X0072893Y0062096D01*
X0072972Y0062057D01*
X0073050Y0062014D01*
X0073125Y0061967D01*
X0073198Y0061917D01*
X0073269Y0061864D01*
X0073338Y0061808D01*
X0073404Y0061749D01*
X0073467Y0061687D01*
X0073527Y0061623D01*
X0073585Y0061556D01*
X0073639Y0061486D01*
X0073691Y0061414D01*
X0073739Y0061340D01*
X0073784Y0061263D01*
X0073825Y0061185D01*
X0073863Y0061105D01*
X0073897Y0061024D01*
X0073928Y0060941D01*
X0073955Y0060856D01*
X0073978Y0060771D01*
X0073997Y0060685D01*
X0074013Y0060597D01*
X0074025Y0060510D01*
X0074033Y0060422D01*
X0074037Y0060333D01*
X0074037Y0060245D01*
X0074033Y0060156D01*
X0074025Y0060068D01*
X0074013Y0059981D01*
X0073997Y0059893D01*
X0073978Y0059807D01*
X0073955Y0059722D01*
X0073928Y0059637D01*
X0073897Y0059554D01*
X0073863Y0059473D01*
X0073825Y0059393D01*
X0073784Y0059315D01*
X0073739Y0059238D01*
X0073691Y0059164D01*
X0073639Y0059092D01*
X0073585Y0059022D01*
X0073527Y0058955D01*
X0073467Y0058891D01*
X0073404Y0058829D01*
X0073338Y0058770D01*
X0073269Y0058714D01*
X0073198Y0058661D01*
X0073125Y0058611D01*
X0073050Y0058564D01*
X0072972Y0058521D01*
X0072893Y0058482D01*
X0072813Y0058446D01*
X0072730Y0058413D01*
X0072647Y0058384D01*
X0072562Y0058359D01*
X0072476Y0058338D01*
X0072389Y0058320D01*
X0072302Y0058307D01*
X0072214Y0058297D01*
X0072125Y0058291D01*
X0072037Y0058289D01*
X0069013Y0043770D02*
X0091060Y0043770D01*
X0072037Y0040289D02*
X0072037Y0035289D01*
X0100667Y0048140D02*
X0100679Y0049106D01*
X0100714Y0050072D01*
X0100774Y0051036D01*
X0100857Y0051999D01*
X0100963Y0052959D01*
X0101093Y0053917D01*
X0101247Y0054871D01*
X0101423Y0055821D01*
X0101624Y0056766D01*
X0101847Y0057706D01*
X0102093Y0058640D01*
X0102362Y0059569D01*
X0102654Y0060490D01*
X0102968Y0061403D01*
X0103305Y0062309D01*
X0103664Y0063206D01*
X0104045Y0064094D01*
X0104447Y0064973D01*
X0104871Y0065841D01*
X0105316Y0066699D01*
X0105782Y0067545D01*
X0106268Y0068380D01*
X0106775Y0069203D01*
X0107302Y0070013D01*
X0107849Y0070810D01*
X0108415Y0071593D01*
X0109000Y0072362D01*
X0109604Y0073116D01*
X0110226Y0073855D01*
X0110866Y0074579D01*
X0111523Y0075287D01*
X0112198Y0075979D01*
X0112890Y0076654D01*
X0113598Y0077311D01*
X0114322Y0077951D01*
X0115061Y0078573D01*
X0115815Y0079177D01*
X0116584Y0079762D01*
X0117367Y0080328D01*
X0118164Y0080875D01*
X0118974Y0081402D01*
X0119797Y0081909D01*
X0120632Y0082395D01*
X0121478Y0082861D01*
X0122336Y0083306D01*
X0123204Y0083730D01*
X0124083Y0084132D01*
X0124971Y0084513D01*
X0125868Y0084872D01*
X0126774Y0085209D01*
X0127687Y0085523D01*
X0128608Y0085815D01*
X0129537Y0086084D01*
X0130471Y0086330D01*
X0131411Y0086553D01*
X0132356Y0086754D01*
X0133306Y0086930D01*
X0134260Y0087084D01*
X0135218Y0087214D01*
X0136178Y0087320D01*
X0137141Y0087403D01*
X0138105Y0087463D01*
X0139071Y0087498D01*
X0140037Y0087510D01*
X0141003Y0087498D01*
X0141969Y0087463D01*
X0142933Y0087403D01*
X0143896Y0087320D01*
X0144856Y0087214D01*
X0145814Y0087084D01*
X0146768Y0086930D01*
X0147718Y0086754D01*
X0148663Y0086553D01*
X0149603Y0086330D01*
X0150537Y0086084D01*
X0151466Y0085815D01*
X0152387Y0085523D01*
X0153300Y0085209D01*
X0154206Y0084872D01*
X0155103Y0084513D01*
X0155991Y0084132D01*
X0156870Y0083730D01*
X0157738Y0083306D01*
X0158596Y0082861D01*
X0159442Y0082395D01*
X0160277Y0081909D01*
X0161100Y0081402D01*
X0161910Y0080875D01*
X0162707Y0080328D01*
X0163490Y0079762D01*
X0164259Y0079177D01*
X0165013Y0078573D01*
X0165752Y0077951D01*
X0166476Y0077311D01*
X0167184Y0076654D01*
X0167876Y0075979D01*
X0168551Y0075287D01*
X0169208Y0074579D01*
X0169848Y0073855D01*
X0170470Y0073116D01*
X0171074Y0072362D01*
X0171659Y0071593D01*
X0172225Y0070810D01*
X0172772Y0070013D01*
X0173299Y0069203D01*
X0173806Y0068380D01*
X0174292Y0067545D01*
X0174758Y0066699D01*
X0175203Y0065841D01*
X0175627Y0064973D01*
X0176029Y0064094D01*
X0176410Y0063206D01*
X0176769Y0062309D01*
X0177106Y0061403D01*
X0177420Y0060490D01*
X0177712Y0059569D01*
X0177981Y0058640D01*
X0178227Y0057706D01*
X0178450Y0056766D01*
X0178651Y0055821D01*
X0178827Y0054871D01*
X0178981Y0053917D01*
X0179111Y0052959D01*
X0179217Y0051999D01*
X0179300Y0051036D01*
X0179360Y0050072D01*
X0179395Y0049106D01*
X0179407Y0048140D01*
X0179395Y0047174D01*
X0179360Y0046208D01*
X0179300Y0045244D01*
X0179217Y0044281D01*
X0179111Y0043321D01*
X0178981Y0042363D01*
X0178827Y0041409D01*
X0178651Y0040459D01*
X0178450Y0039514D01*
X0178227Y0038574D01*
X0177981Y0037640D01*
X0177712Y0036711D01*
X0177420Y0035790D01*
X0177106Y0034877D01*
X0176769Y0033971D01*
X0176410Y0033074D01*
X0176029Y0032186D01*
X0175627Y0031307D01*
X0175203Y0030439D01*
X0174758Y0029581D01*
X0174292Y0028735D01*
X0173806Y0027900D01*
X0173299Y0027077D01*
X0172772Y0026267D01*
X0172225Y0025470D01*
X0171659Y0024687D01*
X0171074Y0023918D01*
X0170470Y0023164D01*
X0169848Y0022425D01*
X0169208Y0021701D01*
X0168551Y0020993D01*
X0167876Y0020301D01*
X0167184Y0019626D01*
X0166476Y0018969D01*
X0165752Y0018329D01*
X0165013Y0017707D01*
X0164259Y0017103D01*
X0163490Y0016518D01*
X0162707Y0015952D01*
X0161910Y0015405D01*
X0161100Y0014878D01*
X0160277Y0014371D01*
X0159442Y0013885D01*
X0158596Y0013419D01*
X0157738Y0012974D01*
X0156870Y0012550D01*
X0155991Y0012148D01*
X0155103Y0011767D01*
X0154206Y0011408D01*
X0153300Y0011071D01*
X0152387Y0010757D01*
X0151466Y0010465D01*
X0150537Y0010196D01*
X0149603Y0009950D01*
X0148663Y0009727D01*
X0147718Y0009526D01*
X0146768Y0009350D01*
X0145814Y0009196D01*
X0144856Y0009066D01*
X0143896Y0008960D01*
X0142933Y0008877D01*
X0141969Y0008817D01*
X0141003Y0008782D01*
X0140037Y0008770D01*
X0139071Y0008782D01*
X0138105Y0008817D01*
X0137141Y0008877D01*
X0136178Y0008960D01*
X0135218Y0009066D01*
X0134260Y0009196D01*
X0133306Y0009350D01*
X0132356Y0009526D01*
X0131411Y0009727D01*
X0130471Y0009950D01*
X0129537Y0010196D01*
X0128608Y0010465D01*
X0127687Y0010757D01*
X0126774Y0011071D01*
X0125868Y0011408D01*
X0124971Y0011767D01*
X0124083Y0012148D01*
X0123204Y0012550D01*
X0122336Y0012974D01*
X0121478Y0013419D01*
X0120632Y0013885D01*
X0119797Y0014371D01*
X0118974Y0014878D01*
X0118164Y0015405D01*
X0117367Y0015952D01*
X0116584Y0016518D01*
X0115815Y0017103D01*
X0115061Y0017707D01*
X0114322Y0018329D01*
X0113598Y0018969D01*
X0112890Y0019626D01*
X0112198Y0020301D01*
X0111523Y0020993D01*
X0110866Y0021701D01*
X0110226Y0022425D01*
X0109604Y0023164D01*
X0109000Y0023918D01*
X0108415Y0024687D01*
X0107849Y0025470D01*
X0107302Y0026267D01*
X0106775Y0027077D01*
X0106268Y0027900D01*
X0105782Y0028735D01*
X0105316Y0029581D01*
X0104871Y0030439D01*
X0104447Y0031307D01*
X0104045Y0032186D01*
X0103664Y0033074D01*
X0103305Y0033971D01*
X0102968Y0034877D01*
X0102654Y0035790D01*
X0102362Y0036711D01*
X0102093Y0037640D01*
X0101847Y0038574D01*
X0101624Y0039514D01*
X0101423Y0040459D01*
X0101247Y0041409D01*
X0101093Y0042363D01*
X0100963Y0043321D01*
X0100857Y0044281D01*
X0100774Y0045244D01*
X0100714Y0046208D01*
X0100679Y0047174D01*
X0100667Y0048140D01*
X0244930Y0057746D02*
X0246930Y0057746D01*
X0245930Y0056746D02*
X0245930Y0058746D01*
X0248930Y0057746D02*
X0252430Y0057746D01*
X0252430Y0062746D01*
X0254430Y0062746D01*
X0254430Y0052746D01*
X0252430Y0052746D01*
X0252430Y0057746D01*
X0244430Y0057746D02*
X0244433Y0058016D01*
X0244443Y0058286D01*
X0244460Y0058555D01*
X0244483Y0058824D01*
X0244513Y0059093D01*
X0244549Y0059360D01*
X0244592Y0059627D01*
X0244641Y0059892D01*
X0244697Y0060156D01*
X0244760Y0060419D01*
X0244828Y0060680D01*
X0244904Y0060939D01*
X0244985Y0061196D01*
X0245073Y0061452D01*
X0245167Y0061705D01*
X0245267Y0061956D01*
X0245374Y0062204D01*
X0245486Y0062449D01*
X0245605Y0062692D01*
X0245729Y0062931D01*
X0245859Y0063168D01*
X0245995Y0063401D01*
X0246137Y0063631D01*
X0246284Y0063857D01*
X0246437Y0064080D01*
X0246595Y0064299D01*
X0246758Y0064514D01*
X0246927Y0064724D01*
X0247101Y0064931D01*
X0247280Y0065133D01*
X0247463Y0065331D01*
X0247652Y0065524D01*
X0247845Y0065713D01*
X0248043Y0065896D01*
X0248245Y0066075D01*
X0248452Y0066249D01*
X0248662Y0066418D01*
X0248877Y0066581D01*
X0249096Y0066739D01*
X0249319Y0066892D01*
X0249545Y0067039D01*
X0249775Y0067181D01*
X0250008Y0067317D01*
X0250245Y0067447D01*
X0250484Y0067571D01*
X0250727Y0067690D01*
X0250972Y0067802D01*
X0251220Y0067909D01*
X0251471Y0068009D01*
X0251724Y0068103D01*
X0251980Y0068191D01*
X0252237Y0068272D01*
X0252496Y0068348D01*
X0252757Y0068416D01*
X0253020Y0068479D01*
X0253284Y0068535D01*
X0253549Y0068584D01*
X0253816Y0068627D01*
X0254083Y0068663D01*
X0254352Y0068693D01*
X0254621Y0068716D01*
X0254890Y0068733D01*
X0255160Y0068743D01*
X0255430Y0068746D01*
X0255700Y0068743D01*
X0255970Y0068733D01*
X0256239Y0068716D01*
X0256508Y0068693D01*
X0256777Y0068663D01*
X0257044Y0068627D01*
X0257311Y0068584D01*
X0257576Y0068535D01*
X0257840Y0068479D01*
X0258103Y0068416D01*
X0258364Y0068348D01*
X0258623Y0068272D01*
X0258880Y0068191D01*
X0259136Y0068103D01*
X0259389Y0068009D01*
X0259640Y0067909D01*
X0259888Y0067802D01*
X0260133Y0067690D01*
X0260376Y0067571D01*
X0260615Y0067447D01*
X0260852Y0067317D01*
X0261085Y0067181D01*
X0261315Y0067039D01*
X0261541Y0066892D01*
X0261764Y0066739D01*
X0261983Y0066581D01*
X0262198Y0066418D01*
X0262408Y0066249D01*
X0262615Y0066075D01*
X0262817Y0065896D01*
X0263015Y0065713D01*
X0263208Y0065524D01*
X0263397Y0065331D01*
X0263580Y0065133D01*
X0263759Y0064931D01*
X0263933Y0064724D01*
X0264102Y0064514D01*
X0264265Y0064299D01*
X0264423Y0064080D01*
X0264576Y0063857D01*
X0264723Y0063631D01*
X0264865Y0063401D01*
X0265001Y0063168D01*
X0265131Y0062931D01*
X0265255Y0062692D01*
X0265374Y0062449D01*
X0265486Y0062204D01*
X0265593Y0061956D01*
X0265693Y0061705D01*
X0265787Y0061452D01*
X0265875Y0061196D01*
X0265956Y0060939D01*
X0266032Y0060680D01*
X0266100Y0060419D01*
X0266163Y0060156D01*
X0266219Y0059892D01*
X0266268Y0059627D01*
X0266311Y0059360D01*
X0266347Y0059093D01*
X0266377Y0058824D01*
X0266400Y0058555D01*
X0266417Y0058286D01*
X0266427Y0058016D01*
X0266430Y0057746D01*
X0266427Y0057476D01*
X0266417Y0057206D01*
X0266400Y0056937D01*
X0266377Y0056668D01*
X0266347Y0056399D01*
X0266311Y0056132D01*
X0266268Y0055865D01*
X0266219Y0055600D01*
X0266163Y0055336D01*
X0266100Y0055073D01*
X0266032Y0054812D01*
X0265956Y0054553D01*
X0265875Y0054296D01*
X0265787Y0054040D01*
X0265693Y0053787D01*
X0265593Y0053536D01*
X0265486Y0053288D01*
X0265374Y0053043D01*
X0265255Y0052800D01*
X0265131Y0052561D01*
X0265001Y0052324D01*
X0264865Y0052091D01*
X0264723Y0051861D01*
X0264576Y0051635D01*
X0264423Y0051412D01*
X0264265Y0051193D01*
X0264102Y0050978D01*
X0263933Y0050768D01*
X0263759Y0050561D01*
X0263580Y0050359D01*
X0263397Y0050161D01*
X0263208Y0049968D01*
X0263015Y0049779D01*
X0262817Y0049596D01*
X0262615Y0049417D01*
X0262408Y0049243D01*
X0262198Y0049074D01*
X0261983Y0048911D01*
X0261764Y0048753D01*
X0261541Y0048600D01*
X0261315Y0048453D01*
X0261085Y0048311D01*
X0260852Y0048175D01*
X0260615Y0048045D01*
X0260376Y0047921D01*
X0260133Y0047802D01*
X0259888Y0047690D01*
X0259640Y0047583D01*
X0259389Y0047483D01*
X0259136Y0047389D01*
X0258880Y0047301D01*
X0258623Y0047220D01*
X0258364Y0047144D01*
X0258103Y0047076D01*
X0257840Y0047013D01*
X0257576Y0046957D01*
X0257311Y0046908D01*
X0257044Y0046865D01*
X0256777Y0046829D01*
X0256508Y0046799D01*
X0256239Y0046776D01*
X0255970Y0046759D01*
X0255700Y0046749D01*
X0255430Y0046746D01*
X0255160Y0046749D01*
X0254890Y0046759D01*
X0254621Y0046776D01*
X0254352Y0046799D01*
X0254083Y0046829D01*
X0253816Y0046865D01*
X0253549Y0046908D01*
X0253284Y0046957D01*
X0253020Y0047013D01*
X0252757Y0047076D01*
X0252496Y0047144D01*
X0252237Y0047220D01*
X0251980Y0047301D01*
X0251724Y0047389D01*
X0251471Y0047483D01*
X0251220Y0047583D01*
X0250972Y0047690D01*
X0250727Y0047802D01*
X0250484Y0047921D01*
X0250245Y0048045D01*
X0250008Y0048175D01*
X0249775Y0048311D01*
X0249545Y0048453D01*
X0249319Y0048600D01*
X0249096Y0048753D01*
X0248877Y0048911D01*
X0248662Y0049074D01*
X0248452Y0049243D01*
X0248245Y0049417D01*
X0248043Y0049596D01*
X0247845Y0049779D01*
X0247652Y0049968D01*
X0247463Y0050161D01*
X0247280Y0050359D01*
X0247101Y0050561D01*
X0246927Y0050768D01*
X0246758Y0050978D01*
X0246595Y0051193D01*
X0246437Y0051412D01*
X0246284Y0051635D01*
X0246137Y0051861D01*
X0245995Y0052091D01*
X0245859Y0052324D01*
X0245729Y0052561D01*
X0245605Y0052800D01*
X0245486Y0053043D01*
X0245374Y0053288D01*
X0245267Y0053536D01*
X0245167Y0053787D01*
X0245073Y0054040D01*
X0244985Y0054296D01*
X0244904Y0054553D01*
X0244828Y0054812D01*
X0244760Y0055073D01*
X0244697Y0055336D01*
X0244641Y0055600D01*
X0244592Y0055865D01*
X0244549Y0056132D01*
X0244513Y0056399D01*
X0244483Y0056668D01*
X0244460Y0056937D01*
X0244443Y0057206D01*
X0244433Y0057476D01*
X0244430Y0057746D01*
X0257930Y0057746D02*
X0261930Y0057746D01*
X0312241Y0105502D02*
X0312253Y0106468D01*
X0312288Y0107434D01*
X0312348Y0108398D01*
X0312431Y0109361D01*
X0312537Y0110321D01*
X0312667Y0111279D01*
X0312821Y0112233D01*
X0312997Y0113183D01*
X0313198Y0114128D01*
X0313421Y0115068D01*
X0313667Y0116002D01*
X0313936Y0116931D01*
X0314228Y0117852D01*
X0314542Y0118765D01*
X0314879Y0119671D01*
X0315238Y0120568D01*
X0315619Y0121456D01*
X0316021Y0122335D01*
X0316445Y0123203D01*
X0316890Y0124061D01*
X0317356Y0124907D01*
X0317842Y0125742D01*
X0318349Y0126565D01*
X0318876Y0127375D01*
X0319423Y0128172D01*
X0319989Y0128955D01*
X0320574Y0129724D01*
X0321178Y0130478D01*
X0321800Y0131217D01*
X0322440Y0131941D01*
X0323097Y0132649D01*
X0323772Y0133341D01*
X0324464Y0134016D01*
X0325172Y0134673D01*
X0325896Y0135313D01*
X0326635Y0135935D01*
X0327389Y0136539D01*
X0328158Y0137124D01*
X0328941Y0137690D01*
X0329738Y0138237D01*
X0330548Y0138764D01*
X0331371Y0139271D01*
X0332206Y0139757D01*
X0333052Y0140223D01*
X0333910Y0140668D01*
X0334778Y0141092D01*
X0335657Y0141494D01*
X0336545Y0141875D01*
X0337442Y0142234D01*
X0338348Y0142571D01*
X0339261Y0142885D01*
X0340182Y0143177D01*
X0341111Y0143446D01*
X0342045Y0143692D01*
X0342985Y0143915D01*
X0343930Y0144116D01*
X0344880Y0144292D01*
X0345834Y0144446D01*
X0346792Y0144576D01*
X0347752Y0144682D01*
X0348715Y0144765D01*
X0349679Y0144825D01*
X0350645Y0144860D01*
X0351611Y0144872D01*
X0352577Y0144860D01*
X0353543Y0144825D01*
X0354507Y0144765D01*
X0355470Y0144682D01*
X0356430Y0144576D01*
X0357388Y0144446D01*
X0358342Y0144292D01*
X0359292Y0144116D01*
X0360237Y0143915D01*
X0361177Y0143692D01*
X0362111Y0143446D01*
X0363040Y0143177D01*
X0363961Y0142885D01*
X0364874Y0142571D01*
X0365780Y0142234D01*
X0366677Y0141875D01*
X0367565Y0141494D01*
X0368444Y0141092D01*
X0369312Y0140668D01*
X0370170Y0140223D01*
X0371016Y0139757D01*
X0371851Y0139271D01*
X0372674Y0138764D01*
X0373484Y0138237D01*
X0374281Y0137690D01*
X0375064Y0137124D01*
X0375833Y0136539D01*
X0376587Y0135935D01*
X0377326Y0135313D01*
X0378050Y0134673D01*
X0378758Y0134016D01*
X0379450Y0133341D01*
X0380125Y0132649D01*
X0380782Y0131941D01*
X0381422Y0131217D01*
X0382044Y0130478D01*
X0382648Y0129724D01*
X0383233Y0128955D01*
X0383799Y0128172D01*
X0384346Y0127375D01*
X0384873Y0126565D01*
X0385380Y0125742D01*
X0385866Y0124907D01*
X0386332Y0124061D01*
X0386777Y0123203D01*
X0387201Y0122335D01*
X0387603Y0121456D01*
X0387984Y0120568D01*
X0388343Y0119671D01*
X0388680Y0118765D01*
X0388994Y0117852D01*
X0389286Y0116931D01*
X0389555Y0116002D01*
X0389801Y0115068D01*
X0390024Y0114128D01*
X0390225Y0113183D01*
X0390401Y0112233D01*
X0390555Y0111279D01*
X0390685Y0110321D01*
X0390791Y0109361D01*
X0390874Y0108398D01*
X0390934Y0107434D01*
X0390969Y0106468D01*
X0390981Y0105502D01*
X0390969Y0104536D01*
X0390934Y0103570D01*
X0390874Y0102606D01*
X0390791Y0101643D01*
X0390685Y0100683D01*
X0390555Y0099725D01*
X0390401Y0098771D01*
X0390225Y0097821D01*
X0390024Y0096876D01*
X0389801Y0095936D01*
X0389555Y0095002D01*
X0389286Y0094073D01*
X0388994Y0093152D01*
X0388680Y0092239D01*
X0388343Y0091333D01*
X0387984Y0090436D01*
X0387603Y0089548D01*
X0387201Y0088669D01*
X0386777Y0087801D01*
X0386332Y0086943D01*
X0385866Y0086097D01*
X0385380Y0085262D01*
X0384873Y0084439D01*
X0384346Y0083629D01*
X0383799Y0082832D01*
X0383233Y0082049D01*
X0382648Y0081280D01*
X0382044Y0080526D01*
X0381422Y0079787D01*
X0380782Y0079063D01*
X0380125Y0078355D01*
X0379450Y0077663D01*
X0378758Y0076988D01*
X0378050Y0076331D01*
X0377326Y0075691D01*
X0376587Y0075069D01*
X0375833Y0074465D01*
X0375064Y0073880D01*
X0374281Y0073314D01*
X0373484Y0072767D01*
X0372674Y0072240D01*
X0371851Y0071733D01*
X0371016Y0071247D01*
X0370170Y0070781D01*
X0369312Y0070336D01*
X0368444Y0069912D01*
X0367565Y0069510D01*
X0366677Y0069129D01*
X0365780Y0068770D01*
X0364874Y0068433D01*
X0363961Y0068119D01*
X0363040Y0067827D01*
X0362111Y0067558D01*
X0361177Y0067312D01*
X0360237Y0067089D01*
X0359292Y0066888D01*
X0358342Y0066712D01*
X0357388Y0066558D01*
X0356430Y0066428D01*
X0355470Y0066322D01*
X0354507Y0066239D01*
X0353543Y0066179D01*
X0352577Y0066144D01*
X0351611Y0066132D01*
X0350645Y0066144D01*
X0349679Y0066179D01*
X0348715Y0066239D01*
X0347752Y0066322D01*
X0346792Y0066428D01*
X0345834Y0066558D01*
X0344880Y0066712D01*
X0343930Y0066888D01*
X0342985Y0067089D01*
X0342045Y0067312D01*
X0341111Y0067558D01*
X0340182Y0067827D01*
X0339261Y0068119D01*
X0338348Y0068433D01*
X0337442Y0068770D01*
X0336545Y0069129D01*
X0335657Y0069510D01*
X0334778Y0069912D01*
X0333910Y0070336D01*
X0333052Y0070781D01*
X0332206Y0071247D01*
X0331371Y0071733D01*
X0330548Y0072240D01*
X0329738Y0072767D01*
X0328941Y0073314D01*
X0328158Y0073880D01*
X0327389Y0074465D01*
X0326635Y0075069D01*
X0325896Y0075691D01*
X0325172Y0076331D01*
X0324464Y0076988D01*
X0323772Y0077663D01*
X0323097Y0078355D01*
X0322440Y0079063D01*
X0321800Y0079787D01*
X0321178Y0080526D01*
X0320574Y0081280D01*
X0319989Y0082049D01*
X0319423Y0082832D01*
X0318876Y0083629D01*
X0318349Y0084439D01*
X0317842Y0085262D01*
X0317356Y0086097D01*
X0316890Y0086943D01*
X0316445Y0087801D01*
X0316021Y0088669D01*
X0315619Y0089548D01*
X0315238Y0090436D01*
X0314879Y0091333D01*
X0314542Y0092239D01*
X0314228Y0093152D01*
X0313936Y0094073D01*
X0313667Y0095002D01*
X0313421Y0095936D01*
X0313198Y0096876D01*
X0312997Y0097821D01*
X0312821Y0098771D01*
X0312667Y0099725D01*
X0312537Y0100683D01*
X0312431Y0101643D01*
X0312348Y0102606D01*
X0312288Y0103570D01*
X0312253Y0104536D01*
X0312241Y0105502D01*
D13*
X0056537Y0086565D02*
X0056537Y0126565D01*
X0045037Y0127065D02*
X0045037Y0086065D01*
X0033537Y0086565D02*
X0033537Y0126565D01*
D14*
X0045037Y0147315D03*
X0045037Y0065815D03*
D15*
X0052787Y0066815D03*
X0037287Y0066815D03*
X0037287Y0146315D03*
X0052787Y0146315D03*
D16*
X0055287Y0127815D03*
X0034787Y0127815D03*
X0034787Y0085315D03*
X0055287Y0085315D03*
D17*
X0045037Y0085315D03*
X0045037Y0127815D03*
D18*
X0054537Y0106565D03*
X0035537Y0106565D03*
D19*
X0037287Y0136815D03*
X0052787Y0136815D03*
X0052787Y0076315D03*
X0037287Y0076315D03*
D20*
X0036037Y0074565D03*
X0054037Y0074565D03*
X0054037Y0138565D03*
X0036037Y0138565D03*
D21*
X0205037Y0131329D02*
X0205037Y0127829D01*
X0230037Y0127829D02*
X0230037Y0131329D01*
X0255037Y0131053D02*
X0255037Y0127053D01*
X0274328Y0125715D02*
X0274328Y0129715D01*
X0255037Y0095053D02*
X0255037Y0091053D01*
X0274328Y0089715D02*
X0274328Y0093715D01*
X0230037Y0084829D02*
X0230037Y0081329D01*
X0205037Y0081329D02*
X0205037Y0084829D01*
D22*
X0205037Y0085779D03*
X0230037Y0085779D03*
X0230037Y0126879D03*
X0205037Y0126879D03*
D23*
X0102108Y0156069D02*
X0098926Y0159251D01*
X0084430Y0173746D02*
X0080894Y0177282D01*
D24*
G36*
X0097582Y0158332D02*
X0083299Y0172615D01*
X0085562Y0174878D01*
X0099845Y0160595D01*
X0097582Y0158332D01*
G37*
D25*
X0005037Y0204990D02*
X0005037Y0008140D01*
X0398737Y0008140D01*
X0398737Y0204990D01*
X0005037Y0204990D01*
D26*
X0382537Y0158140D02*
X0387537Y0158140D01*
X0390037Y0155640D01*
X0390037Y0150640D01*
X0387537Y0148140D01*
X0382537Y0148140D01*
X0382537Y0063140D02*
X0387537Y0063140D01*
X0390037Y0060640D01*
X0390037Y0055640D01*
X0387537Y0053140D01*
X0382537Y0053140D01*
D27*
X0385037Y0058140D03*
X0385037Y0153140D03*
D28*
X0274328Y0115215D03*
X0255037Y0116553D03*
D29*
X0255037Y0122803D03*
X0274328Y0121465D03*
X0255037Y0099303D03*
X0274328Y0097965D03*
D30*
X0341611Y0107202D02*
X0341611Y0111702D01*
X0351611Y0111702D01*
X0361611Y0111702D01*
X0361611Y0107202D01*
X0341611Y0107202D01*
X0351611Y0103002D02*
X0351611Y0095502D01*
X0351611Y0111702D02*
X0351611Y0115502D01*
X0356611Y0116502D02*
X0361611Y0116502D01*
X0359111Y0114002D02*
X0359111Y0119002D01*
X0153537Y0120640D02*
X0148537Y0120640D01*
X0146237Y0118140D02*
X0141737Y0118140D01*
X0141737Y0138140D01*
X0146237Y0138140D01*
X0146237Y0128140D01*
X0146237Y0118140D01*
X0151037Y0118140D02*
X0151037Y0123140D01*
X0150037Y0128140D02*
X0146237Y0128140D01*
X0137537Y0128140D02*
X0130037Y0128140D01*
X0141737Y0058140D02*
X0146237Y0058140D01*
X0146237Y0048140D01*
X0146237Y0038140D01*
X0141737Y0038140D01*
X0141737Y0058140D01*
X0137537Y0048140D02*
X0130037Y0048140D01*
X0146237Y0048140D02*
X0150037Y0048140D01*
X0151037Y0043140D02*
X0151037Y0038140D01*
X0148537Y0040640D02*
X0153537Y0040640D01*
D31*
X0136237Y0048140D03*
X0136237Y0128140D03*
D32*
X0351611Y0101702D03*
D33*
X0201797Y0164800D03*
D34*
X0202747Y0176900D03*
X0237247Y0176900D03*
D35*
X0229997Y0177900D03*
X0219997Y0177900D03*
X0209997Y0177900D03*
D36*
X0214997Y0176900D03*
X0224997Y0176900D03*
D37*
X0219997Y0175400D03*
X0209997Y0175400D03*
X0229997Y0175400D03*
D38*
X0257430Y0057746D03*
M02*
