G75*
%MOIN*%
%OFA0B0*%
%FSLAX25Y25*%
%IPPOS*%
%LPD*%
%AMOC8*
5,1,8,0,0,1.08239X$1,22.5*
%
%ADD10C,0.08610*%
%ADD11C,0.10800*%
%ADD12OC8,0.05975*%
%ADD13C,0.01296*%
%ADD14OC8,0.15824*%
%ADD15C,0.00000*%
%ADD16C,0.17398*%
%ADD17C,0.15824*%
%ADD18C,0.07048*%
%ADD19C,0.18900*%
%ADD20OC8,0.18900*%
%ADD21C,0.06480*%
%ADD22OC8,0.07000*%
%ADD23C,0.07000*%
D10*
X0076132Y0037864D02*
X0083942Y0037864D01*
X0083942Y0067392D02*
X0076132Y0067392D01*
X0076132Y0096919D02*
X0083942Y0096919D01*
X0083942Y0136289D02*
X0076132Y0136289D01*
D11*
X0050037Y0155865D02*
X0040037Y0155865D01*
X0040037Y0057265D02*
X0050037Y0057265D01*
D12*
X0205037Y0081329D03*
X0230037Y0081329D03*
X0230037Y0131329D03*
X0205037Y0131329D03*
D13*
X0102534Y0154126D02*
X0103182Y0153478D01*
X0101034Y0153478D01*
X0099517Y0154995D01*
X0099517Y0157143D01*
X0101034Y0158660D01*
X0103182Y0158660D01*
X0104699Y0157143D01*
X0104699Y0154995D01*
X0103182Y0153478D01*
X0102779Y0154450D01*
X0101437Y0154450D01*
X0100489Y0155398D01*
X0100489Y0156740D01*
X0101437Y0157688D01*
X0102779Y0157688D01*
X0103727Y0156740D01*
X0103727Y0155398D01*
X0102779Y0154450D01*
X0102376Y0155422D01*
X0101840Y0155422D01*
X0101461Y0155801D01*
X0101461Y0156337D01*
X0101840Y0156716D01*
X0102376Y0156716D01*
X0102755Y0156337D01*
X0102755Y0155801D01*
X0102376Y0155422D01*
X0081320Y0175339D02*
X0081968Y0174691D01*
X0079820Y0174691D01*
X0078303Y0176208D01*
X0078303Y0178356D01*
X0079820Y0179873D01*
X0081968Y0179873D01*
X0083485Y0178356D01*
X0083485Y0176208D01*
X0081968Y0174691D01*
X0081565Y0175663D01*
X0080223Y0175663D01*
X0079275Y0176611D01*
X0079275Y0177953D01*
X0080223Y0178901D01*
X0081565Y0178901D01*
X0082513Y0177953D01*
X0082513Y0176611D01*
X0081565Y0175663D01*
X0081162Y0176635D01*
X0080626Y0176635D01*
X0080247Y0177014D01*
X0080247Y0177550D01*
X0080626Y0177929D01*
X0081162Y0177929D01*
X0081541Y0177550D01*
X0081541Y0177014D01*
X0081162Y0176635D01*
D14*
X0141296Y0193140D03*
X0298777Y0193140D03*
D15*
X0005037Y0204990D02*
X0005037Y0008140D01*
X0398737Y0008140D01*
X0398737Y0204990D01*
X0005037Y0204990D01*
D16*
X0027674Y0192195D03*
X0027674Y0020935D03*
X0376100Y0020935D03*
X0376100Y0192195D03*
D17*
X0370013Y0153140D02*
X0385037Y0153140D01*
X0385037Y0058140D02*
X0370013Y0058140D01*
X0027471Y0062516D02*
X0016848Y0073140D01*
X0027471Y0102516D02*
X0016848Y0113140D01*
D18*
X0255037Y0131053D03*
X0274328Y0129715D03*
X0274328Y0089715D03*
X0255037Y0091053D03*
D19*
X0159722Y0128140D03*
X0159722Y0048140D03*
X0351611Y0125187D03*
D20*
X0351611Y0085817D03*
X0120351Y0048140D03*
X0120351Y0128140D03*
D21*
X0209997Y0166560D02*
X0209997Y0172240D01*
X0219997Y0172240D02*
X0219997Y0166560D01*
X0229997Y0166560D02*
X0229997Y0172240D01*
D22*
X0260430Y0057746D03*
D23*
X0250430Y0057746D03*
M02*
