G75*
%MOIN*%
%OFA0B0*%
%FSLAX25Y25*%
%IPPOS*%
%LPD*%
%AMOC8*
5,1,8,0,0,1.08239X$1,22.5*
%
%ADD10C,0.07810*%
%ADD11C,0.10000*%
%ADD12OC8,0.05175*%
%ADD13C,0.01136*%
%ADD14OC8,0.15024*%
%ADD15C,0.00000*%
%ADD16C,0.16598*%
%ADD17C,0.15024*%
%ADD18C,0.06248*%
%ADD19C,0.18100*%
%ADD20OC8,0.18100*%
%ADD21C,0.05680*%
%ADD22OC8,0.06200*%
%ADD23C,0.06200*%
%ADD24C,0.15000*%
%ADD25C,0.05000*%
%ADD26C,0.06600*%
%ADD27C,0.04000*%
D10*
X0076132Y0037864D02*
X0083942Y0037864D01*
X0083942Y0067392D02*
X0076132Y0067392D01*
X0076132Y0096919D02*
X0083942Y0096919D01*
X0083942Y0136289D02*
X0076132Y0136289D01*
D11*
X0045037Y0131919D02*
X0080037Y0096919D01*
X0059367Y0083730D02*
X0075706Y0067392D01*
X0080037Y0067392D01*
X0050037Y0057265D02*
X0040037Y0057265D01*
X0045037Y0057265D02*
X0032722Y0057265D01*
X0016848Y0073140D01*
X0046257Y0083730D02*
X0059367Y0083730D01*
X0046257Y0083730D02*
X0016848Y0113140D01*
X0045037Y0131919D02*
X0045037Y0155865D01*
X0050037Y0155865D02*
X0040037Y0155865D01*
D12*
X0205037Y0131329D03*
X0230037Y0131329D03*
X0230037Y0081329D03*
X0205037Y0081329D03*
D13*
X0102481Y0154366D02*
X0103049Y0153798D01*
X0101167Y0153798D01*
X0099837Y0155128D01*
X0099837Y0157010D01*
X0101167Y0158340D01*
X0103049Y0158340D01*
X0104379Y0157010D01*
X0104379Y0155128D01*
X0103049Y0153798D01*
X0102696Y0154650D01*
X0101520Y0154650D01*
X0100689Y0155481D01*
X0100689Y0156657D01*
X0101520Y0157488D01*
X0102696Y0157488D01*
X0103527Y0156657D01*
X0103527Y0155481D01*
X0102696Y0154650D01*
X0102343Y0155502D01*
X0101873Y0155502D01*
X0101541Y0155834D01*
X0101541Y0156304D01*
X0101873Y0156636D01*
X0102343Y0156636D01*
X0102675Y0156304D01*
X0102675Y0155834D01*
X0102343Y0155502D01*
X0081267Y0175579D02*
X0081835Y0175011D01*
X0079953Y0175011D01*
X0078623Y0176341D01*
X0078623Y0178223D01*
X0079953Y0179553D01*
X0081835Y0179553D01*
X0083165Y0178223D01*
X0083165Y0176341D01*
X0081835Y0175011D01*
X0081482Y0175863D01*
X0080306Y0175863D01*
X0079475Y0176694D01*
X0079475Y0177870D01*
X0080306Y0178701D01*
X0081482Y0178701D01*
X0082313Y0177870D01*
X0082313Y0176694D01*
X0081482Y0175863D01*
X0081129Y0176715D01*
X0080659Y0176715D01*
X0080327Y0177047D01*
X0080327Y0177517D01*
X0080659Y0177849D01*
X0081129Y0177849D01*
X0081461Y0177517D01*
X0081461Y0177047D01*
X0081129Y0176715D01*
D14*
X0141296Y0193140D03*
X0298777Y0193140D03*
D15*
X0005037Y0204990D02*
X0005037Y0008140D01*
X0398737Y0008140D01*
X0398737Y0204990D01*
X0005037Y0204990D01*
D16*
X0027674Y0192195D03*
X0027674Y0020935D03*
X0376100Y0020935D03*
X0376100Y0192195D03*
D17*
X0370013Y0153140D02*
X0385037Y0153140D01*
X0385037Y0058140D02*
X0370013Y0058140D01*
X0027471Y0062516D02*
X0016848Y0073140D01*
X0027471Y0102516D02*
X0016848Y0113140D01*
D18*
X0255037Y0131053D03*
X0274328Y0129715D03*
X0274328Y0089715D03*
X0255037Y0091053D03*
D19*
X0159722Y0128140D03*
X0159722Y0048140D03*
X0351611Y0125187D03*
D20*
X0351611Y0085817D03*
X0120351Y0048140D03*
X0120351Y0128140D03*
D21*
X0209997Y0166560D02*
X0209997Y0172240D01*
X0219997Y0172240D02*
X0219997Y0166560D01*
X0229997Y0166560D02*
X0229997Y0172240D01*
D22*
X0260430Y0057746D03*
D23*
X0250430Y0057746D03*
D24*
X0205037Y0081329D02*
X0120351Y0081329D01*
X0120351Y0128140D01*
X0080894Y0136289D02*
X0080894Y0177282D01*
X0110579Y0177282D01*
X0159722Y0128140D01*
X0080894Y0136289D02*
X0080037Y0136289D01*
X0120351Y0081329D02*
X0120351Y0048140D01*
X0120351Y0037864D01*
X0080037Y0037864D01*
D25*
X0141966Y0038131D02*
X0145344Y0038131D01*
X0145754Y0037422D02*
X0149004Y0034172D01*
X0152984Y0031874D01*
X0157423Y0030684D01*
X0162020Y0030684D01*
X0166459Y0031874D01*
X0170439Y0034172D01*
X0173689Y0037422D01*
X0175987Y0041402D01*
X0177177Y0045842D01*
X0177177Y0050438D01*
X0175987Y0054877D01*
X0173689Y0058858D01*
X0170439Y0062108D01*
X0166459Y0064406D01*
X0162020Y0065595D01*
X0157423Y0065595D01*
X0152984Y0064406D01*
X0149004Y0062108D01*
X0145754Y0058858D01*
X0143456Y0054877D01*
X0142266Y0050438D01*
X0142266Y0045842D01*
X0143456Y0041402D01*
X0145754Y0037422D01*
X0141966Y0033132D02*
X0150804Y0033132D01*
X0141966Y0028134D02*
X0350764Y0028134D01*
X0350433Y0027261D02*
X0350433Y0027261D01*
X0349664Y0020935D01*
X0350429Y0014640D01*
X0141966Y0014640D01*
X0141966Y0123402D01*
X0143269Y0122098D01*
X0143456Y0121402D01*
X0145754Y0117422D01*
X0149004Y0114172D01*
X0152984Y0111874D01*
X0157423Y0110684D01*
X0162020Y0110684D01*
X0166459Y0111874D01*
X0170439Y0114172D01*
X0173689Y0117422D01*
X0175987Y0121402D01*
X0177177Y0125842D01*
X0177177Y0130438D01*
X0175987Y0134877D01*
X0173689Y0138858D01*
X0170439Y0142108D01*
X0166459Y0144406D01*
X0165763Y0144592D01*
X0141966Y0168389D01*
X0141966Y0177222D01*
X0147890Y0177222D01*
X0157214Y0186547D01*
X0157214Y0198490D01*
X0282859Y0198490D01*
X0282859Y0186547D01*
X0292184Y0177222D01*
X0305370Y0177222D01*
X0314694Y0186547D01*
X0314694Y0198490D01*
X0350429Y0198490D01*
X0349664Y0192195D01*
X0350433Y0185869D01*
X0352692Y0179910D01*
X0356313Y0174665D01*
X0361083Y0170439D01*
X0365136Y0168312D01*
X0363869Y0167972D01*
X0360239Y0165877D01*
X0357276Y0162913D01*
X0355180Y0159284D01*
X0354096Y0155235D01*
X0354096Y0151044D01*
X0355180Y0146996D01*
X0357276Y0143366D01*
X0360239Y0140403D01*
X0363869Y0138307D01*
X0367917Y0137222D01*
X0387132Y0137222D01*
X0391180Y0138307D01*
X0392237Y0138917D01*
X0392237Y0066482D01*
X0391419Y0067135D01*
X0390372Y0067793D01*
X0389257Y0068329D01*
X0388090Y0068738D01*
X0386884Y0069013D01*
X0385655Y0069152D01*
X0385292Y0069152D01*
X0385292Y0058396D01*
X0384781Y0058396D01*
X0384781Y0069152D01*
X0369394Y0069152D01*
X0368165Y0069013D01*
X0366960Y0068738D01*
X0365792Y0068329D01*
X0364678Y0067793D01*
X0363631Y0067135D01*
X0362664Y0066364D01*
X0361789Y0065489D01*
X0361018Y0064522D01*
X0360360Y0063475D01*
X0359823Y0062360D01*
X0359415Y0061193D01*
X0359140Y0059987D01*
X0359001Y0058758D01*
X0359001Y0058396D01*
X0384781Y0058396D01*
X0384781Y0057884D01*
X0385292Y0057884D01*
X0385292Y0047128D01*
X0385655Y0047128D01*
X0386884Y0047266D01*
X0388090Y0047542D01*
X0389257Y0047950D01*
X0390372Y0048487D01*
X0391419Y0049145D01*
X0392237Y0049798D01*
X0392237Y0041698D01*
X0391116Y0042691D01*
X0385473Y0045652D01*
X0379486Y0047128D01*
X0384781Y0047128D01*
X0384781Y0057884D01*
X0359001Y0057884D01*
X0359001Y0057521D01*
X0359140Y0056292D01*
X0359415Y0055086D01*
X0359823Y0053919D01*
X0360360Y0052805D01*
X0361018Y0051758D01*
X0361789Y0050791D01*
X0362664Y0049916D01*
X0363631Y0049145D01*
X0364678Y0048487D01*
X0365792Y0047950D01*
X0366960Y0047542D01*
X0368165Y0047266D01*
X0369394Y0047128D01*
X0372713Y0047128D01*
X0366726Y0045652D01*
X0366726Y0045652D01*
X0361083Y0042691D01*
X0361083Y0042691D01*
X0356313Y0038465D01*
X0356313Y0038465D01*
X0352692Y0033220D01*
X0350433Y0027261D01*
X0349932Y0023135D02*
X0141966Y0023135D01*
X0141966Y0018137D02*
X0350004Y0018137D01*
X0349664Y0020935D02*
X0349664Y0020935D01*
X0352659Y0033132D02*
X0168639Y0033132D01*
X0174099Y0038131D02*
X0356082Y0038131D01*
X0352692Y0033220D02*
X0352692Y0033220D01*
X0361919Y0043129D02*
X0176450Y0043129D01*
X0177177Y0048128D02*
X0244078Y0048128D01*
X0243366Y0048539D02*
X0245989Y0047025D01*
X0248915Y0046241D01*
X0251945Y0046241D01*
X0254871Y0047025D01*
X0257495Y0048539D01*
X0259637Y0050682D01*
X0259905Y0051146D01*
X0260430Y0051146D01*
X0260430Y0052055D01*
X0260430Y0052056D01*
X0260430Y0051146D01*
X0263164Y0051146D01*
X0267030Y0055012D01*
X0267030Y0057746D01*
X0261936Y0057746D01*
X0261936Y0057746D01*
X0267030Y0057746D01*
X0267030Y0060480D01*
X0263164Y0064346D01*
X0260430Y0064346D01*
X0259905Y0064346D01*
X0259637Y0064811D01*
X0257495Y0066953D01*
X0254871Y0068467D01*
X0251945Y0069252D01*
X0248915Y0069252D01*
X0245989Y0068467D01*
X0243366Y0066953D01*
X0241224Y0064811D01*
X0239709Y0062187D01*
X0238925Y0059261D01*
X0238925Y0056231D01*
X0239709Y0053305D01*
X0241224Y0050682D01*
X0243366Y0048539D01*
X0239812Y0053126D02*
X0176457Y0053126D01*
X0174113Y0058125D02*
X0238925Y0058125D01*
X0240249Y0063123D02*
X0168680Y0063123D01*
X0150763Y0063123D02*
X0141966Y0063123D01*
X0141966Y0058125D02*
X0145331Y0058125D01*
X0142986Y0053126D02*
X0141966Y0053126D01*
X0141966Y0048128D02*
X0142266Y0048128D01*
X0141966Y0043129D02*
X0142993Y0043129D01*
X0141966Y0068122D02*
X0245391Y0068122D01*
X0255470Y0068122D02*
X0365361Y0068122D01*
X0360191Y0063123D02*
X0264387Y0063123D01*
X0260430Y0063436D02*
X0260430Y0064346D01*
X0260430Y0063437D01*
X0260430Y0063436D01*
X0267030Y0058125D02*
X0384781Y0058125D01*
X0384781Y0063123D02*
X0385292Y0063123D01*
X0385292Y0068122D02*
X0384781Y0068122D01*
X0389688Y0068122D02*
X0392237Y0068122D01*
X0392237Y0073120D02*
X0237375Y0073120D01*
X0234590Y0070336D02*
X0241029Y0076775D01*
X0241029Y0085882D01*
X0234590Y0092322D01*
X0225483Y0092322D01*
X0219044Y0085882D01*
X0219044Y0076775D01*
X0225483Y0070336D01*
X0234590Y0070336D01*
X0241029Y0078119D02*
X0341561Y0078119D01*
X0339061Y0080619D02*
X0346413Y0073267D01*
X0351611Y0073267D01*
X0351611Y0085817D01*
X0351611Y0085817D01*
X0339061Y0085817D01*
X0339061Y0091015D01*
X0346413Y0098367D01*
X0351611Y0098367D01*
X0351611Y0085817D01*
X0339061Y0085817D01*
X0339061Y0080619D01*
X0339061Y0083117D02*
X0283832Y0083117D01*
X0283554Y0082635D02*
X0285072Y0085264D01*
X0285857Y0088197D01*
X0285857Y0091232D01*
X0285072Y0094165D01*
X0283554Y0096794D01*
X0281407Y0098940D01*
X0278778Y0100458D01*
X0275846Y0101244D01*
X0272810Y0101244D01*
X0269878Y0100458D01*
X0267249Y0098940D01*
X0265102Y0096794D01*
X0265069Y0096736D01*
X0264262Y0098132D01*
X0262116Y0100279D01*
X0259487Y0101797D01*
X0256554Y0102583D01*
X0253519Y0102583D01*
X0250586Y0101797D01*
X0247957Y0100279D01*
X0245811Y0098132D01*
X0244293Y0095503D01*
X0243507Y0092571D01*
X0243507Y0089535D01*
X0244293Y0086603D01*
X0245811Y0083974D01*
X0247957Y0081827D01*
X0250586Y0080309D01*
X0253519Y0079524D01*
X0256554Y0079524D01*
X0259487Y0080309D01*
X0262116Y0081827D01*
X0264262Y0083974D01*
X0264296Y0084032D01*
X0265102Y0082635D01*
X0267249Y0080489D01*
X0269878Y0078971D01*
X0272810Y0078185D01*
X0275846Y0078185D01*
X0278778Y0078971D01*
X0281407Y0080489D01*
X0283554Y0082635D01*
X0285836Y0088116D02*
X0339061Y0088116D01*
X0341160Y0093114D02*
X0285353Y0093114D01*
X0282235Y0098113D02*
X0346159Y0098113D01*
X0351611Y0098113D02*
X0351611Y0098113D01*
X0351611Y0098367D02*
X0351611Y0085817D01*
X0351611Y0085817D01*
X0351611Y0085817D01*
X0351611Y0073267D01*
X0356810Y0073267D01*
X0364161Y0080619D01*
X0364161Y0085817D01*
X0364161Y0091015D01*
X0356810Y0098367D01*
X0351611Y0098367D01*
X0357064Y0098113D02*
X0392237Y0098113D01*
X0392237Y0103111D02*
X0141966Y0103111D01*
X0141966Y0098113D02*
X0245799Y0098113D01*
X0243653Y0093114D02*
X0141966Y0093114D01*
X0141966Y0088116D02*
X0221277Y0088116D01*
X0219044Y0083117D02*
X0211124Y0083117D01*
X0211124Y0083850D02*
X0211124Y0081329D01*
X0205037Y0081329D01*
X0205037Y0081329D01*
X0205036Y0081329D01*
X0205036Y0081329D01*
X0198949Y0081329D01*
X0198949Y0083850D01*
X0202515Y0087416D01*
X0205036Y0087416D01*
X0205036Y0081329D01*
X0198949Y0081329D01*
X0198949Y0078807D01*
X0202515Y0075241D01*
X0205036Y0075241D01*
X0205036Y0081329D01*
X0205037Y0081329D02*
X0205037Y0087416D01*
X0207558Y0087416D01*
X0211124Y0083850D01*
X0211124Y0081329D02*
X0205037Y0081329D01*
X0205037Y0075241D01*
X0207558Y0075241D01*
X0211124Y0078807D01*
X0211124Y0081329D01*
X0205037Y0081329D02*
X0205036Y0081329D01*
X0205036Y0083117D02*
X0205037Y0083117D01*
X0205036Y0078119D02*
X0205037Y0078119D01*
X0210436Y0078119D02*
X0219044Y0078119D01*
X0222699Y0073120D02*
X0141966Y0073120D01*
X0141966Y0078119D02*
X0199637Y0078119D01*
X0198949Y0083117D02*
X0141966Y0083117D01*
X0141966Y0108110D02*
X0347901Y0108110D01*
X0349313Y0107731D02*
X0353909Y0107731D01*
X0358349Y0108921D01*
X0362329Y0111219D01*
X0365579Y0114469D01*
X0367877Y0118449D01*
X0369067Y0122889D01*
X0369067Y0127485D01*
X0367877Y0131925D01*
X0365579Y0135905D01*
X0362329Y0139155D01*
X0358349Y0141453D01*
X0353909Y0142643D01*
X0349313Y0142643D01*
X0344874Y0141453D01*
X0340893Y0139155D01*
X0337643Y0135905D01*
X0335345Y0131925D01*
X0334156Y0127485D01*
X0334156Y0122889D01*
X0335345Y0118449D01*
X0337643Y0114469D01*
X0340893Y0111219D01*
X0344874Y0108921D01*
X0349313Y0107731D01*
X0355322Y0108110D02*
X0392237Y0108110D01*
X0392237Y0113109D02*
X0364219Y0113109D01*
X0367680Y0118107D02*
X0392237Y0118107D01*
X0392237Y0123106D02*
X0369067Y0123106D01*
X0368901Y0128104D02*
X0392237Y0128104D01*
X0392237Y0133103D02*
X0367197Y0133103D01*
X0364638Y0138101D02*
X0363383Y0138101D01*
X0357543Y0143100D02*
X0215442Y0143100D01*
X0215442Y0148098D02*
X0354885Y0148098D01*
X0354096Y0153097D02*
X0215442Y0153097D01*
X0215657Y0156080D02*
X0218517Y0155314D01*
X0221478Y0155314D01*
X0224338Y0156080D01*
X0224997Y0156461D01*
X0225657Y0156080D01*
X0228517Y0155314D01*
X0231478Y0155314D01*
X0234338Y0156080D01*
X0236902Y0157561D01*
X0238996Y0159655D01*
X0240476Y0162219D01*
X0241243Y0165079D01*
X0241243Y0173720D01*
X0240476Y0176580D01*
X0238996Y0179145D01*
X0236902Y0181238D01*
X0234338Y0182719D01*
X0231478Y0183485D01*
X0228517Y0183485D01*
X0225657Y0182719D01*
X0224997Y0182338D01*
X0224338Y0182719D01*
X0221478Y0183485D01*
X0218517Y0183485D01*
X0215657Y0182719D01*
X0214997Y0182338D01*
X0214338Y0182719D01*
X0211478Y0183485D01*
X0208517Y0183485D01*
X0205657Y0182719D01*
X0203092Y0181238D01*
X0200998Y0179145D01*
X0199518Y0176580D01*
X0198752Y0173720D01*
X0198752Y0172037D01*
X0197288Y0170225D01*
X0196710Y0169647D01*
X0196431Y0169164D01*
X0196081Y0168730D01*
X0195749Y0167983D01*
X0195340Y0167274D01*
X0195196Y0166736D01*
X0194970Y0166226D01*
X0194843Y0165418D01*
X0194631Y0164628D01*
X0194631Y0164070D01*
X0194544Y0163519D01*
X0194631Y0162706D01*
X0194631Y0136470D01*
X0194044Y0135882D01*
X0194044Y0126775D01*
X0200483Y0120336D01*
X0209590Y0120336D01*
X0216029Y0126775D01*
X0216029Y0135882D01*
X0215442Y0136470D01*
X0215442Y0156204D01*
X0215657Y0156080D01*
X0194631Y0158095D02*
X0152260Y0158095D01*
X0147261Y0163094D02*
X0194590Y0163094D01*
X0195798Y0168092D02*
X0142263Y0168092D01*
X0141966Y0173091D02*
X0198752Y0173091D01*
X0200389Y0178089D02*
X0148756Y0178089D01*
X0153755Y0183088D02*
X0207033Y0183088D01*
X0212961Y0183088D02*
X0217033Y0183088D01*
X0222961Y0183088D02*
X0227033Y0183088D01*
X0232961Y0183088D02*
X0286318Y0183088D01*
X0291317Y0178089D02*
X0239605Y0178089D01*
X0241243Y0173091D02*
X0358090Y0173091D01*
X0356313Y0174665D02*
X0356313Y0174665D01*
X0356313Y0174665D01*
X0353949Y0178089D02*
X0306237Y0178089D01*
X0311235Y0183088D02*
X0351487Y0183088D01*
X0352692Y0179910D02*
X0352692Y0179910D01*
X0350433Y0185869D02*
X0350433Y0185869D01*
X0350163Y0188086D02*
X0314694Y0188086D01*
X0314694Y0193085D02*
X0349773Y0193085D01*
X0349664Y0192195D02*
X0349664Y0192195D01*
X0350379Y0198083D02*
X0314694Y0198083D01*
X0282859Y0198083D02*
X0157214Y0198083D01*
X0157214Y0193085D02*
X0282859Y0193085D01*
X0282859Y0188086D02*
X0157214Y0188086D01*
X0157259Y0153097D02*
X0194631Y0153097D01*
X0194631Y0148098D02*
X0162257Y0148098D01*
X0168721Y0143100D02*
X0194631Y0143100D01*
X0194631Y0138101D02*
X0174126Y0138101D01*
X0176463Y0133103D02*
X0194044Y0133103D01*
X0194044Y0128104D02*
X0177177Y0128104D01*
X0176444Y0123106D02*
X0197713Y0123106D01*
X0212360Y0123106D02*
X0222713Y0123106D01*
X0225483Y0120336D02*
X0234590Y0120336D01*
X0241029Y0126775D01*
X0241029Y0135882D01*
X0234590Y0142322D01*
X0225483Y0142322D01*
X0219044Y0135882D01*
X0219044Y0126775D01*
X0225483Y0120336D01*
X0237360Y0123106D02*
X0246679Y0123106D01*
X0245811Y0123974D02*
X0247957Y0121827D01*
X0250586Y0120309D01*
X0253519Y0119524D01*
X0256554Y0119524D01*
X0259487Y0120309D01*
X0262116Y0121827D01*
X0264262Y0123974D01*
X0264296Y0124032D01*
X0265102Y0122635D01*
X0267249Y0120489D01*
X0269878Y0118971D01*
X0272810Y0118185D01*
X0275846Y0118185D01*
X0278778Y0118971D01*
X0281407Y0120489D01*
X0283554Y0122635D01*
X0285072Y0125264D01*
X0285857Y0128197D01*
X0285857Y0131232D01*
X0285072Y0134165D01*
X0283554Y0136794D01*
X0281407Y0138940D01*
X0278778Y0140458D01*
X0275846Y0141244D01*
X0272810Y0141244D01*
X0269878Y0140458D01*
X0267249Y0138940D01*
X0265102Y0136794D01*
X0265069Y0136736D01*
X0264262Y0138132D01*
X0262116Y0140279D01*
X0259487Y0141797D01*
X0256554Y0142583D01*
X0253519Y0142583D01*
X0250586Y0141797D01*
X0247957Y0140279D01*
X0245811Y0138132D01*
X0244293Y0135503D01*
X0243507Y0132571D01*
X0243507Y0129535D01*
X0244293Y0126603D01*
X0245811Y0123974D01*
X0243890Y0128104D02*
X0241029Y0128104D01*
X0241029Y0133103D02*
X0243649Y0133103D01*
X0245792Y0138101D02*
X0238811Y0138101D01*
X0221263Y0138101D02*
X0215442Y0138101D01*
X0216029Y0133103D02*
X0219044Y0133103D01*
X0219044Y0128104D02*
X0216029Y0128104D01*
X0174085Y0118107D02*
X0335543Y0118107D01*
X0334156Y0123106D02*
X0283825Y0123106D01*
X0285833Y0128104D02*
X0334322Y0128104D01*
X0336025Y0133103D02*
X0285356Y0133103D01*
X0282247Y0138101D02*
X0339840Y0138101D01*
X0354862Y0158095D02*
X0237436Y0158095D01*
X0240711Y0163094D02*
X0357456Y0163094D01*
X0364316Y0168092D02*
X0241243Y0168092D01*
X0264281Y0138101D02*
X0266409Y0138101D01*
X0264830Y0123106D02*
X0263394Y0123106D01*
X0264274Y0098113D02*
X0266421Y0098113D01*
X0243887Y0088116D02*
X0238796Y0088116D01*
X0241029Y0083117D02*
X0246667Y0083117D01*
X0263406Y0083117D02*
X0264824Y0083117D01*
X0265144Y0053126D02*
X0360205Y0053126D01*
X0365423Y0048128D02*
X0256782Y0048128D01*
X0351611Y0078119D02*
X0351611Y0078119D01*
X0351611Y0083117D02*
X0351611Y0083117D01*
X0351611Y0085817D02*
X0351611Y0085817D01*
X0364161Y0085817D01*
X0351611Y0085817D01*
X0351611Y0088116D02*
X0351611Y0088116D01*
X0351611Y0093114D02*
X0351611Y0093114D01*
X0362062Y0093114D02*
X0392237Y0093114D01*
X0392237Y0088116D02*
X0364161Y0088116D01*
X0364161Y0083117D02*
X0392237Y0083117D01*
X0392237Y0078119D02*
X0361662Y0078119D01*
X0384781Y0053126D02*
X0385292Y0053126D01*
X0385292Y0048128D02*
X0384781Y0048128D01*
X0385473Y0045652D02*
X0385473Y0045652D01*
X0389626Y0048128D02*
X0392237Y0048128D01*
X0392237Y0043129D02*
X0390280Y0043129D01*
X0391116Y0042691D02*
X0391116Y0042691D01*
X0339004Y0113109D02*
X0168598Y0113109D01*
X0150845Y0113109D02*
X0141966Y0113109D01*
X0141966Y0118107D02*
X0145358Y0118107D01*
X0142262Y0123106D02*
X0141966Y0123106D01*
X0361083Y0170439D02*
X0361083Y0170439D01*
X0390411Y0138101D02*
X0392237Y0138101D01*
D26*
X0120351Y0137825D02*
X0120351Y0128140D01*
X0120351Y0137825D02*
X0102108Y0156069D01*
D27*
X0205037Y0163258D02*
X0205037Y0131329D01*
X0205037Y0163258D02*
X0209997Y0169400D01*
M02*
