G75*
%MOIN*%
%OFA0B0*%
%FSLAX25Y25*%
%IPPOS*%
%LPD*%
%AMOC8*
5,1,8,0,0,1.08239X$1,22.5*
%
%ADD10C,0.07810*%
%ADD11C,0.10000*%
%ADD12OC8,0.05175*%
%ADD13C,0.01136*%
%ADD14C,0.05680*%
%ADD15OC8,0.15024*%
%ADD16C,0.00000*%
%ADD17C,0.16598*%
%ADD18C,0.15024*%
%ADD19C,0.06248*%
%ADD20C,0.18100*%
%ADD21OC8,0.18100*%
%ADD22C,0.05591*%
%ADD23C,0.05600*%
%ADD24C,0.05000*%
%ADD25C,0.03962*%
%ADD26C,0.15000*%
%ADD27C,0.01000*%
%ADD28C,0.03200*%
%ADD29C,0.01600*%
D10*
X0076132Y0037864D02*
X0083942Y0037864D01*
X0083942Y0067392D02*
X0076132Y0067392D01*
X0076132Y0096919D02*
X0083942Y0096919D01*
X0083942Y0136289D02*
X0076132Y0136289D01*
X0277277Y0162995D02*
X0277277Y0170805D01*
X0320277Y0170805D02*
X0320277Y0162995D01*
D11*
X0319836Y0163140D02*
X0319836Y0147939D01*
X0319836Y0163140D02*
X0319836Y0166900D01*
X0050037Y0155865D02*
X0040037Y0155865D01*
X0040037Y0057265D02*
X0050037Y0057265D01*
D12*
X0205037Y0093140D03*
X0230037Y0093140D03*
X0277084Y0093140D03*
X0310037Y0093140D03*
X0310037Y0143140D03*
X0277084Y0143140D03*
X0230037Y0143140D03*
X0205037Y0143140D03*
D13*
X0102481Y0154366D02*
X0103049Y0153798D01*
X0101167Y0153798D01*
X0099837Y0155128D01*
X0099837Y0157010D01*
X0101167Y0158340D01*
X0103049Y0158340D01*
X0104379Y0157010D01*
X0104379Y0155128D01*
X0103049Y0153798D01*
X0102696Y0154650D01*
X0101520Y0154650D01*
X0100689Y0155481D01*
X0100689Y0156657D01*
X0101520Y0157488D01*
X0102696Y0157488D01*
X0103527Y0156657D01*
X0103527Y0155481D01*
X0102696Y0154650D01*
X0102343Y0155502D01*
X0101873Y0155502D01*
X0101541Y0155834D01*
X0101541Y0156304D01*
X0101873Y0156636D01*
X0102343Y0156636D01*
X0102675Y0156304D01*
X0102675Y0155834D01*
X0102343Y0155502D01*
X0081267Y0175579D02*
X0081835Y0175011D01*
X0079953Y0175011D01*
X0078623Y0176341D01*
X0078623Y0178223D01*
X0079953Y0179553D01*
X0081835Y0179553D01*
X0083165Y0178223D01*
X0083165Y0176341D01*
X0081835Y0175011D01*
X0081482Y0175863D01*
X0080306Y0175863D01*
X0079475Y0176694D01*
X0079475Y0177870D01*
X0080306Y0178701D01*
X0081482Y0178701D01*
X0082313Y0177870D01*
X0082313Y0176694D01*
X0081482Y0175863D01*
X0081129Y0176715D01*
X0080659Y0176715D01*
X0080327Y0177047D01*
X0080327Y0177517D01*
X0080659Y0177849D01*
X0081129Y0177849D01*
X0081461Y0177517D01*
X0081461Y0177047D01*
X0081129Y0176715D01*
D14*
X0210037Y0172240D02*
X0210037Y0166560D01*
X0220037Y0166560D02*
X0220037Y0172240D01*
X0230037Y0172240D02*
X0230037Y0166560D01*
D15*
X0298777Y0193140D03*
X0141296Y0193140D03*
D16*
X0005037Y0204990D02*
X0005037Y0008140D01*
X0398737Y0008140D01*
X0398737Y0204990D01*
X0005037Y0204990D01*
D17*
X0027674Y0192195D03*
X0027674Y0020935D03*
X0376100Y0020935D03*
X0376100Y0192195D03*
D18*
X0370013Y0153140D02*
X0385037Y0153140D01*
X0385037Y0058140D02*
X0370013Y0058140D01*
X0027471Y0062516D02*
X0016848Y0073140D01*
X0027471Y0102516D02*
X0016848Y0113140D01*
D19*
X0255037Y0098140D03*
X0255037Y0138140D03*
D20*
X0159722Y0128140D03*
X0159722Y0048140D03*
X0235351Y0048140D03*
X0358698Y0122825D03*
D21*
X0358698Y0083455D03*
X0274722Y0048140D03*
X0120351Y0048140D03*
X0120351Y0128140D03*
D22*
X0288304Y0166604D02*
X0288304Y0172195D01*
X0298777Y0172195D02*
X0298777Y0166604D01*
X0309249Y0166604D02*
X0309249Y0172195D01*
D23*
X0309249Y0169400D02*
X0320277Y0169400D01*
X0320277Y0166900D01*
X0325037Y0162140D01*
X0325037Y0146565D01*
X0321611Y0143140D01*
X0310037Y0143140D01*
X0277277Y0143140D02*
X0277084Y0143140D01*
X0277084Y0126093D01*
X0310037Y0093140D01*
X0255037Y0098140D02*
X0235037Y0098140D01*
X0230037Y0093140D01*
X0230037Y0053455D01*
X0235351Y0048140D01*
X0230037Y0093140D02*
X0220037Y0103140D01*
X0220037Y0128140D01*
X0205037Y0143140D01*
X0205037Y0164400D01*
X0210037Y0169400D01*
X0220037Y0169400D02*
X0220037Y0153140D01*
X0230037Y0143140D01*
X0277084Y0143140D02*
X0277237Y0143293D01*
X0277277Y0143140D02*
X0277277Y0166900D01*
X0277237Y0166900D01*
X0274737Y0169400D01*
X0230037Y0169400D01*
X0220037Y0169400D02*
X0220037Y0188140D01*
X0277277Y0169400D02*
X0277277Y0166900D01*
X0277277Y0169400D02*
X0288304Y0169400D01*
X0120037Y0138219D02*
X0120037Y0128533D01*
X0120037Y0138140D02*
X0102108Y0156069D01*
D24*
X0175037Y0158095D02*
X0189894Y0158095D01*
X0189894Y0163094D02*
X0175037Y0163094D01*
X0175037Y0168092D02*
X0190349Y0168092D01*
X0189894Y0166393D02*
X0189894Y0141146D01*
X0190107Y0140353D01*
X0190107Y0136956D01*
X0192509Y0134553D01*
X0192919Y0133842D01*
X0195739Y0131023D01*
X0204894Y0121868D01*
X0204894Y0118140D01*
X0175037Y0118140D01*
X0175037Y0192648D01*
X0278922Y0192648D01*
X0278922Y0187052D01*
X0275138Y0187052D01*
X0271005Y0185945D01*
X0268576Y0184542D01*
X0239093Y0184542D01*
X0235897Y0186387D01*
X0232035Y0187422D01*
X0228038Y0187422D01*
X0224176Y0186387D01*
X0220714Y0184389D01*
X0220037Y0183711D01*
X0219359Y0184389D01*
X0215897Y0186387D01*
X0212035Y0187422D01*
X0208038Y0187422D01*
X0204176Y0186387D01*
X0200714Y0184389D01*
X0197887Y0181562D01*
X0195889Y0178100D01*
X0195364Y0176142D01*
X0192919Y0173697D01*
X0190926Y0170244D01*
X0189894Y0166393D01*
X0192569Y0173091D02*
X0175037Y0173091D01*
X0175037Y0178089D02*
X0195886Y0178089D01*
X0199413Y0183088D02*
X0175037Y0183088D01*
X0175037Y0188086D02*
X0278922Y0188086D01*
X0262134Y0154257D02*
X0239093Y0154257D01*
X0235897Y0152412D01*
X0232035Y0151377D01*
X0228038Y0151377D01*
X0224176Y0152412D01*
X0220714Y0154411D01*
X0220179Y0154946D01*
X0220179Y0149412D01*
X0223949Y0145642D01*
X0223949Y0145661D01*
X0227515Y0149227D01*
X0230036Y0149227D01*
X0230036Y0143140D01*
X0230037Y0143140D01*
X0236124Y0143140D01*
X0236124Y0145661D01*
X0232558Y0149227D01*
X0230037Y0149227D01*
X0230037Y0143140D01*
X0230037Y0143140D01*
X0236124Y0143140D01*
X0236124Y0140618D01*
X0232558Y0137052D01*
X0232376Y0137052D01*
X0234147Y0133985D01*
X0235179Y0130133D01*
X0235179Y0118140D01*
X0264190Y0118140D01*
X0262973Y0120248D01*
X0261941Y0124099D01*
X0261941Y0145133D01*
X0262134Y0145853D01*
X0262134Y0154257D01*
X0262134Y0153097D02*
X0237083Y0153097D01*
X0233687Y0148098D02*
X0262134Y0148098D01*
X0261941Y0143100D02*
X0259444Y0143100D01*
X0259413Y0143131D02*
X0258725Y0143659D01*
X0257973Y0144093D01*
X0257170Y0144426D01*
X0256332Y0144650D01*
X0255471Y0144764D01*
X0255037Y0144764D01*
X0255037Y0138140D01*
X0261661Y0138140D01*
X0261661Y0138574D01*
X0261547Y0139435D01*
X0261322Y0140274D01*
X0260990Y0141076D01*
X0260556Y0141828D01*
X0260027Y0142517D01*
X0259413Y0143131D01*
X0255037Y0143100D02*
X0255036Y0143100D01*
X0255036Y0144764D02*
X0254602Y0144764D01*
X0253741Y0144650D01*
X0252903Y0144426D01*
X0252101Y0144093D01*
X0251349Y0143659D01*
X0250660Y0143131D01*
X0250046Y0142517D01*
X0249517Y0141828D01*
X0249083Y0141076D01*
X0248751Y0140274D01*
X0248526Y0139435D01*
X0248413Y0138574D01*
X0248413Y0138140D01*
X0255036Y0138140D01*
X0255036Y0138140D01*
X0255036Y0144764D01*
X0250629Y0143100D02*
X0236124Y0143100D01*
X0230036Y0148098D02*
X0230037Y0148098D01*
X0226386Y0148098D02*
X0221493Y0148098D01*
X0220179Y0153097D02*
X0222990Y0153097D01*
X0233607Y0138101D02*
X0248413Y0138101D01*
X0248413Y0138140D02*
X0248413Y0137706D01*
X0248526Y0136845D01*
X0248751Y0136006D01*
X0249083Y0135204D01*
X0249517Y0134452D01*
X0250046Y0133763D01*
X0250660Y0133149D01*
X0251349Y0132620D01*
X0252101Y0132186D01*
X0252903Y0131854D01*
X0253741Y0131629D01*
X0254602Y0131516D01*
X0255036Y0131516D01*
X0255036Y0138140D01*
X0255037Y0138140D01*
X0255037Y0138140D01*
X0261661Y0138140D01*
X0261661Y0137706D01*
X0261547Y0136845D01*
X0261322Y0136006D01*
X0260990Y0135204D01*
X0260556Y0134452D01*
X0260027Y0133763D01*
X0259413Y0133149D01*
X0258725Y0132620D01*
X0257973Y0132186D01*
X0257170Y0131854D01*
X0256332Y0131629D01*
X0255471Y0131516D01*
X0255037Y0131516D01*
X0255037Y0138140D01*
X0255036Y0138140D01*
X0248413Y0138140D01*
X0250720Y0133103D02*
X0234383Y0133103D01*
X0235179Y0128104D02*
X0261941Y0128104D01*
X0261941Y0133103D02*
X0259353Y0133103D01*
X0255037Y0133103D02*
X0255036Y0133103D01*
X0255036Y0138101D02*
X0255037Y0138101D01*
X0261661Y0138101D02*
X0261941Y0138101D01*
X0262207Y0123106D02*
X0235179Y0123106D01*
X0203656Y0123106D02*
X0175037Y0123106D01*
X0175037Y0128104D02*
X0198657Y0128104D01*
X0195739Y0131023D02*
X0195739Y0131023D01*
X0193659Y0133103D02*
X0175037Y0133103D01*
X0175037Y0138101D02*
X0190107Y0138101D01*
X0189894Y0143100D02*
X0175037Y0143100D01*
X0175037Y0148098D02*
X0189894Y0148098D01*
X0189894Y0153097D02*
X0175037Y0153097D01*
X0198949Y0093140D02*
X0198949Y0090618D01*
X0202515Y0087052D01*
X0205036Y0087052D01*
X0205036Y0093140D01*
X0205036Y0093140D01*
X0135037Y0093140D01*
X0135037Y0020482D01*
X0325037Y0020482D01*
X0325037Y0090614D01*
X0324966Y0090353D01*
X0324966Y0086956D01*
X0322564Y0084553D01*
X0322154Y0083842D01*
X0319334Y0081023D01*
X0318623Y0080612D01*
X0316221Y0078210D01*
X0312823Y0078210D01*
X0312030Y0077997D01*
X0308043Y0077997D01*
X0307250Y0078210D01*
X0303852Y0078210D01*
X0301450Y0080612D01*
X0300739Y0081023D01*
X0288622Y0093140D01*
X0277084Y0093140D01*
X0277084Y0093140D01*
X0283171Y0093140D01*
X0283171Y0090618D01*
X0279605Y0087052D01*
X0277084Y0087052D01*
X0277084Y0093140D01*
X0277084Y0093140D01*
X0277084Y0093140D01*
X0269709Y0093140D01*
X0269449Y0092170D01*
X0267413Y0088643D01*
X0264533Y0085763D01*
X0261006Y0083727D01*
X0257073Y0082673D01*
X0253000Y0082673D01*
X0251791Y0082997D01*
X0245179Y0082997D01*
X0245179Y0067168D01*
X0248487Y0065258D01*
X0252470Y0061275D01*
X0255286Y0056397D01*
X0256744Y0050956D01*
X0256744Y0045323D01*
X0255286Y0039883D01*
X0252470Y0035004D01*
X0248487Y0031021D01*
X0243609Y0028205D01*
X0238168Y0026747D01*
X0232535Y0026747D01*
X0227094Y0028205D01*
X0222216Y0031021D01*
X0218233Y0035004D01*
X0215417Y0039883D01*
X0213959Y0045323D01*
X0213959Y0050956D01*
X0214894Y0054446D01*
X0214894Y0086868D01*
X0211124Y0090638D01*
X0211124Y0090618D01*
X0207558Y0087052D01*
X0205037Y0087052D01*
X0205037Y0093140D01*
X0205036Y0093140D01*
X0198949Y0093140D01*
X0198949Y0093114D02*
X0135037Y0093114D01*
X0135037Y0088116D02*
X0201451Y0088116D01*
X0205036Y0088116D02*
X0205037Y0088116D01*
X0208622Y0088116D02*
X0213646Y0088116D01*
X0214894Y0083117D02*
X0135037Y0083117D01*
X0135037Y0078119D02*
X0214894Y0078119D01*
X0214894Y0073120D02*
X0135037Y0073120D01*
X0135037Y0068122D02*
X0151642Y0068122D01*
X0151464Y0068074D02*
X0146586Y0065258D01*
X0142603Y0061275D01*
X0139787Y0056397D01*
X0138329Y0050956D01*
X0138329Y0045323D01*
X0139787Y0039883D01*
X0142603Y0035004D01*
X0146586Y0031021D01*
X0151464Y0028205D01*
X0156905Y0026747D01*
X0162538Y0026747D01*
X0167979Y0028205D01*
X0172857Y0031021D01*
X0176840Y0035004D01*
X0179656Y0039883D01*
X0181114Y0045323D01*
X0181114Y0050956D01*
X0179656Y0056397D01*
X0176840Y0061275D01*
X0172857Y0065258D01*
X0167979Y0068074D01*
X0162538Y0069532D01*
X0156905Y0069532D01*
X0151464Y0068074D01*
X0144452Y0063123D02*
X0135037Y0063123D01*
X0135037Y0058125D02*
X0140785Y0058125D01*
X0138911Y0053126D02*
X0135037Y0053126D01*
X0135037Y0048128D02*
X0138329Y0048128D01*
X0138917Y0043129D02*
X0135037Y0043129D01*
X0135037Y0038131D02*
X0140798Y0038131D01*
X0144475Y0033132D02*
X0135037Y0033132D01*
X0135037Y0028134D02*
X0151730Y0028134D01*
X0167713Y0028134D02*
X0227360Y0028134D01*
X0220105Y0033132D02*
X0174968Y0033132D01*
X0178645Y0038131D02*
X0216428Y0038131D01*
X0214547Y0043129D02*
X0180526Y0043129D01*
X0181114Y0048128D02*
X0213959Y0048128D01*
X0214540Y0053126D02*
X0180533Y0053126D01*
X0178659Y0058125D02*
X0214894Y0058125D01*
X0214894Y0063123D02*
X0174992Y0063123D01*
X0167802Y0068122D02*
X0214894Y0068122D01*
X0245179Y0068122D02*
X0325037Y0068122D01*
X0325037Y0063123D02*
X0250621Y0063123D01*
X0254289Y0058125D02*
X0266958Y0058125D01*
X0269523Y0060690D02*
X0262172Y0053338D01*
X0262172Y0048140D01*
X0274721Y0048140D01*
X0274721Y0048140D01*
X0274721Y0060690D01*
X0269523Y0060690D01*
X0274722Y0060690D02*
X0279920Y0060690D01*
X0287272Y0053338D01*
X0287272Y0048140D01*
X0274722Y0048140D01*
X0274722Y0048140D01*
X0274721Y0048140D01*
X0262172Y0048140D01*
X0262172Y0042941D01*
X0269523Y0035590D01*
X0274721Y0035590D01*
X0274721Y0048140D01*
X0274722Y0048140D01*
X0274722Y0060690D01*
X0274721Y0058125D02*
X0274722Y0058125D01*
X0282485Y0058125D02*
X0325037Y0058125D01*
X0325037Y0053126D02*
X0287272Y0053126D01*
X0287272Y0048140D02*
X0274722Y0048140D01*
X0274722Y0035590D01*
X0279920Y0035590D01*
X0287272Y0042941D01*
X0287272Y0048140D01*
X0287272Y0048128D02*
X0325037Y0048128D01*
X0325037Y0043129D02*
X0287272Y0043129D01*
X0282461Y0038131D02*
X0325037Y0038131D01*
X0325037Y0033132D02*
X0250598Y0033132D01*
X0254275Y0038131D02*
X0266982Y0038131D01*
X0274721Y0038131D02*
X0274722Y0038131D01*
X0274721Y0043129D02*
X0274722Y0043129D01*
X0274721Y0048128D02*
X0274722Y0048128D01*
X0274721Y0053126D02*
X0274722Y0053126D01*
X0262172Y0053126D02*
X0256162Y0053126D01*
X0256744Y0048128D02*
X0262172Y0048128D01*
X0262172Y0043129D02*
X0256156Y0043129D01*
X0243343Y0028134D02*
X0325037Y0028134D01*
X0325037Y0023135D02*
X0135037Y0023135D01*
X0245179Y0073120D02*
X0325037Y0073120D01*
X0325037Y0078119D02*
X0312484Y0078119D01*
X0307589Y0078119D02*
X0245179Y0078119D01*
X0258730Y0083117D02*
X0298644Y0083117D01*
X0293646Y0088116D02*
X0280669Y0088116D01*
X0277084Y0088116D02*
X0277084Y0088116D01*
X0277084Y0087052D02*
X0277084Y0093140D01*
X0270996Y0093140D01*
X0270996Y0090618D01*
X0274562Y0087052D01*
X0277084Y0087052D01*
X0273499Y0088116D02*
X0266886Y0088116D01*
X0269702Y0093114D02*
X0270996Y0093114D01*
X0277084Y0093114D02*
X0277084Y0093114D01*
X0283171Y0093114D02*
X0288647Y0093114D01*
X0321429Y0083117D02*
X0325037Y0083117D01*
X0324966Y0088116D02*
X0325037Y0088116D01*
X0205037Y0093114D02*
X0205036Y0093114D01*
D25*
X0185037Y0088140D03*
X0185037Y0083140D03*
X0185037Y0078140D03*
X0210037Y0073140D03*
X0210037Y0068140D03*
X0210037Y0063140D03*
X0250037Y0073140D03*
X0250037Y0078140D03*
X0250037Y0083140D03*
X0320037Y0073140D03*
X0325037Y0073140D03*
X0325037Y0078140D03*
X0325037Y0068140D03*
X0320037Y0068140D03*
X0245037Y0123140D03*
X0180037Y0128140D03*
X0175037Y0128140D03*
X0175037Y0133140D03*
X0180037Y0133140D03*
X0180037Y0138140D03*
X0175037Y0138140D03*
X0175037Y0158140D03*
X0175037Y0178140D03*
X0195037Y0188140D03*
X0270037Y0188140D03*
X0135037Y0093140D03*
X0135037Y0083140D03*
X0135037Y0078140D03*
X0140037Y0078140D03*
X0135037Y0073140D03*
D26*
X0134722Y0078140D02*
X0120037Y0078140D01*
X0119722Y0078140D02*
X0119722Y0128140D01*
X0140037Y0163140D02*
X0160037Y0143140D01*
X0160037Y0133140D01*
X0180037Y0133140D01*
X0140037Y0163140D02*
X0130037Y0163140D01*
X0115037Y0178140D01*
X0080037Y0178140D01*
X0080037Y0136289D01*
X0119722Y0078140D02*
X0119722Y0048140D01*
X0120312Y0048100D02*
X0110076Y0037864D01*
X0110037Y0037825D01*
X0110037Y0037864D02*
X0079997Y0037864D01*
X0319722Y0072825D02*
X0330037Y0083140D01*
X0330037Y0083455D02*
X0358698Y0083455D01*
X0330351Y0083455D01*
X0358698Y0083455D02*
X0359722Y0083455D01*
X0385037Y0058140D01*
X0360351Y0123140D02*
X0340037Y0143455D01*
X0340037Y0143140D02*
X0325351Y0143140D01*
X0325037Y0146565D02*
X0325037Y0163140D01*
X0339722Y0143140D02*
X0358698Y0122825D01*
X0360037Y0128140D01*
X0385037Y0153140D01*
D27*
X0360133Y0123285D02*
X0336853Y0146565D01*
X0336296Y0146565D01*
X0325037Y0146565D02*
X0360133Y0123285D01*
X0360351Y0123140D01*
X0325037Y0146565D02*
X0319836Y0166900D01*
X0319836Y0163140D02*
X0320037Y0163140D01*
X0120037Y0128140D02*
X0120037Y0048140D01*
X0120351Y0048140D01*
X0084179Y0177282D02*
X0090037Y0183140D01*
X0085037Y0183140D01*
X0080037Y0178140D01*
X0080894Y0177282D02*
X0084179Y0177282D01*
D28*
X0120037Y0138140D02*
X0120037Y0128455D01*
X0120351Y0128140D01*
X0120037Y0078140D02*
X0119722Y0078140D01*
X0134722Y0078140D02*
X0135037Y0078140D01*
X0120351Y0048140D02*
X0110076Y0037864D01*
X0110037Y0037864D01*
X0340037Y0143140D02*
X0340037Y0143455D01*
D29*
X0120351Y0138219D02*
X0120351Y0128140D01*
X0120351Y0138219D02*
X0120037Y0138219D01*
M02*
