G75*
%MOIN*%
%OFA0B0*%
%FSLAX25Y25*%
%IPPOS*%
%LPD*%
%AMOC8*
5,1,8,0,0,1.08239X$1,22.5*
%
%ADD10C,0.00300*%
%ADD11C,0.00500*%
%ADD12C,0.00600*%
%ADD13C,0.00200*%
%ADD14R,0.16000X0.01500*%
%ADD15R,0.00500X0.03500*%
%ADD16R,0.04500X0.02500*%
%ADD17R,0.16000X0.02500*%
%ADD18R,0.02000X0.40000*%
%ADD19R,0.00500X0.15500*%
%ADD20R,0.02000X0.19000*%
%ADD21C,0.03000*%
%ADD22R,0.03000X0.01100*%
%ADD23C,0.03200*%
%ADD24R,0.20200X0.03200*%
%ADD25R,0.42000X0.03000*%
%ADD26R,0.07500X0.02000*%
%ADD27R,0.03000X0.02000*%
%ADD28R,0.07000X0.02000*%
%ADD29C,0.00000*%
%ADD30C,0.00800*%
%ADD31R,0.02000X0.02000*%
%ADD32R,0.10000X0.02000*%
%ADD33R,0.03000X0.07500*%
%ADD34C,0.01000*%
%ADD35R,0.05000X0.20000*%
%ADD36R,0.20000X0.05000*%
%ADD37R,0.62000X0.04500*%
%ADD38R,0.04000X0.01500*%
%ADD39R,0.10500X0.01500*%
%ADD40R,0.11000X0.01500*%
D10*
X0285187Y0013290D02*
X0287038Y0013290D01*
X0287655Y0013907D01*
X0287655Y0015141D01*
X0287038Y0015759D01*
X0285187Y0015759D01*
X0285187Y0016993D02*
X0285187Y0013290D01*
X0288870Y0013290D02*
X0290104Y0013290D01*
X0289487Y0013290D02*
X0289487Y0015759D01*
X0288870Y0015759D01*
X0289487Y0016993D02*
X0289487Y0017610D01*
X0291325Y0015759D02*
X0293177Y0015759D01*
X0293794Y0015141D01*
X0293794Y0013907D01*
X0293177Y0013290D01*
X0291325Y0013290D01*
X0291325Y0012055D02*
X0291325Y0015759D01*
X0295008Y0015141D02*
X0295008Y0013907D01*
X0295625Y0013290D01*
X0296860Y0013290D01*
X0297477Y0013907D01*
X0297477Y0015141D01*
X0296860Y0015759D01*
X0295625Y0015759D01*
X0295008Y0015141D01*
X0298691Y0013290D02*
X0299926Y0013290D01*
X0299309Y0013290D02*
X0299309Y0016993D01*
X0298691Y0016993D01*
X0301764Y0015759D02*
X0302998Y0015759D01*
X0303616Y0015141D01*
X0303616Y0013290D01*
X0301764Y0013290D01*
X0301147Y0013907D01*
X0301764Y0014524D01*
X0303616Y0014524D01*
X0304830Y0014524D02*
X0306064Y0015759D01*
X0306682Y0015759D01*
X0304830Y0015759D02*
X0304830Y0013290D01*
X0311582Y0013290D02*
X0313434Y0013290D01*
X0314051Y0013907D01*
X0314051Y0015141D01*
X0313434Y0015759D01*
X0311582Y0015759D01*
X0311582Y0012055D01*
X0315266Y0013907D02*
X0315883Y0013290D01*
X0317117Y0013290D01*
X0317734Y0013907D01*
X0317734Y0015141D01*
X0317117Y0015759D01*
X0315883Y0015759D01*
X0315266Y0015141D01*
X0315266Y0013907D01*
X0318949Y0013290D02*
X0320800Y0013290D01*
X0321417Y0013907D01*
X0320800Y0014524D01*
X0319566Y0014524D01*
X0318949Y0015141D01*
X0319566Y0015759D01*
X0321417Y0015759D01*
X0322632Y0015759D02*
X0323249Y0015759D01*
X0323249Y0013290D01*
X0322632Y0013290D02*
X0323866Y0013290D01*
X0325704Y0013907D02*
X0326322Y0013290D01*
X0325704Y0013907D02*
X0325704Y0016376D01*
X0325087Y0015759D02*
X0326322Y0015759D01*
X0327543Y0015759D02*
X0328160Y0015759D01*
X0328160Y0013290D01*
X0327543Y0013290D02*
X0328777Y0013290D01*
X0331232Y0013290D02*
X0329998Y0015759D01*
X0328160Y0016993D02*
X0328160Y0017610D01*
X0332467Y0015759D02*
X0331232Y0013290D01*
X0333681Y0013907D02*
X0333681Y0015141D01*
X0334298Y0015759D01*
X0335533Y0015759D01*
X0336150Y0015141D01*
X0336150Y0014524D01*
X0333681Y0014524D01*
X0333681Y0013907D02*
X0334298Y0013290D01*
X0335533Y0013290D01*
X0341048Y0013290D02*
X0342899Y0013290D01*
X0343516Y0013907D01*
X0342899Y0014524D01*
X0341665Y0014524D01*
X0341048Y0015141D01*
X0341665Y0015759D01*
X0343516Y0015759D01*
X0344731Y0015759D02*
X0344731Y0013907D01*
X0345348Y0013290D01*
X0347199Y0013290D01*
X0347199Y0015759D01*
X0348414Y0015759D02*
X0350265Y0015759D01*
X0350883Y0015141D01*
X0350883Y0013907D01*
X0350265Y0013290D01*
X0348414Y0013290D01*
X0348414Y0012055D02*
X0348414Y0015759D01*
X0352097Y0015759D02*
X0353949Y0015759D01*
X0354566Y0015141D01*
X0354566Y0013907D01*
X0353949Y0013290D01*
X0352097Y0013290D01*
X0352097Y0012055D02*
X0352097Y0015759D01*
X0355780Y0016993D02*
X0356397Y0016993D01*
X0356397Y0013290D01*
X0355780Y0013290D02*
X0357014Y0013290D01*
X0358236Y0013907D02*
X0358853Y0013290D01*
X0360704Y0013290D01*
X0360704Y0012673D02*
X0360087Y0012055D01*
X0359470Y0012055D01*
X0360704Y0012673D02*
X0360704Y0015759D01*
X0358236Y0015759D02*
X0358236Y0013907D01*
X0323249Y0016993D02*
X0323249Y0017610D01*
D11*
X0365287Y0039407D02*
X0366304Y0038390D01*
X0368339Y0038390D01*
X0369357Y0039407D01*
X0369357Y0041442D01*
X0367322Y0041442D01*
X0369357Y0043477D02*
X0368339Y0044495D01*
X0366304Y0044495D01*
X0365287Y0043477D01*
X0365287Y0039407D01*
X0371364Y0038390D02*
X0371364Y0044495D01*
X0375434Y0038390D01*
X0375434Y0044495D01*
X0377441Y0044495D02*
X0380494Y0044495D01*
X0381511Y0043477D01*
X0381511Y0039407D01*
X0380494Y0038390D01*
X0377441Y0038390D01*
X0377441Y0044495D01*
X0326277Y0159400D02*
X0323777Y0159400D01*
X0316777Y0159400D01*
X0302277Y0159400D01*
X0295277Y0159400D01*
X0280777Y0159400D01*
X0273777Y0159400D01*
X0271277Y0159400D01*
X0269777Y0160900D01*
X0269277Y0173400D01*
X0275027Y0166653D02*
X0277279Y0166653D01*
X0278029Y0165903D01*
X0278029Y0165152D01*
X0277279Y0164402D01*
X0275027Y0164402D01*
X0275027Y0166653D02*
X0275027Y0162150D01*
X0277279Y0162150D01*
X0278029Y0162900D01*
X0278029Y0163651D01*
X0277279Y0164402D01*
X0296527Y0165903D02*
X0296527Y0162900D01*
X0297277Y0162150D01*
X0298779Y0162150D01*
X0299529Y0162900D01*
X0299529Y0165903D02*
X0298779Y0166653D01*
X0297277Y0166653D01*
X0296527Y0165903D01*
X0318027Y0166653D02*
X0318027Y0162150D01*
X0321029Y0162150D01*
X0319528Y0164402D02*
X0318027Y0164402D01*
X0318027Y0166653D02*
X0321029Y0166653D01*
X0327777Y0160900D02*
X0328277Y0173400D01*
X0338147Y0179557D02*
X0304682Y0179557D01*
X0304682Y0193140D01*
X0292871Y0193140D01*
X0292871Y0179557D01*
X0304682Y0179557D01*
X0292871Y0179557D02*
X0225942Y0179557D01*
X0214131Y0179557D01*
X0214131Y0193140D01*
X0225942Y0193140D01*
X0225942Y0179557D01*
X0214131Y0179557D02*
X0147202Y0179557D01*
X0135037Y0179557D01*
X0135037Y0193140D01*
X0135391Y0193140D02*
X0147202Y0193140D01*
X0147202Y0179557D01*
X0135037Y0179557D02*
X0101926Y0179557D01*
X0101926Y0203179D01*
X0338147Y0203179D01*
X0338147Y0179557D01*
X0365287Y0174495D02*
X0365287Y0170425D01*
X0367322Y0168390D01*
X0369357Y0170425D01*
X0369357Y0174495D01*
X0371364Y0171442D02*
X0375434Y0171442D01*
X0373399Y0173477D02*
X0373399Y0169407D01*
X0327777Y0160900D02*
X0326277Y0159400D01*
X0239537Y0163400D02*
X0238537Y0162400D01*
X0201537Y0162400D01*
X0200537Y0163400D01*
X0200037Y0174900D01*
X0201337Y0164800D02*
X0201339Y0164863D01*
X0201345Y0164925D01*
X0201355Y0164987D01*
X0201368Y0165049D01*
X0201386Y0165109D01*
X0201407Y0165168D01*
X0201432Y0165226D01*
X0201461Y0165282D01*
X0201493Y0165336D01*
X0201528Y0165388D01*
X0201566Y0165437D01*
X0201608Y0165485D01*
X0201652Y0165529D01*
X0201700Y0165571D01*
X0201749Y0165609D01*
X0201801Y0165644D01*
X0201855Y0165676D01*
X0201911Y0165705D01*
X0201969Y0165730D01*
X0202028Y0165751D01*
X0202088Y0165769D01*
X0202150Y0165782D01*
X0202212Y0165792D01*
X0202274Y0165798D01*
X0202337Y0165800D01*
X0202400Y0165798D01*
X0202462Y0165792D01*
X0202524Y0165782D01*
X0202586Y0165769D01*
X0202646Y0165751D01*
X0202705Y0165730D01*
X0202763Y0165705D01*
X0202819Y0165676D01*
X0202873Y0165644D01*
X0202925Y0165609D01*
X0202974Y0165571D01*
X0203022Y0165529D01*
X0203066Y0165485D01*
X0203108Y0165437D01*
X0203146Y0165388D01*
X0203181Y0165336D01*
X0203213Y0165282D01*
X0203242Y0165226D01*
X0203267Y0165168D01*
X0203288Y0165109D01*
X0203306Y0165049D01*
X0203319Y0164987D01*
X0203329Y0164925D01*
X0203335Y0164863D01*
X0203337Y0164800D01*
X0203335Y0164737D01*
X0203329Y0164675D01*
X0203319Y0164613D01*
X0203306Y0164551D01*
X0203288Y0164491D01*
X0203267Y0164432D01*
X0203242Y0164374D01*
X0203213Y0164318D01*
X0203181Y0164264D01*
X0203146Y0164212D01*
X0203108Y0164163D01*
X0203066Y0164115D01*
X0203022Y0164071D01*
X0202974Y0164029D01*
X0202925Y0163991D01*
X0202873Y0163956D01*
X0202819Y0163924D01*
X0202763Y0163895D01*
X0202705Y0163870D01*
X0202646Y0163849D01*
X0202586Y0163831D01*
X0202524Y0163818D01*
X0202462Y0163808D01*
X0202400Y0163802D01*
X0202337Y0163800D01*
X0202274Y0163802D01*
X0202212Y0163808D01*
X0202150Y0163818D01*
X0202088Y0163831D01*
X0202028Y0163849D01*
X0201969Y0163870D01*
X0201911Y0163895D01*
X0201855Y0163924D01*
X0201801Y0163956D01*
X0201749Y0163991D01*
X0201700Y0164029D01*
X0201652Y0164071D01*
X0201608Y0164115D01*
X0201566Y0164163D01*
X0201528Y0164212D01*
X0201493Y0164264D01*
X0201461Y0164318D01*
X0201432Y0164374D01*
X0201407Y0164432D01*
X0201386Y0164491D01*
X0201368Y0164551D01*
X0201355Y0164613D01*
X0201345Y0164675D01*
X0201339Y0164737D01*
X0201337Y0164800D01*
X0239537Y0163400D02*
X0240037Y0174900D01*
X0094898Y0181902D02*
X0094898Y0182728D01*
X0094072Y0183554D01*
X0093246Y0183554D01*
X0092293Y0184507D02*
X0092293Y0185332D01*
X0091468Y0186158D01*
X0090642Y0186158D01*
X0089689Y0187111D02*
X0089689Y0187937D01*
X0088863Y0188762D01*
X0088038Y0188762D01*
X0087625Y0188350D01*
X0087625Y0187524D01*
X0088863Y0186285D01*
X0088038Y0185460D02*
X0089689Y0187111D01*
X0088038Y0185460D02*
X0087212Y0185460D01*
X0086386Y0186285D01*
X0086386Y0187111D01*
X0085433Y0188064D02*
X0084608Y0188064D01*
X0083782Y0188890D01*
X0083782Y0189716D01*
X0087085Y0189716D01*
X0085433Y0188064D01*
X0083782Y0189716D02*
X0085433Y0191367D01*
X0086259Y0191367D01*
X0087085Y0190541D01*
X0087085Y0189716D01*
X0088578Y0184094D02*
X0091881Y0184094D01*
X0092293Y0184507D01*
X0090229Y0182443D02*
X0088578Y0184094D01*
X0091182Y0181490D02*
X0094485Y0181490D01*
X0094898Y0181902D01*
X0092834Y0179838D02*
X0091182Y0181490D01*
X0019357Y0124495D02*
X0018339Y0123477D01*
X0016304Y0125513D01*
X0015287Y0124495D01*
X0016304Y0085513D02*
X0018339Y0083477D01*
X0019357Y0084495D01*
X0016304Y0085513D02*
X0015287Y0084495D01*
D12*
X0030537Y0084065D02*
X0035037Y0084065D01*
X0035037Y0064065D01*
X0030537Y0064065D01*
X0030537Y0084065D01*
X0055037Y0084065D02*
X0059537Y0084065D01*
X0059537Y0064065D01*
X0059537Y0061565D01*
X0053037Y0061565D01*
X0050037Y0061565D01*
X0050037Y0062565D01*
X0053037Y0062565D01*
X0057537Y0062565D01*
X0057537Y0064065D01*
X0055037Y0064065D01*
X0055037Y0084065D01*
X0072037Y0088289D02*
X0072125Y0088291D01*
X0072214Y0088297D01*
X0072302Y0088307D01*
X0072389Y0088320D01*
X0072476Y0088338D01*
X0072562Y0088359D01*
X0072647Y0088384D01*
X0072730Y0088413D01*
X0072813Y0088446D01*
X0072893Y0088482D01*
X0072972Y0088521D01*
X0073050Y0088564D01*
X0073125Y0088611D01*
X0073198Y0088661D01*
X0073269Y0088714D01*
X0073338Y0088770D01*
X0073404Y0088829D01*
X0073467Y0088891D01*
X0073527Y0088955D01*
X0073585Y0089022D01*
X0073639Y0089092D01*
X0073691Y0089164D01*
X0073739Y0089238D01*
X0073784Y0089315D01*
X0073825Y0089393D01*
X0073863Y0089473D01*
X0073897Y0089554D01*
X0073928Y0089637D01*
X0073955Y0089722D01*
X0073978Y0089807D01*
X0073997Y0089893D01*
X0074013Y0089981D01*
X0074025Y0090068D01*
X0074033Y0090156D01*
X0074037Y0090245D01*
X0074037Y0090333D01*
X0074033Y0090422D01*
X0074025Y0090510D01*
X0074013Y0090597D01*
X0073997Y0090685D01*
X0073978Y0090771D01*
X0073955Y0090856D01*
X0073928Y0090941D01*
X0073897Y0091024D01*
X0073863Y0091105D01*
X0073825Y0091185D01*
X0073784Y0091263D01*
X0073739Y0091340D01*
X0073691Y0091414D01*
X0073639Y0091486D01*
X0073585Y0091556D01*
X0073527Y0091623D01*
X0073467Y0091687D01*
X0073404Y0091749D01*
X0073338Y0091808D01*
X0073269Y0091864D01*
X0073198Y0091917D01*
X0073125Y0091967D01*
X0073050Y0092014D01*
X0072972Y0092057D01*
X0072893Y0092096D01*
X0072813Y0092132D01*
X0072730Y0092165D01*
X0072647Y0092194D01*
X0072562Y0092219D01*
X0072476Y0092240D01*
X0072389Y0092258D01*
X0072302Y0092271D01*
X0072214Y0092281D01*
X0072125Y0092287D01*
X0072037Y0092289D01*
X0071949Y0092291D01*
X0071860Y0092297D01*
X0071772Y0092307D01*
X0071685Y0092320D01*
X0071598Y0092338D01*
X0071512Y0092359D01*
X0071427Y0092384D01*
X0071344Y0092413D01*
X0071261Y0092446D01*
X0071181Y0092482D01*
X0071102Y0092521D01*
X0071024Y0092564D01*
X0070949Y0092611D01*
X0070876Y0092661D01*
X0070805Y0092714D01*
X0070736Y0092770D01*
X0070670Y0092829D01*
X0070607Y0092891D01*
X0070547Y0092955D01*
X0070489Y0093022D01*
X0070435Y0093092D01*
X0070383Y0093164D01*
X0070335Y0093238D01*
X0070290Y0093315D01*
X0070249Y0093393D01*
X0070211Y0093473D01*
X0070177Y0093554D01*
X0070146Y0093637D01*
X0070119Y0093722D01*
X0070096Y0093807D01*
X0070077Y0093893D01*
X0070061Y0093981D01*
X0070049Y0094068D01*
X0070041Y0094156D01*
X0070037Y0094245D01*
X0070037Y0094333D01*
X0070041Y0094422D01*
X0070049Y0094510D01*
X0070061Y0094597D01*
X0070077Y0094685D01*
X0070096Y0094771D01*
X0070119Y0094856D01*
X0070146Y0094941D01*
X0070177Y0095024D01*
X0070211Y0095105D01*
X0070249Y0095185D01*
X0070290Y0095263D01*
X0070335Y0095340D01*
X0070383Y0095414D01*
X0070435Y0095486D01*
X0070489Y0095556D01*
X0070547Y0095623D01*
X0070607Y0095687D01*
X0070670Y0095749D01*
X0070736Y0095808D01*
X0070805Y0095864D01*
X0070876Y0095917D01*
X0070949Y0095967D01*
X0071024Y0096014D01*
X0071102Y0096057D01*
X0071181Y0096096D01*
X0071261Y0096132D01*
X0071344Y0096165D01*
X0071427Y0096194D01*
X0071512Y0096219D01*
X0071598Y0096240D01*
X0071685Y0096258D01*
X0071772Y0096271D01*
X0071860Y0096281D01*
X0071949Y0096287D01*
X0072037Y0096289D01*
X0072037Y0127789D02*
X0072037Y0132789D01*
X0069537Y0130289D02*
X0074537Y0130289D01*
X0059537Y0129065D02*
X0055037Y0129065D01*
X0055037Y0149065D01*
X0059537Y0149065D01*
X0059537Y0129065D01*
X0035037Y0129065D02*
X0030537Y0129065D01*
X0030537Y0149065D01*
X0030537Y0151565D01*
X0037037Y0151565D01*
X0040037Y0151565D01*
X0040037Y0150565D01*
X0037037Y0150565D01*
X0032537Y0150565D01*
X0032537Y0149065D01*
X0035037Y0149065D01*
X0035037Y0129065D01*
X0032537Y0149065D02*
X0030537Y0149065D01*
X0037037Y0158065D02*
X0023537Y0158065D01*
X0023537Y0055065D01*
X0037037Y0055065D01*
X0053037Y0055065D01*
X0066537Y0055065D01*
X0066537Y0158065D01*
X0053037Y0158065D01*
X0037037Y0158065D01*
X0069013Y0150069D02*
X0069013Y0024085D01*
X0091060Y0024085D01*
X0091060Y0150069D01*
X0069013Y0150069D01*
X0073394Y0177282D02*
X0073396Y0177466D01*
X0073403Y0177650D01*
X0073414Y0177834D01*
X0073430Y0178017D01*
X0073450Y0178200D01*
X0073475Y0178382D01*
X0073504Y0178564D01*
X0073538Y0178745D01*
X0073576Y0178925D01*
X0073619Y0179104D01*
X0073666Y0179282D01*
X0073717Y0179459D01*
X0073773Y0179635D01*
X0073832Y0179809D01*
X0073897Y0179981D01*
X0073965Y0180152D01*
X0074037Y0180321D01*
X0074114Y0180489D01*
X0074195Y0180654D01*
X0074280Y0180817D01*
X0074368Y0180979D01*
X0074461Y0181138D01*
X0074558Y0181294D01*
X0074658Y0181449D01*
X0074762Y0181601D01*
X0074870Y0181750D01*
X0074981Y0181896D01*
X0075096Y0182040D01*
X0075215Y0182181D01*
X0075337Y0182319D01*
X0075462Y0182454D01*
X0075591Y0182585D01*
X0075722Y0182714D01*
X0075857Y0182839D01*
X0075995Y0182961D01*
X0076136Y0183080D01*
X0076280Y0183195D01*
X0076426Y0183306D01*
X0076575Y0183414D01*
X0076727Y0183518D01*
X0076882Y0183618D01*
X0077038Y0183715D01*
X0077197Y0183808D01*
X0077359Y0183896D01*
X0077522Y0183981D01*
X0077687Y0184062D01*
X0077855Y0184139D01*
X0078024Y0184211D01*
X0078195Y0184279D01*
X0078367Y0184344D01*
X0078541Y0184403D01*
X0078717Y0184459D01*
X0078894Y0184510D01*
X0079072Y0184557D01*
X0079251Y0184600D01*
X0079431Y0184638D01*
X0079612Y0184672D01*
X0079794Y0184701D01*
X0079976Y0184726D01*
X0080159Y0184746D01*
X0080342Y0184762D01*
X0080526Y0184773D01*
X0080710Y0184780D01*
X0080894Y0184782D01*
X0081078Y0184780D01*
X0081262Y0184773D01*
X0081446Y0184762D01*
X0081629Y0184746D01*
X0081812Y0184726D01*
X0081994Y0184701D01*
X0082176Y0184672D01*
X0082357Y0184638D01*
X0082537Y0184600D01*
X0082716Y0184557D01*
X0082894Y0184510D01*
X0083071Y0184459D01*
X0083247Y0184403D01*
X0083421Y0184344D01*
X0083593Y0184279D01*
X0083764Y0184211D01*
X0083933Y0184139D01*
X0084101Y0184062D01*
X0084266Y0183981D01*
X0084429Y0183896D01*
X0084591Y0183808D01*
X0084750Y0183715D01*
X0084906Y0183618D01*
X0085061Y0183518D01*
X0085213Y0183414D01*
X0085362Y0183306D01*
X0085508Y0183195D01*
X0085652Y0183080D01*
X0085793Y0182961D01*
X0085931Y0182839D01*
X0086066Y0182714D01*
X0086197Y0182585D01*
X0086326Y0182454D01*
X0086451Y0182319D01*
X0086573Y0182181D01*
X0086692Y0182040D01*
X0086807Y0181896D01*
X0086918Y0181750D01*
X0087026Y0181601D01*
X0087130Y0181449D01*
X0087230Y0181294D01*
X0087327Y0181138D01*
X0087420Y0180979D01*
X0087508Y0180817D01*
X0087593Y0180654D01*
X0087674Y0180489D01*
X0087751Y0180321D01*
X0087823Y0180152D01*
X0087891Y0179981D01*
X0087956Y0179809D01*
X0088015Y0179635D01*
X0088071Y0179459D01*
X0088122Y0179282D01*
X0088169Y0179104D01*
X0088212Y0178925D01*
X0088250Y0178745D01*
X0088284Y0178564D01*
X0088313Y0178382D01*
X0088338Y0178200D01*
X0088358Y0178017D01*
X0088374Y0177834D01*
X0088385Y0177650D01*
X0088392Y0177466D01*
X0088394Y0177282D01*
X0088392Y0177098D01*
X0088385Y0176914D01*
X0088374Y0176730D01*
X0088358Y0176547D01*
X0088338Y0176364D01*
X0088313Y0176182D01*
X0088284Y0176000D01*
X0088250Y0175819D01*
X0088212Y0175639D01*
X0088169Y0175460D01*
X0088122Y0175282D01*
X0088071Y0175105D01*
X0088015Y0174929D01*
X0087956Y0174755D01*
X0087891Y0174583D01*
X0087823Y0174412D01*
X0087751Y0174243D01*
X0087674Y0174075D01*
X0087593Y0173910D01*
X0087508Y0173747D01*
X0087420Y0173585D01*
X0087327Y0173426D01*
X0087230Y0173270D01*
X0087130Y0173115D01*
X0087026Y0172963D01*
X0086918Y0172814D01*
X0086807Y0172668D01*
X0086692Y0172524D01*
X0086573Y0172383D01*
X0086451Y0172245D01*
X0086326Y0172110D01*
X0086197Y0171979D01*
X0086066Y0171850D01*
X0085931Y0171725D01*
X0085793Y0171603D01*
X0085652Y0171484D01*
X0085508Y0171369D01*
X0085362Y0171258D01*
X0085213Y0171150D01*
X0085061Y0171046D01*
X0084906Y0170946D01*
X0084750Y0170849D01*
X0084591Y0170756D01*
X0084429Y0170668D01*
X0084266Y0170583D01*
X0084101Y0170502D01*
X0083933Y0170425D01*
X0083764Y0170353D01*
X0083593Y0170285D01*
X0083421Y0170220D01*
X0083247Y0170161D01*
X0083071Y0170105D01*
X0082894Y0170054D01*
X0082716Y0170007D01*
X0082537Y0169964D01*
X0082357Y0169926D01*
X0082176Y0169892D01*
X0081994Y0169863D01*
X0081812Y0169838D01*
X0081629Y0169818D01*
X0081446Y0169802D01*
X0081262Y0169791D01*
X0081078Y0169784D01*
X0080894Y0169782D01*
X0080710Y0169784D01*
X0080526Y0169791D01*
X0080342Y0169802D01*
X0080159Y0169818D01*
X0079976Y0169838D01*
X0079794Y0169863D01*
X0079612Y0169892D01*
X0079431Y0169926D01*
X0079251Y0169964D01*
X0079072Y0170007D01*
X0078894Y0170054D01*
X0078717Y0170105D01*
X0078541Y0170161D01*
X0078367Y0170220D01*
X0078195Y0170285D01*
X0078024Y0170353D01*
X0077855Y0170425D01*
X0077687Y0170502D01*
X0077522Y0170583D01*
X0077359Y0170668D01*
X0077197Y0170756D01*
X0077038Y0170849D01*
X0076882Y0170946D01*
X0076727Y0171046D01*
X0076575Y0171150D01*
X0076426Y0171258D01*
X0076280Y0171369D01*
X0076136Y0171484D01*
X0075995Y0171603D01*
X0075857Y0171725D01*
X0075722Y0171850D01*
X0075591Y0171979D01*
X0075462Y0172110D01*
X0075337Y0172245D01*
X0075215Y0172383D01*
X0075096Y0172524D01*
X0074981Y0172668D01*
X0074870Y0172814D01*
X0074762Y0172963D01*
X0074658Y0173115D01*
X0074558Y0173270D01*
X0074461Y0173426D01*
X0074368Y0173585D01*
X0074280Y0173747D01*
X0074195Y0173910D01*
X0074114Y0174075D01*
X0074037Y0174243D01*
X0073965Y0174412D01*
X0073897Y0174583D01*
X0073832Y0174755D01*
X0073773Y0174929D01*
X0073717Y0175105D01*
X0073666Y0175282D01*
X0073619Y0175460D01*
X0073576Y0175639D01*
X0073538Y0175819D01*
X0073504Y0176000D01*
X0073475Y0176182D01*
X0073450Y0176364D01*
X0073430Y0176547D01*
X0073414Y0176730D01*
X0073403Y0176914D01*
X0073396Y0177098D01*
X0073394Y0177282D01*
X0062894Y0177282D02*
X0062899Y0177724D01*
X0062916Y0178165D01*
X0062943Y0178606D01*
X0062981Y0179046D01*
X0063029Y0179485D01*
X0063089Y0179923D01*
X0063159Y0180359D01*
X0063240Y0180794D01*
X0063331Y0181226D01*
X0063433Y0181656D01*
X0063546Y0182083D01*
X0063669Y0182507D01*
X0063802Y0182928D01*
X0063946Y0183346D01*
X0064100Y0183760D01*
X0064264Y0184170D01*
X0064438Y0184576D01*
X0064622Y0184978D01*
X0064816Y0185375D01*
X0065019Y0185767D01*
X0065232Y0186154D01*
X0065455Y0186536D01*
X0065687Y0186912D01*
X0065928Y0187282D01*
X0066177Y0187647D01*
X0066436Y0188005D01*
X0066704Y0188356D01*
X0066980Y0188701D01*
X0067264Y0189039D01*
X0067557Y0189370D01*
X0067858Y0189694D01*
X0068166Y0190010D01*
X0068482Y0190318D01*
X0068806Y0190619D01*
X0069137Y0190912D01*
X0069475Y0191196D01*
X0069820Y0191472D01*
X0070171Y0191740D01*
X0070529Y0191999D01*
X0070894Y0192248D01*
X0071264Y0192489D01*
X0071640Y0192721D01*
X0072022Y0192944D01*
X0072409Y0193157D01*
X0072801Y0193360D01*
X0073198Y0193554D01*
X0073600Y0193738D01*
X0074006Y0193912D01*
X0074416Y0194076D01*
X0074830Y0194230D01*
X0075248Y0194374D01*
X0075669Y0194507D01*
X0076093Y0194630D01*
X0076520Y0194743D01*
X0076950Y0194845D01*
X0077382Y0194936D01*
X0077817Y0195017D01*
X0078253Y0195087D01*
X0078691Y0195147D01*
X0079130Y0195195D01*
X0079570Y0195233D01*
X0080011Y0195260D01*
X0080452Y0195277D01*
X0080894Y0195282D01*
X0081336Y0195277D01*
X0081777Y0195260D01*
X0082218Y0195233D01*
X0082658Y0195195D01*
X0083097Y0195147D01*
X0083535Y0195087D01*
X0083971Y0195017D01*
X0084406Y0194936D01*
X0084838Y0194845D01*
X0085268Y0194743D01*
X0085695Y0194630D01*
X0086119Y0194507D01*
X0086540Y0194374D01*
X0086958Y0194230D01*
X0087372Y0194076D01*
X0087782Y0193912D01*
X0088188Y0193738D01*
X0088590Y0193554D01*
X0088987Y0193360D01*
X0089379Y0193157D01*
X0089766Y0192944D01*
X0090148Y0192721D01*
X0090524Y0192489D01*
X0090894Y0192248D01*
X0091259Y0191999D01*
X0091617Y0191740D01*
X0091968Y0191472D01*
X0092313Y0191196D01*
X0092651Y0190912D01*
X0092982Y0190619D01*
X0093306Y0190318D01*
X0093622Y0190010D01*
X0093930Y0189694D01*
X0094231Y0189370D01*
X0094524Y0189039D01*
X0094808Y0188701D01*
X0095084Y0188356D01*
X0095352Y0188005D01*
X0095611Y0187647D01*
X0095860Y0187282D01*
X0096101Y0186912D01*
X0096333Y0186536D01*
X0096556Y0186154D01*
X0096769Y0185767D01*
X0096972Y0185375D01*
X0097166Y0184978D01*
X0097350Y0184576D01*
X0097524Y0184170D01*
X0097688Y0183760D01*
X0097842Y0183346D01*
X0097986Y0182928D01*
X0098119Y0182507D01*
X0098242Y0182083D01*
X0098355Y0181656D01*
X0098457Y0181226D01*
X0098548Y0180794D01*
X0098629Y0180359D01*
X0098699Y0179923D01*
X0098759Y0179485D01*
X0098807Y0179046D01*
X0098845Y0178606D01*
X0098872Y0178165D01*
X0098889Y0177724D01*
X0098894Y0177282D01*
X0098889Y0176840D01*
X0098872Y0176399D01*
X0098845Y0175958D01*
X0098807Y0175518D01*
X0098759Y0175079D01*
X0098699Y0174641D01*
X0098629Y0174205D01*
X0098548Y0173770D01*
X0098457Y0173338D01*
X0098355Y0172908D01*
X0098242Y0172481D01*
X0098119Y0172057D01*
X0097986Y0171636D01*
X0097842Y0171218D01*
X0097688Y0170804D01*
X0097524Y0170394D01*
X0097350Y0169988D01*
X0097166Y0169586D01*
X0096972Y0169189D01*
X0096769Y0168797D01*
X0096556Y0168410D01*
X0096333Y0168028D01*
X0096101Y0167652D01*
X0095860Y0167282D01*
X0095611Y0166917D01*
X0095352Y0166559D01*
X0095084Y0166208D01*
X0094808Y0165863D01*
X0094524Y0165525D01*
X0094231Y0165194D01*
X0093930Y0164870D01*
X0093622Y0164554D01*
X0093306Y0164246D01*
X0092982Y0163945D01*
X0092651Y0163652D01*
X0092313Y0163368D01*
X0091968Y0163092D01*
X0091617Y0162824D01*
X0091259Y0162565D01*
X0090894Y0162316D01*
X0090524Y0162075D01*
X0090148Y0161843D01*
X0089766Y0161620D01*
X0089379Y0161407D01*
X0088987Y0161204D01*
X0088590Y0161010D01*
X0088188Y0160826D01*
X0087782Y0160652D01*
X0087372Y0160488D01*
X0086958Y0160334D01*
X0086540Y0160190D01*
X0086119Y0160057D01*
X0085695Y0159934D01*
X0085268Y0159821D01*
X0084838Y0159719D01*
X0084406Y0159628D01*
X0083971Y0159547D01*
X0083535Y0159477D01*
X0083097Y0159417D01*
X0082658Y0159369D01*
X0082218Y0159331D01*
X0081777Y0159304D01*
X0081336Y0159287D01*
X0080894Y0159282D01*
X0080452Y0159287D01*
X0080011Y0159304D01*
X0079570Y0159331D01*
X0079130Y0159369D01*
X0078691Y0159417D01*
X0078253Y0159477D01*
X0077817Y0159547D01*
X0077382Y0159628D01*
X0076950Y0159719D01*
X0076520Y0159821D01*
X0076093Y0159934D01*
X0075669Y0160057D01*
X0075248Y0160190D01*
X0074830Y0160334D01*
X0074416Y0160488D01*
X0074006Y0160652D01*
X0073600Y0160826D01*
X0073198Y0161010D01*
X0072801Y0161204D01*
X0072409Y0161407D01*
X0072022Y0161620D01*
X0071640Y0161843D01*
X0071264Y0162075D01*
X0070894Y0162316D01*
X0070529Y0162565D01*
X0070171Y0162824D01*
X0069820Y0163092D01*
X0069475Y0163368D01*
X0069137Y0163652D01*
X0068806Y0163945D01*
X0068482Y0164246D01*
X0068166Y0164554D01*
X0067858Y0164870D01*
X0067557Y0165194D01*
X0067264Y0165525D01*
X0066980Y0165863D01*
X0066704Y0166208D01*
X0066436Y0166559D01*
X0066177Y0166917D01*
X0065928Y0167282D01*
X0065687Y0167652D01*
X0065455Y0168028D01*
X0065232Y0168410D01*
X0065019Y0168797D01*
X0064816Y0169189D01*
X0064622Y0169586D01*
X0064438Y0169988D01*
X0064264Y0170394D01*
X0064100Y0170804D01*
X0063946Y0171218D01*
X0063802Y0171636D01*
X0063669Y0172057D01*
X0063546Y0172481D01*
X0063433Y0172908D01*
X0063331Y0173338D01*
X0063240Y0173770D01*
X0063159Y0174205D01*
X0063089Y0174641D01*
X0063029Y0175079D01*
X0062981Y0175518D01*
X0062943Y0175958D01*
X0062916Y0176399D01*
X0062899Y0176840D01*
X0062894Y0177282D01*
X0100667Y0128140D02*
X0100679Y0129106D01*
X0100714Y0130072D01*
X0100774Y0131036D01*
X0100857Y0131999D01*
X0100963Y0132959D01*
X0101093Y0133917D01*
X0101247Y0134871D01*
X0101423Y0135821D01*
X0101624Y0136766D01*
X0101847Y0137706D01*
X0102093Y0138640D01*
X0102362Y0139569D01*
X0102654Y0140490D01*
X0102968Y0141403D01*
X0103305Y0142309D01*
X0103664Y0143206D01*
X0104045Y0144094D01*
X0104447Y0144973D01*
X0104871Y0145841D01*
X0105316Y0146699D01*
X0105782Y0147545D01*
X0106268Y0148380D01*
X0106775Y0149203D01*
X0107302Y0150013D01*
X0107849Y0150810D01*
X0108415Y0151593D01*
X0109000Y0152362D01*
X0109604Y0153116D01*
X0110226Y0153855D01*
X0110866Y0154579D01*
X0111523Y0155287D01*
X0112198Y0155979D01*
X0112890Y0156654D01*
X0113598Y0157311D01*
X0114322Y0157951D01*
X0115061Y0158573D01*
X0115815Y0159177D01*
X0116584Y0159762D01*
X0117367Y0160328D01*
X0118164Y0160875D01*
X0118974Y0161402D01*
X0119797Y0161909D01*
X0120632Y0162395D01*
X0121478Y0162861D01*
X0122336Y0163306D01*
X0123204Y0163730D01*
X0124083Y0164132D01*
X0124971Y0164513D01*
X0125868Y0164872D01*
X0126774Y0165209D01*
X0127687Y0165523D01*
X0128608Y0165815D01*
X0129537Y0166084D01*
X0130471Y0166330D01*
X0131411Y0166553D01*
X0132356Y0166754D01*
X0133306Y0166930D01*
X0134260Y0167084D01*
X0135218Y0167214D01*
X0136178Y0167320D01*
X0137141Y0167403D01*
X0138105Y0167463D01*
X0139071Y0167498D01*
X0140037Y0167510D01*
X0141003Y0167498D01*
X0141969Y0167463D01*
X0142933Y0167403D01*
X0143896Y0167320D01*
X0144856Y0167214D01*
X0145814Y0167084D01*
X0146768Y0166930D01*
X0147718Y0166754D01*
X0148663Y0166553D01*
X0149603Y0166330D01*
X0150537Y0166084D01*
X0151466Y0165815D01*
X0152387Y0165523D01*
X0153300Y0165209D01*
X0154206Y0164872D01*
X0155103Y0164513D01*
X0155991Y0164132D01*
X0156870Y0163730D01*
X0157738Y0163306D01*
X0158596Y0162861D01*
X0159442Y0162395D01*
X0160277Y0161909D01*
X0161100Y0161402D01*
X0161910Y0160875D01*
X0162707Y0160328D01*
X0163490Y0159762D01*
X0164259Y0159177D01*
X0165013Y0158573D01*
X0165752Y0157951D01*
X0166476Y0157311D01*
X0167184Y0156654D01*
X0167876Y0155979D01*
X0168551Y0155287D01*
X0169208Y0154579D01*
X0169848Y0153855D01*
X0170470Y0153116D01*
X0171074Y0152362D01*
X0171659Y0151593D01*
X0172225Y0150810D01*
X0172772Y0150013D01*
X0173299Y0149203D01*
X0173806Y0148380D01*
X0174292Y0147545D01*
X0174758Y0146699D01*
X0175203Y0145841D01*
X0175627Y0144973D01*
X0176029Y0144094D01*
X0176410Y0143206D01*
X0176769Y0142309D01*
X0177106Y0141403D01*
X0177420Y0140490D01*
X0177712Y0139569D01*
X0177981Y0138640D01*
X0178227Y0137706D01*
X0178450Y0136766D01*
X0178651Y0135821D01*
X0178827Y0134871D01*
X0178981Y0133917D01*
X0179111Y0132959D01*
X0179217Y0131999D01*
X0179300Y0131036D01*
X0179360Y0130072D01*
X0179395Y0129106D01*
X0179407Y0128140D01*
X0179395Y0127174D01*
X0179360Y0126208D01*
X0179300Y0125244D01*
X0179217Y0124281D01*
X0179111Y0123321D01*
X0178981Y0122363D01*
X0178827Y0121409D01*
X0178651Y0120459D01*
X0178450Y0119514D01*
X0178227Y0118574D01*
X0177981Y0117640D01*
X0177712Y0116711D01*
X0177420Y0115790D01*
X0177106Y0114877D01*
X0176769Y0113971D01*
X0176410Y0113074D01*
X0176029Y0112186D01*
X0175627Y0111307D01*
X0175203Y0110439D01*
X0174758Y0109581D01*
X0174292Y0108735D01*
X0173806Y0107900D01*
X0173299Y0107077D01*
X0172772Y0106267D01*
X0172225Y0105470D01*
X0171659Y0104687D01*
X0171074Y0103918D01*
X0170470Y0103164D01*
X0169848Y0102425D01*
X0169208Y0101701D01*
X0168551Y0100993D01*
X0167876Y0100301D01*
X0167184Y0099626D01*
X0166476Y0098969D01*
X0165752Y0098329D01*
X0165013Y0097707D01*
X0164259Y0097103D01*
X0163490Y0096518D01*
X0162707Y0095952D01*
X0161910Y0095405D01*
X0161100Y0094878D01*
X0160277Y0094371D01*
X0159442Y0093885D01*
X0158596Y0093419D01*
X0157738Y0092974D01*
X0156870Y0092550D01*
X0155991Y0092148D01*
X0155103Y0091767D01*
X0154206Y0091408D01*
X0153300Y0091071D01*
X0152387Y0090757D01*
X0151466Y0090465D01*
X0150537Y0090196D01*
X0149603Y0089950D01*
X0148663Y0089727D01*
X0147718Y0089526D01*
X0146768Y0089350D01*
X0145814Y0089196D01*
X0144856Y0089066D01*
X0143896Y0088960D01*
X0142933Y0088877D01*
X0141969Y0088817D01*
X0141003Y0088782D01*
X0140037Y0088770D01*
X0139071Y0088782D01*
X0138105Y0088817D01*
X0137141Y0088877D01*
X0136178Y0088960D01*
X0135218Y0089066D01*
X0134260Y0089196D01*
X0133306Y0089350D01*
X0132356Y0089526D01*
X0131411Y0089727D01*
X0130471Y0089950D01*
X0129537Y0090196D01*
X0128608Y0090465D01*
X0127687Y0090757D01*
X0126774Y0091071D01*
X0125868Y0091408D01*
X0124971Y0091767D01*
X0124083Y0092148D01*
X0123204Y0092550D01*
X0122336Y0092974D01*
X0121478Y0093419D01*
X0120632Y0093885D01*
X0119797Y0094371D01*
X0118974Y0094878D01*
X0118164Y0095405D01*
X0117367Y0095952D01*
X0116584Y0096518D01*
X0115815Y0097103D01*
X0115061Y0097707D01*
X0114322Y0098329D01*
X0113598Y0098969D01*
X0112890Y0099626D01*
X0112198Y0100301D01*
X0111523Y0100993D01*
X0110866Y0101701D01*
X0110226Y0102425D01*
X0109604Y0103164D01*
X0109000Y0103918D01*
X0108415Y0104687D01*
X0107849Y0105470D01*
X0107302Y0106267D01*
X0106775Y0107077D01*
X0106268Y0107900D01*
X0105782Y0108735D01*
X0105316Y0109581D01*
X0104871Y0110439D01*
X0104447Y0111307D01*
X0104045Y0112186D01*
X0103664Y0113074D01*
X0103305Y0113971D01*
X0102968Y0114877D01*
X0102654Y0115790D01*
X0102362Y0116711D01*
X0102093Y0117640D01*
X0101847Y0118574D01*
X0101624Y0119514D01*
X0101423Y0120459D01*
X0101247Y0121409D01*
X0101093Y0122363D01*
X0100963Y0123321D01*
X0100857Y0124281D01*
X0100774Y0125244D01*
X0100714Y0126208D01*
X0100679Y0127174D01*
X0100667Y0128140D01*
X0197037Y0134140D02*
X0197537Y0133640D01*
X0197537Y0102640D01*
X0197037Y0102140D01*
X0197037Y0099640D01*
X0197039Y0099564D01*
X0197045Y0099488D01*
X0197054Y0099413D01*
X0197068Y0099338D01*
X0197085Y0099264D01*
X0197106Y0099191D01*
X0197130Y0099119D01*
X0197159Y0099048D01*
X0197190Y0098979D01*
X0197225Y0098912D01*
X0197264Y0098847D01*
X0197306Y0098783D01*
X0197351Y0098722D01*
X0197399Y0098663D01*
X0197450Y0098607D01*
X0197504Y0098553D01*
X0197560Y0098502D01*
X0197619Y0098454D01*
X0197680Y0098409D01*
X0197744Y0098367D01*
X0197809Y0098328D01*
X0197876Y0098293D01*
X0197945Y0098262D01*
X0198016Y0098233D01*
X0198088Y0098209D01*
X0198161Y0098188D01*
X0198235Y0098171D01*
X0198310Y0098157D01*
X0198385Y0098148D01*
X0198461Y0098142D01*
X0198537Y0098140D01*
X0211537Y0098140D01*
X0211613Y0098142D01*
X0211689Y0098148D01*
X0211764Y0098157D01*
X0211839Y0098171D01*
X0211913Y0098188D01*
X0211986Y0098209D01*
X0212058Y0098233D01*
X0212129Y0098262D01*
X0212198Y0098293D01*
X0212265Y0098328D01*
X0212330Y0098367D01*
X0212394Y0098409D01*
X0212455Y0098454D01*
X0212514Y0098502D01*
X0212570Y0098553D01*
X0212624Y0098607D01*
X0212675Y0098663D01*
X0212723Y0098722D01*
X0212768Y0098783D01*
X0212810Y0098847D01*
X0212849Y0098912D01*
X0212884Y0098979D01*
X0212915Y0099048D01*
X0212944Y0099119D01*
X0212968Y0099191D01*
X0212989Y0099264D01*
X0213006Y0099338D01*
X0213020Y0099413D01*
X0213029Y0099488D01*
X0213035Y0099564D01*
X0213037Y0099640D01*
X0213037Y0102140D01*
X0212537Y0102640D01*
X0212537Y0133640D01*
X0213037Y0134140D01*
X0213037Y0136640D01*
X0213035Y0136716D01*
X0213029Y0136792D01*
X0213020Y0136867D01*
X0213006Y0136942D01*
X0212989Y0137016D01*
X0212968Y0137089D01*
X0212944Y0137161D01*
X0212915Y0137232D01*
X0212884Y0137301D01*
X0212849Y0137368D01*
X0212810Y0137433D01*
X0212768Y0137497D01*
X0212723Y0137558D01*
X0212675Y0137617D01*
X0212624Y0137673D01*
X0212570Y0137727D01*
X0212514Y0137778D01*
X0212455Y0137826D01*
X0212394Y0137871D01*
X0212330Y0137913D01*
X0212265Y0137952D01*
X0212198Y0137987D01*
X0212129Y0138018D01*
X0212058Y0138047D01*
X0211986Y0138071D01*
X0211913Y0138092D01*
X0211839Y0138109D01*
X0211764Y0138123D01*
X0211689Y0138132D01*
X0211613Y0138138D01*
X0211537Y0138140D01*
X0198537Y0138140D01*
X0198461Y0138138D01*
X0198385Y0138132D01*
X0198310Y0138123D01*
X0198235Y0138109D01*
X0198161Y0138092D01*
X0198088Y0138071D01*
X0198016Y0138047D01*
X0197945Y0138018D01*
X0197876Y0137987D01*
X0197809Y0137952D01*
X0197744Y0137913D01*
X0197680Y0137871D01*
X0197619Y0137826D01*
X0197560Y0137778D01*
X0197504Y0137727D01*
X0197450Y0137673D01*
X0197399Y0137617D01*
X0197351Y0137558D01*
X0197306Y0137497D01*
X0197264Y0137433D01*
X0197225Y0137368D01*
X0197190Y0137301D01*
X0197159Y0137232D01*
X0197130Y0137161D01*
X0197106Y0137089D01*
X0197085Y0137016D01*
X0197068Y0136942D01*
X0197054Y0136867D01*
X0197045Y0136792D01*
X0197039Y0136716D01*
X0197037Y0136640D01*
X0197037Y0134140D01*
X0222037Y0134140D02*
X0222537Y0133640D01*
X0222537Y0102640D01*
X0222037Y0102140D01*
X0222037Y0099640D01*
X0222039Y0099564D01*
X0222045Y0099488D01*
X0222054Y0099413D01*
X0222068Y0099338D01*
X0222085Y0099264D01*
X0222106Y0099191D01*
X0222130Y0099119D01*
X0222159Y0099048D01*
X0222190Y0098979D01*
X0222225Y0098912D01*
X0222264Y0098847D01*
X0222306Y0098783D01*
X0222351Y0098722D01*
X0222399Y0098663D01*
X0222450Y0098607D01*
X0222504Y0098553D01*
X0222560Y0098502D01*
X0222619Y0098454D01*
X0222680Y0098409D01*
X0222744Y0098367D01*
X0222809Y0098328D01*
X0222876Y0098293D01*
X0222945Y0098262D01*
X0223016Y0098233D01*
X0223088Y0098209D01*
X0223161Y0098188D01*
X0223235Y0098171D01*
X0223310Y0098157D01*
X0223385Y0098148D01*
X0223461Y0098142D01*
X0223537Y0098140D01*
X0236537Y0098140D01*
X0236613Y0098142D01*
X0236689Y0098148D01*
X0236764Y0098157D01*
X0236839Y0098171D01*
X0236913Y0098188D01*
X0236986Y0098209D01*
X0237058Y0098233D01*
X0237129Y0098262D01*
X0237198Y0098293D01*
X0237265Y0098328D01*
X0237330Y0098367D01*
X0237394Y0098409D01*
X0237455Y0098454D01*
X0237514Y0098502D01*
X0237570Y0098553D01*
X0237624Y0098607D01*
X0237675Y0098663D01*
X0237723Y0098722D01*
X0237768Y0098783D01*
X0237810Y0098847D01*
X0237849Y0098912D01*
X0237884Y0098979D01*
X0237915Y0099048D01*
X0237944Y0099119D01*
X0237968Y0099191D01*
X0237989Y0099264D01*
X0238006Y0099338D01*
X0238020Y0099413D01*
X0238029Y0099488D01*
X0238035Y0099564D01*
X0238037Y0099640D01*
X0238037Y0102140D01*
X0237537Y0102640D01*
X0237537Y0133640D01*
X0238037Y0134140D01*
X0238037Y0136640D01*
X0238035Y0136716D01*
X0238029Y0136792D01*
X0238020Y0136867D01*
X0238006Y0136942D01*
X0237989Y0137016D01*
X0237968Y0137089D01*
X0237944Y0137161D01*
X0237915Y0137232D01*
X0237884Y0137301D01*
X0237849Y0137368D01*
X0237810Y0137433D01*
X0237768Y0137497D01*
X0237723Y0137558D01*
X0237675Y0137617D01*
X0237624Y0137673D01*
X0237570Y0137727D01*
X0237514Y0137778D01*
X0237455Y0137826D01*
X0237394Y0137871D01*
X0237330Y0137913D01*
X0237265Y0137952D01*
X0237198Y0137987D01*
X0237129Y0138018D01*
X0237058Y0138047D01*
X0236986Y0138071D01*
X0236913Y0138092D01*
X0236839Y0138109D01*
X0236764Y0138123D01*
X0236689Y0138132D01*
X0236613Y0138138D01*
X0236537Y0138140D01*
X0223537Y0138140D01*
X0223461Y0138138D01*
X0223385Y0138132D01*
X0223310Y0138123D01*
X0223235Y0138109D01*
X0223161Y0138092D01*
X0223088Y0138071D01*
X0223016Y0138047D01*
X0222945Y0138018D01*
X0222876Y0137987D01*
X0222809Y0137952D01*
X0222744Y0137913D01*
X0222680Y0137871D01*
X0222619Y0137826D01*
X0222560Y0137778D01*
X0222504Y0137727D01*
X0222450Y0137673D01*
X0222399Y0137617D01*
X0222351Y0137558D01*
X0222306Y0137497D01*
X0222264Y0137433D01*
X0222225Y0137368D01*
X0222190Y0137301D01*
X0222159Y0137232D01*
X0222130Y0137161D01*
X0222106Y0137089D01*
X0222085Y0137016D01*
X0222068Y0136942D01*
X0222054Y0136867D01*
X0222045Y0136792D01*
X0222039Y0136716D01*
X0222037Y0136640D01*
X0222037Y0134140D01*
X0250037Y0126140D02*
X0260037Y0126140D01*
X0260037Y0110140D01*
X0250037Y0110140D01*
X0250037Y0126140D01*
X0255037Y0120640D02*
X0255037Y0118140D01*
X0252537Y0118140D01*
X0255037Y0118140D02*
X0257537Y0118140D01*
X0255037Y0118140D02*
X0257537Y0114140D01*
X0252537Y0114140D01*
X0255037Y0118140D01*
X0255037Y0112140D01*
X0269084Y0102140D02*
X0269584Y0102640D01*
X0269584Y0133640D01*
X0269084Y0134140D01*
X0269084Y0136640D01*
X0269086Y0136716D01*
X0269092Y0136792D01*
X0269101Y0136867D01*
X0269115Y0136942D01*
X0269132Y0137016D01*
X0269153Y0137089D01*
X0269177Y0137161D01*
X0269206Y0137232D01*
X0269237Y0137301D01*
X0269272Y0137368D01*
X0269311Y0137433D01*
X0269353Y0137497D01*
X0269398Y0137558D01*
X0269446Y0137617D01*
X0269497Y0137673D01*
X0269551Y0137727D01*
X0269607Y0137778D01*
X0269666Y0137826D01*
X0269727Y0137871D01*
X0269791Y0137913D01*
X0269856Y0137952D01*
X0269923Y0137987D01*
X0269992Y0138018D01*
X0270063Y0138047D01*
X0270135Y0138071D01*
X0270208Y0138092D01*
X0270282Y0138109D01*
X0270357Y0138123D01*
X0270432Y0138132D01*
X0270508Y0138138D01*
X0270584Y0138140D01*
X0283584Y0138140D01*
X0283660Y0138138D01*
X0283736Y0138132D01*
X0283811Y0138123D01*
X0283886Y0138109D01*
X0283960Y0138092D01*
X0284033Y0138071D01*
X0284105Y0138047D01*
X0284176Y0138018D01*
X0284245Y0137987D01*
X0284312Y0137952D01*
X0284377Y0137913D01*
X0284441Y0137871D01*
X0284502Y0137826D01*
X0284561Y0137778D01*
X0284617Y0137727D01*
X0284671Y0137673D01*
X0284722Y0137617D01*
X0284770Y0137558D01*
X0284815Y0137497D01*
X0284857Y0137433D01*
X0284896Y0137368D01*
X0284931Y0137301D01*
X0284962Y0137232D01*
X0284991Y0137161D01*
X0285015Y0137089D01*
X0285036Y0137016D01*
X0285053Y0136942D01*
X0285067Y0136867D01*
X0285076Y0136792D01*
X0285082Y0136716D01*
X0285084Y0136640D01*
X0285084Y0134140D01*
X0284584Y0133640D01*
X0284584Y0102640D01*
X0285084Y0102140D01*
X0285084Y0099640D01*
X0285082Y0099564D01*
X0285076Y0099488D01*
X0285067Y0099413D01*
X0285053Y0099338D01*
X0285036Y0099264D01*
X0285015Y0099191D01*
X0284991Y0099119D01*
X0284962Y0099048D01*
X0284931Y0098979D01*
X0284896Y0098912D01*
X0284857Y0098847D01*
X0284815Y0098783D01*
X0284770Y0098722D01*
X0284722Y0098663D01*
X0284671Y0098607D01*
X0284617Y0098553D01*
X0284561Y0098502D01*
X0284502Y0098454D01*
X0284441Y0098409D01*
X0284377Y0098367D01*
X0284312Y0098328D01*
X0284245Y0098293D01*
X0284176Y0098262D01*
X0284105Y0098233D01*
X0284033Y0098209D01*
X0283960Y0098188D01*
X0283886Y0098171D01*
X0283811Y0098157D01*
X0283736Y0098148D01*
X0283660Y0098142D01*
X0283584Y0098140D01*
X0270584Y0098140D01*
X0270508Y0098142D01*
X0270432Y0098148D01*
X0270357Y0098157D01*
X0270282Y0098171D01*
X0270208Y0098188D01*
X0270135Y0098209D01*
X0270063Y0098233D01*
X0269992Y0098262D01*
X0269923Y0098293D01*
X0269856Y0098328D01*
X0269791Y0098367D01*
X0269727Y0098409D01*
X0269666Y0098454D01*
X0269607Y0098502D01*
X0269551Y0098553D01*
X0269497Y0098607D01*
X0269446Y0098663D01*
X0269398Y0098722D01*
X0269353Y0098783D01*
X0269311Y0098847D01*
X0269272Y0098912D01*
X0269237Y0098979D01*
X0269206Y0099048D01*
X0269177Y0099119D01*
X0269153Y0099191D01*
X0269132Y0099264D01*
X0269115Y0099338D01*
X0269101Y0099413D01*
X0269092Y0099488D01*
X0269086Y0099564D01*
X0269084Y0099640D01*
X0269084Y0102140D01*
X0302037Y0102140D02*
X0302037Y0099640D01*
X0302039Y0099564D01*
X0302045Y0099488D01*
X0302054Y0099413D01*
X0302068Y0099338D01*
X0302085Y0099264D01*
X0302106Y0099191D01*
X0302130Y0099119D01*
X0302159Y0099048D01*
X0302190Y0098979D01*
X0302225Y0098912D01*
X0302264Y0098847D01*
X0302306Y0098783D01*
X0302351Y0098722D01*
X0302399Y0098663D01*
X0302450Y0098607D01*
X0302504Y0098553D01*
X0302560Y0098502D01*
X0302619Y0098454D01*
X0302680Y0098409D01*
X0302744Y0098367D01*
X0302809Y0098328D01*
X0302876Y0098293D01*
X0302945Y0098262D01*
X0303016Y0098233D01*
X0303088Y0098209D01*
X0303161Y0098188D01*
X0303235Y0098171D01*
X0303310Y0098157D01*
X0303385Y0098148D01*
X0303461Y0098142D01*
X0303537Y0098140D01*
X0316537Y0098140D01*
X0316613Y0098142D01*
X0316689Y0098148D01*
X0316764Y0098157D01*
X0316839Y0098171D01*
X0316913Y0098188D01*
X0316986Y0098209D01*
X0317058Y0098233D01*
X0317129Y0098262D01*
X0317198Y0098293D01*
X0317265Y0098328D01*
X0317330Y0098367D01*
X0317394Y0098409D01*
X0317455Y0098454D01*
X0317514Y0098502D01*
X0317570Y0098553D01*
X0317624Y0098607D01*
X0317675Y0098663D01*
X0317723Y0098722D01*
X0317768Y0098783D01*
X0317810Y0098847D01*
X0317849Y0098912D01*
X0317884Y0098979D01*
X0317915Y0099048D01*
X0317944Y0099119D01*
X0317968Y0099191D01*
X0317989Y0099264D01*
X0318006Y0099338D01*
X0318020Y0099413D01*
X0318029Y0099488D01*
X0318035Y0099564D01*
X0318037Y0099640D01*
X0318037Y0102140D01*
X0317537Y0102640D01*
X0317537Y0133640D01*
X0318037Y0134140D01*
X0318037Y0136640D01*
X0318035Y0136716D01*
X0318029Y0136792D01*
X0318020Y0136867D01*
X0318006Y0136942D01*
X0317989Y0137016D01*
X0317968Y0137089D01*
X0317944Y0137161D01*
X0317915Y0137232D01*
X0317884Y0137301D01*
X0317849Y0137368D01*
X0317810Y0137433D01*
X0317768Y0137497D01*
X0317723Y0137558D01*
X0317675Y0137617D01*
X0317624Y0137673D01*
X0317570Y0137727D01*
X0317514Y0137778D01*
X0317455Y0137826D01*
X0317394Y0137871D01*
X0317330Y0137913D01*
X0317265Y0137952D01*
X0317198Y0137987D01*
X0317129Y0138018D01*
X0317058Y0138047D01*
X0316986Y0138071D01*
X0316913Y0138092D01*
X0316839Y0138109D01*
X0316764Y0138123D01*
X0316689Y0138132D01*
X0316613Y0138138D01*
X0316537Y0138140D01*
X0303537Y0138140D01*
X0303461Y0138138D01*
X0303385Y0138132D01*
X0303310Y0138123D01*
X0303235Y0138109D01*
X0303161Y0138092D01*
X0303088Y0138071D01*
X0303016Y0138047D01*
X0302945Y0138018D01*
X0302876Y0137987D01*
X0302809Y0137952D01*
X0302744Y0137913D01*
X0302680Y0137871D01*
X0302619Y0137826D01*
X0302560Y0137778D01*
X0302504Y0137727D01*
X0302450Y0137673D01*
X0302399Y0137617D01*
X0302351Y0137558D01*
X0302306Y0137497D01*
X0302264Y0137433D01*
X0302225Y0137368D01*
X0302190Y0137301D01*
X0302159Y0137232D01*
X0302130Y0137161D01*
X0302106Y0137089D01*
X0302085Y0137016D01*
X0302068Y0136942D01*
X0302054Y0136867D01*
X0302045Y0136792D01*
X0302039Y0136716D01*
X0302037Y0136640D01*
X0302037Y0134140D01*
X0302537Y0133640D01*
X0302537Y0102640D01*
X0302037Y0102140D01*
X0319328Y0103140D02*
X0319340Y0104106D01*
X0319375Y0105072D01*
X0319435Y0106036D01*
X0319518Y0106999D01*
X0319624Y0107959D01*
X0319754Y0108917D01*
X0319908Y0109871D01*
X0320084Y0110821D01*
X0320285Y0111766D01*
X0320508Y0112706D01*
X0320754Y0113640D01*
X0321023Y0114569D01*
X0321315Y0115490D01*
X0321629Y0116403D01*
X0321966Y0117309D01*
X0322325Y0118206D01*
X0322706Y0119094D01*
X0323108Y0119973D01*
X0323532Y0120841D01*
X0323977Y0121699D01*
X0324443Y0122545D01*
X0324929Y0123380D01*
X0325436Y0124203D01*
X0325963Y0125013D01*
X0326510Y0125810D01*
X0327076Y0126593D01*
X0327661Y0127362D01*
X0328265Y0128116D01*
X0328887Y0128855D01*
X0329527Y0129579D01*
X0330184Y0130287D01*
X0330859Y0130979D01*
X0331551Y0131654D01*
X0332259Y0132311D01*
X0332983Y0132951D01*
X0333722Y0133573D01*
X0334476Y0134177D01*
X0335245Y0134762D01*
X0336028Y0135328D01*
X0336825Y0135875D01*
X0337635Y0136402D01*
X0338458Y0136909D01*
X0339293Y0137395D01*
X0340139Y0137861D01*
X0340997Y0138306D01*
X0341865Y0138730D01*
X0342744Y0139132D01*
X0343632Y0139513D01*
X0344529Y0139872D01*
X0345435Y0140209D01*
X0346348Y0140523D01*
X0347269Y0140815D01*
X0348198Y0141084D01*
X0349132Y0141330D01*
X0350072Y0141553D01*
X0351017Y0141754D01*
X0351967Y0141930D01*
X0352921Y0142084D01*
X0353879Y0142214D01*
X0354839Y0142320D01*
X0355802Y0142403D01*
X0356766Y0142463D01*
X0357732Y0142498D01*
X0358698Y0142510D01*
X0359664Y0142498D01*
X0360630Y0142463D01*
X0361594Y0142403D01*
X0362557Y0142320D01*
X0363517Y0142214D01*
X0364475Y0142084D01*
X0365429Y0141930D01*
X0366379Y0141754D01*
X0367324Y0141553D01*
X0368264Y0141330D01*
X0369198Y0141084D01*
X0370127Y0140815D01*
X0371048Y0140523D01*
X0371961Y0140209D01*
X0372867Y0139872D01*
X0373764Y0139513D01*
X0374652Y0139132D01*
X0375531Y0138730D01*
X0376399Y0138306D01*
X0377257Y0137861D01*
X0378103Y0137395D01*
X0378938Y0136909D01*
X0379761Y0136402D01*
X0380571Y0135875D01*
X0381368Y0135328D01*
X0382151Y0134762D01*
X0382920Y0134177D01*
X0383674Y0133573D01*
X0384413Y0132951D01*
X0385137Y0132311D01*
X0385845Y0131654D01*
X0386537Y0130979D01*
X0387212Y0130287D01*
X0387869Y0129579D01*
X0388509Y0128855D01*
X0389131Y0128116D01*
X0389735Y0127362D01*
X0390320Y0126593D01*
X0390886Y0125810D01*
X0391433Y0125013D01*
X0391960Y0124203D01*
X0392467Y0123380D01*
X0392953Y0122545D01*
X0393419Y0121699D01*
X0393864Y0120841D01*
X0394288Y0119973D01*
X0394690Y0119094D01*
X0395071Y0118206D01*
X0395430Y0117309D01*
X0395767Y0116403D01*
X0396081Y0115490D01*
X0396373Y0114569D01*
X0396642Y0113640D01*
X0396888Y0112706D01*
X0397111Y0111766D01*
X0397312Y0110821D01*
X0397488Y0109871D01*
X0397642Y0108917D01*
X0397772Y0107959D01*
X0397878Y0106999D01*
X0397961Y0106036D01*
X0398021Y0105072D01*
X0398056Y0104106D01*
X0398068Y0103140D01*
X0398056Y0102174D01*
X0398021Y0101208D01*
X0397961Y0100244D01*
X0397878Y0099281D01*
X0397772Y0098321D01*
X0397642Y0097363D01*
X0397488Y0096409D01*
X0397312Y0095459D01*
X0397111Y0094514D01*
X0396888Y0093574D01*
X0396642Y0092640D01*
X0396373Y0091711D01*
X0396081Y0090790D01*
X0395767Y0089877D01*
X0395430Y0088971D01*
X0395071Y0088074D01*
X0394690Y0087186D01*
X0394288Y0086307D01*
X0393864Y0085439D01*
X0393419Y0084581D01*
X0392953Y0083735D01*
X0392467Y0082900D01*
X0391960Y0082077D01*
X0391433Y0081267D01*
X0390886Y0080470D01*
X0390320Y0079687D01*
X0389735Y0078918D01*
X0389131Y0078164D01*
X0388509Y0077425D01*
X0387869Y0076701D01*
X0387212Y0075993D01*
X0386537Y0075301D01*
X0385845Y0074626D01*
X0385137Y0073969D01*
X0384413Y0073329D01*
X0383674Y0072707D01*
X0382920Y0072103D01*
X0382151Y0071518D01*
X0381368Y0070952D01*
X0380571Y0070405D01*
X0379761Y0069878D01*
X0378938Y0069371D01*
X0378103Y0068885D01*
X0377257Y0068419D01*
X0376399Y0067974D01*
X0375531Y0067550D01*
X0374652Y0067148D01*
X0373764Y0066767D01*
X0372867Y0066408D01*
X0371961Y0066071D01*
X0371048Y0065757D01*
X0370127Y0065465D01*
X0369198Y0065196D01*
X0368264Y0064950D01*
X0367324Y0064727D01*
X0366379Y0064526D01*
X0365429Y0064350D01*
X0364475Y0064196D01*
X0363517Y0064066D01*
X0362557Y0063960D01*
X0361594Y0063877D01*
X0360630Y0063817D01*
X0359664Y0063782D01*
X0358698Y0063770D01*
X0357732Y0063782D01*
X0356766Y0063817D01*
X0355802Y0063877D01*
X0354839Y0063960D01*
X0353879Y0064066D01*
X0352921Y0064196D01*
X0351967Y0064350D01*
X0351017Y0064526D01*
X0350072Y0064727D01*
X0349132Y0064950D01*
X0348198Y0065196D01*
X0347269Y0065465D01*
X0346348Y0065757D01*
X0345435Y0066071D01*
X0344529Y0066408D01*
X0343632Y0066767D01*
X0342744Y0067148D01*
X0341865Y0067550D01*
X0340997Y0067974D01*
X0340139Y0068419D01*
X0339293Y0068885D01*
X0338458Y0069371D01*
X0337635Y0069878D01*
X0336825Y0070405D01*
X0336028Y0070952D01*
X0335245Y0071518D01*
X0334476Y0072103D01*
X0333722Y0072707D01*
X0332983Y0073329D01*
X0332259Y0073969D01*
X0331551Y0074626D01*
X0330859Y0075301D01*
X0330184Y0075993D01*
X0329527Y0076701D01*
X0328887Y0077425D01*
X0328265Y0078164D01*
X0327661Y0078918D01*
X0327076Y0079687D01*
X0326510Y0080470D01*
X0325963Y0081267D01*
X0325436Y0082077D01*
X0324929Y0082900D01*
X0324443Y0083735D01*
X0323977Y0084581D01*
X0323532Y0085439D01*
X0323108Y0086307D01*
X0322706Y0087186D01*
X0322325Y0088074D01*
X0321966Y0088971D01*
X0321629Y0089877D01*
X0321315Y0090790D01*
X0321023Y0091711D01*
X0320754Y0092640D01*
X0320508Y0093574D01*
X0320285Y0094514D01*
X0320084Y0095459D01*
X0319908Y0096409D01*
X0319754Y0097363D01*
X0319624Y0098321D01*
X0319518Y0099281D01*
X0319435Y0100244D01*
X0319375Y0101208D01*
X0319340Y0102174D01*
X0319328Y0103140D01*
X0215667Y0048140D02*
X0215679Y0049106D01*
X0215714Y0050072D01*
X0215774Y0051036D01*
X0215857Y0051999D01*
X0215963Y0052959D01*
X0216093Y0053917D01*
X0216247Y0054871D01*
X0216423Y0055821D01*
X0216624Y0056766D01*
X0216847Y0057706D01*
X0217093Y0058640D01*
X0217362Y0059569D01*
X0217654Y0060490D01*
X0217968Y0061403D01*
X0218305Y0062309D01*
X0218664Y0063206D01*
X0219045Y0064094D01*
X0219447Y0064973D01*
X0219871Y0065841D01*
X0220316Y0066699D01*
X0220782Y0067545D01*
X0221268Y0068380D01*
X0221775Y0069203D01*
X0222302Y0070013D01*
X0222849Y0070810D01*
X0223415Y0071593D01*
X0224000Y0072362D01*
X0224604Y0073116D01*
X0225226Y0073855D01*
X0225866Y0074579D01*
X0226523Y0075287D01*
X0227198Y0075979D01*
X0227890Y0076654D01*
X0228598Y0077311D01*
X0229322Y0077951D01*
X0230061Y0078573D01*
X0230815Y0079177D01*
X0231584Y0079762D01*
X0232367Y0080328D01*
X0233164Y0080875D01*
X0233974Y0081402D01*
X0234797Y0081909D01*
X0235632Y0082395D01*
X0236478Y0082861D01*
X0237336Y0083306D01*
X0238204Y0083730D01*
X0239083Y0084132D01*
X0239971Y0084513D01*
X0240868Y0084872D01*
X0241774Y0085209D01*
X0242687Y0085523D01*
X0243608Y0085815D01*
X0244537Y0086084D01*
X0245471Y0086330D01*
X0246411Y0086553D01*
X0247356Y0086754D01*
X0248306Y0086930D01*
X0249260Y0087084D01*
X0250218Y0087214D01*
X0251178Y0087320D01*
X0252141Y0087403D01*
X0253105Y0087463D01*
X0254071Y0087498D01*
X0255037Y0087510D01*
X0256003Y0087498D01*
X0256969Y0087463D01*
X0257933Y0087403D01*
X0258896Y0087320D01*
X0259856Y0087214D01*
X0260814Y0087084D01*
X0261768Y0086930D01*
X0262718Y0086754D01*
X0263663Y0086553D01*
X0264603Y0086330D01*
X0265537Y0086084D01*
X0266466Y0085815D01*
X0267387Y0085523D01*
X0268300Y0085209D01*
X0269206Y0084872D01*
X0270103Y0084513D01*
X0270991Y0084132D01*
X0271870Y0083730D01*
X0272738Y0083306D01*
X0273596Y0082861D01*
X0274442Y0082395D01*
X0275277Y0081909D01*
X0276100Y0081402D01*
X0276910Y0080875D01*
X0277707Y0080328D01*
X0278490Y0079762D01*
X0279259Y0079177D01*
X0280013Y0078573D01*
X0280752Y0077951D01*
X0281476Y0077311D01*
X0282184Y0076654D01*
X0282876Y0075979D01*
X0283551Y0075287D01*
X0284208Y0074579D01*
X0284848Y0073855D01*
X0285470Y0073116D01*
X0286074Y0072362D01*
X0286659Y0071593D01*
X0287225Y0070810D01*
X0287772Y0070013D01*
X0288299Y0069203D01*
X0288806Y0068380D01*
X0289292Y0067545D01*
X0289758Y0066699D01*
X0290203Y0065841D01*
X0290627Y0064973D01*
X0291029Y0064094D01*
X0291410Y0063206D01*
X0291769Y0062309D01*
X0292106Y0061403D01*
X0292420Y0060490D01*
X0292712Y0059569D01*
X0292981Y0058640D01*
X0293227Y0057706D01*
X0293450Y0056766D01*
X0293651Y0055821D01*
X0293827Y0054871D01*
X0293981Y0053917D01*
X0294111Y0052959D01*
X0294217Y0051999D01*
X0294300Y0051036D01*
X0294360Y0050072D01*
X0294395Y0049106D01*
X0294407Y0048140D01*
X0294395Y0047174D01*
X0294360Y0046208D01*
X0294300Y0045244D01*
X0294217Y0044281D01*
X0294111Y0043321D01*
X0293981Y0042363D01*
X0293827Y0041409D01*
X0293651Y0040459D01*
X0293450Y0039514D01*
X0293227Y0038574D01*
X0292981Y0037640D01*
X0292712Y0036711D01*
X0292420Y0035790D01*
X0292106Y0034877D01*
X0291769Y0033971D01*
X0291410Y0033074D01*
X0291029Y0032186D01*
X0290627Y0031307D01*
X0290203Y0030439D01*
X0289758Y0029581D01*
X0289292Y0028735D01*
X0288806Y0027900D01*
X0288299Y0027077D01*
X0287772Y0026267D01*
X0287225Y0025470D01*
X0286659Y0024687D01*
X0286074Y0023918D01*
X0285470Y0023164D01*
X0284848Y0022425D01*
X0284208Y0021701D01*
X0283551Y0020993D01*
X0282876Y0020301D01*
X0282184Y0019626D01*
X0281476Y0018969D01*
X0280752Y0018329D01*
X0280013Y0017707D01*
X0279259Y0017103D01*
X0278490Y0016518D01*
X0277707Y0015952D01*
X0276910Y0015405D01*
X0276100Y0014878D01*
X0275277Y0014371D01*
X0274442Y0013885D01*
X0273596Y0013419D01*
X0272738Y0012974D01*
X0271870Y0012550D01*
X0270991Y0012148D01*
X0270103Y0011767D01*
X0269206Y0011408D01*
X0268300Y0011071D01*
X0267387Y0010757D01*
X0266466Y0010465D01*
X0265537Y0010196D01*
X0264603Y0009950D01*
X0263663Y0009727D01*
X0262718Y0009526D01*
X0261768Y0009350D01*
X0260814Y0009196D01*
X0259856Y0009066D01*
X0258896Y0008960D01*
X0257933Y0008877D01*
X0256969Y0008817D01*
X0256003Y0008782D01*
X0255037Y0008770D01*
X0254071Y0008782D01*
X0253105Y0008817D01*
X0252141Y0008877D01*
X0251178Y0008960D01*
X0250218Y0009066D01*
X0249260Y0009196D01*
X0248306Y0009350D01*
X0247356Y0009526D01*
X0246411Y0009727D01*
X0245471Y0009950D01*
X0244537Y0010196D01*
X0243608Y0010465D01*
X0242687Y0010757D01*
X0241774Y0011071D01*
X0240868Y0011408D01*
X0239971Y0011767D01*
X0239083Y0012148D01*
X0238204Y0012550D01*
X0237336Y0012974D01*
X0236478Y0013419D01*
X0235632Y0013885D01*
X0234797Y0014371D01*
X0233974Y0014878D01*
X0233164Y0015405D01*
X0232367Y0015952D01*
X0231584Y0016518D01*
X0230815Y0017103D01*
X0230061Y0017707D01*
X0229322Y0018329D01*
X0228598Y0018969D01*
X0227890Y0019626D01*
X0227198Y0020301D01*
X0226523Y0020993D01*
X0225866Y0021701D01*
X0225226Y0022425D01*
X0224604Y0023164D01*
X0224000Y0023918D01*
X0223415Y0024687D01*
X0222849Y0025470D01*
X0222302Y0026267D01*
X0221775Y0027077D01*
X0221268Y0027900D01*
X0220782Y0028735D01*
X0220316Y0029581D01*
X0219871Y0030439D01*
X0219447Y0031307D01*
X0219045Y0032186D01*
X0218664Y0033074D01*
X0218305Y0033971D01*
X0217968Y0034877D01*
X0217654Y0035790D01*
X0217362Y0036711D01*
X0217093Y0037640D01*
X0216847Y0038574D01*
X0216624Y0039514D01*
X0216423Y0040459D01*
X0216247Y0041409D01*
X0216093Y0042363D01*
X0215963Y0043321D01*
X0215857Y0044281D01*
X0215774Y0045244D01*
X0215714Y0046208D01*
X0215679Y0047174D01*
X0215667Y0048140D01*
X0100667Y0048140D02*
X0100679Y0049106D01*
X0100714Y0050072D01*
X0100774Y0051036D01*
X0100857Y0051999D01*
X0100963Y0052959D01*
X0101093Y0053917D01*
X0101247Y0054871D01*
X0101423Y0055821D01*
X0101624Y0056766D01*
X0101847Y0057706D01*
X0102093Y0058640D01*
X0102362Y0059569D01*
X0102654Y0060490D01*
X0102968Y0061403D01*
X0103305Y0062309D01*
X0103664Y0063206D01*
X0104045Y0064094D01*
X0104447Y0064973D01*
X0104871Y0065841D01*
X0105316Y0066699D01*
X0105782Y0067545D01*
X0106268Y0068380D01*
X0106775Y0069203D01*
X0107302Y0070013D01*
X0107849Y0070810D01*
X0108415Y0071593D01*
X0109000Y0072362D01*
X0109604Y0073116D01*
X0110226Y0073855D01*
X0110866Y0074579D01*
X0111523Y0075287D01*
X0112198Y0075979D01*
X0112890Y0076654D01*
X0113598Y0077311D01*
X0114322Y0077951D01*
X0115061Y0078573D01*
X0115815Y0079177D01*
X0116584Y0079762D01*
X0117367Y0080328D01*
X0118164Y0080875D01*
X0118974Y0081402D01*
X0119797Y0081909D01*
X0120632Y0082395D01*
X0121478Y0082861D01*
X0122336Y0083306D01*
X0123204Y0083730D01*
X0124083Y0084132D01*
X0124971Y0084513D01*
X0125868Y0084872D01*
X0126774Y0085209D01*
X0127687Y0085523D01*
X0128608Y0085815D01*
X0129537Y0086084D01*
X0130471Y0086330D01*
X0131411Y0086553D01*
X0132356Y0086754D01*
X0133306Y0086930D01*
X0134260Y0087084D01*
X0135218Y0087214D01*
X0136178Y0087320D01*
X0137141Y0087403D01*
X0138105Y0087463D01*
X0139071Y0087498D01*
X0140037Y0087510D01*
X0141003Y0087498D01*
X0141969Y0087463D01*
X0142933Y0087403D01*
X0143896Y0087320D01*
X0144856Y0087214D01*
X0145814Y0087084D01*
X0146768Y0086930D01*
X0147718Y0086754D01*
X0148663Y0086553D01*
X0149603Y0086330D01*
X0150537Y0086084D01*
X0151466Y0085815D01*
X0152387Y0085523D01*
X0153300Y0085209D01*
X0154206Y0084872D01*
X0155103Y0084513D01*
X0155991Y0084132D01*
X0156870Y0083730D01*
X0157738Y0083306D01*
X0158596Y0082861D01*
X0159442Y0082395D01*
X0160277Y0081909D01*
X0161100Y0081402D01*
X0161910Y0080875D01*
X0162707Y0080328D01*
X0163490Y0079762D01*
X0164259Y0079177D01*
X0165013Y0078573D01*
X0165752Y0077951D01*
X0166476Y0077311D01*
X0167184Y0076654D01*
X0167876Y0075979D01*
X0168551Y0075287D01*
X0169208Y0074579D01*
X0169848Y0073855D01*
X0170470Y0073116D01*
X0171074Y0072362D01*
X0171659Y0071593D01*
X0172225Y0070810D01*
X0172772Y0070013D01*
X0173299Y0069203D01*
X0173806Y0068380D01*
X0174292Y0067545D01*
X0174758Y0066699D01*
X0175203Y0065841D01*
X0175627Y0064973D01*
X0176029Y0064094D01*
X0176410Y0063206D01*
X0176769Y0062309D01*
X0177106Y0061403D01*
X0177420Y0060490D01*
X0177712Y0059569D01*
X0177981Y0058640D01*
X0178227Y0057706D01*
X0178450Y0056766D01*
X0178651Y0055821D01*
X0178827Y0054871D01*
X0178981Y0053917D01*
X0179111Y0052959D01*
X0179217Y0051999D01*
X0179300Y0051036D01*
X0179360Y0050072D01*
X0179395Y0049106D01*
X0179407Y0048140D01*
X0179395Y0047174D01*
X0179360Y0046208D01*
X0179300Y0045244D01*
X0179217Y0044281D01*
X0179111Y0043321D01*
X0178981Y0042363D01*
X0178827Y0041409D01*
X0178651Y0040459D01*
X0178450Y0039514D01*
X0178227Y0038574D01*
X0177981Y0037640D01*
X0177712Y0036711D01*
X0177420Y0035790D01*
X0177106Y0034877D01*
X0176769Y0033971D01*
X0176410Y0033074D01*
X0176029Y0032186D01*
X0175627Y0031307D01*
X0175203Y0030439D01*
X0174758Y0029581D01*
X0174292Y0028735D01*
X0173806Y0027900D01*
X0173299Y0027077D01*
X0172772Y0026267D01*
X0172225Y0025470D01*
X0171659Y0024687D01*
X0171074Y0023918D01*
X0170470Y0023164D01*
X0169848Y0022425D01*
X0169208Y0021701D01*
X0168551Y0020993D01*
X0167876Y0020301D01*
X0167184Y0019626D01*
X0166476Y0018969D01*
X0165752Y0018329D01*
X0165013Y0017707D01*
X0164259Y0017103D01*
X0163490Y0016518D01*
X0162707Y0015952D01*
X0161910Y0015405D01*
X0161100Y0014878D01*
X0160277Y0014371D01*
X0159442Y0013885D01*
X0158596Y0013419D01*
X0157738Y0012974D01*
X0156870Y0012550D01*
X0155991Y0012148D01*
X0155103Y0011767D01*
X0154206Y0011408D01*
X0153300Y0011071D01*
X0152387Y0010757D01*
X0151466Y0010465D01*
X0150537Y0010196D01*
X0149603Y0009950D01*
X0148663Y0009727D01*
X0147718Y0009526D01*
X0146768Y0009350D01*
X0145814Y0009196D01*
X0144856Y0009066D01*
X0143896Y0008960D01*
X0142933Y0008877D01*
X0141969Y0008817D01*
X0141003Y0008782D01*
X0140037Y0008770D01*
X0139071Y0008782D01*
X0138105Y0008817D01*
X0137141Y0008877D01*
X0136178Y0008960D01*
X0135218Y0009066D01*
X0134260Y0009196D01*
X0133306Y0009350D01*
X0132356Y0009526D01*
X0131411Y0009727D01*
X0130471Y0009950D01*
X0129537Y0010196D01*
X0128608Y0010465D01*
X0127687Y0010757D01*
X0126774Y0011071D01*
X0125868Y0011408D01*
X0124971Y0011767D01*
X0124083Y0012148D01*
X0123204Y0012550D01*
X0122336Y0012974D01*
X0121478Y0013419D01*
X0120632Y0013885D01*
X0119797Y0014371D01*
X0118974Y0014878D01*
X0118164Y0015405D01*
X0117367Y0015952D01*
X0116584Y0016518D01*
X0115815Y0017103D01*
X0115061Y0017707D01*
X0114322Y0018329D01*
X0113598Y0018969D01*
X0112890Y0019626D01*
X0112198Y0020301D01*
X0111523Y0020993D01*
X0110866Y0021701D01*
X0110226Y0022425D01*
X0109604Y0023164D01*
X0109000Y0023918D01*
X0108415Y0024687D01*
X0107849Y0025470D01*
X0107302Y0026267D01*
X0106775Y0027077D01*
X0106268Y0027900D01*
X0105782Y0028735D01*
X0105316Y0029581D01*
X0104871Y0030439D01*
X0104447Y0031307D01*
X0104045Y0032186D01*
X0103664Y0033074D01*
X0103305Y0033971D01*
X0102968Y0034877D01*
X0102654Y0035790D01*
X0102362Y0036711D01*
X0102093Y0037640D01*
X0101847Y0038574D01*
X0101624Y0039514D01*
X0101423Y0040459D01*
X0101247Y0041409D01*
X0101093Y0042363D01*
X0100963Y0043321D01*
X0100857Y0044281D01*
X0100774Y0045244D01*
X0100714Y0046208D01*
X0100679Y0047174D01*
X0100667Y0048140D01*
X0091060Y0043770D02*
X0069013Y0043770D01*
X0072037Y0040289D02*
X0072037Y0035289D01*
X0072037Y0058289D02*
X0072125Y0058291D01*
X0072214Y0058297D01*
X0072302Y0058307D01*
X0072389Y0058320D01*
X0072476Y0058338D01*
X0072562Y0058359D01*
X0072647Y0058384D01*
X0072730Y0058413D01*
X0072813Y0058446D01*
X0072893Y0058482D01*
X0072972Y0058521D01*
X0073050Y0058564D01*
X0073125Y0058611D01*
X0073198Y0058661D01*
X0073269Y0058714D01*
X0073338Y0058770D01*
X0073404Y0058829D01*
X0073467Y0058891D01*
X0073527Y0058955D01*
X0073585Y0059022D01*
X0073639Y0059092D01*
X0073691Y0059164D01*
X0073739Y0059238D01*
X0073784Y0059315D01*
X0073825Y0059393D01*
X0073863Y0059473D01*
X0073897Y0059554D01*
X0073928Y0059637D01*
X0073955Y0059722D01*
X0073978Y0059807D01*
X0073997Y0059893D01*
X0074013Y0059981D01*
X0074025Y0060068D01*
X0074033Y0060156D01*
X0074037Y0060245D01*
X0074037Y0060333D01*
X0074033Y0060422D01*
X0074025Y0060510D01*
X0074013Y0060597D01*
X0073997Y0060685D01*
X0073978Y0060771D01*
X0073955Y0060856D01*
X0073928Y0060941D01*
X0073897Y0061024D01*
X0073863Y0061105D01*
X0073825Y0061185D01*
X0073784Y0061263D01*
X0073739Y0061340D01*
X0073691Y0061414D01*
X0073639Y0061486D01*
X0073585Y0061556D01*
X0073527Y0061623D01*
X0073467Y0061687D01*
X0073404Y0061749D01*
X0073338Y0061808D01*
X0073269Y0061864D01*
X0073198Y0061917D01*
X0073125Y0061967D01*
X0073050Y0062014D01*
X0072972Y0062057D01*
X0072893Y0062096D01*
X0072813Y0062132D01*
X0072730Y0062165D01*
X0072647Y0062194D01*
X0072562Y0062219D01*
X0072476Y0062240D01*
X0072389Y0062258D01*
X0072302Y0062271D01*
X0072214Y0062281D01*
X0072125Y0062287D01*
X0072037Y0062289D01*
X0071949Y0062291D01*
X0071860Y0062297D01*
X0071772Y0062307D01*
X0071685Y0062320D01*
X0071598Y0062338D01*
X0071512Y0062359D01*
X0071427Y0062384D01*
X0071344Y0062413D01*
X0071261Y0062446D01*
X0071181Y0062482D01*
X0071102Y0062521D01*
X0071024Y0062564D01*
X0070949Y0062611D01*
X0070876Y0062661D01*
X0070805Y0062714D01*
X0070736Y0062770D01*
X0070670Y0062829D01*
X0070607Y0062891D01*
X0070547Y0062955D01*
X0070489Y0063022D01*
X0070435Y0063092D01*
X0070383Y0063164D01*
X0070335Y0063238D01*
X0070290Y0063315D01*
X0070249Y0063393D01*
X0070211Y0063473D01*
X0070177Y0063554D01*
X0070146Y0063637D01*
X0070119Y0063722D01*
X0070096Y0063807D01*
X0070077Y0063893D01*
X0070061Y0063981D01*
X0070049Y0064068D01*
X0070041Y0064156D01*
X0070037Y0064245D01*
X0070037Y0064333D01*
X0070041Y0064422D01*
X0070049Y0064510D01*
X0070061Y0064597D01*
X0070077Y0064685D01*
X0070096Y0064771D01*
X0070119Y0064856D01*
X0070146Y0064941D01*
X0070177Y0065024D01*
X0070211Y0065105D01*
X0070249Y0065185D01*
X0070290Y0065263D01*
X0070335Y0065340D01*
X0070383Y0065414D01*
X0070435Y0065486D01*
X0070489Y0065556D01*
X0070547Y0065623D01*
X0070607Y0065687D01*
X0070670Y0065749D01*
X0070736Y0065808D01*
X0070805Y0065864D01*
X0070876Y0065917D01*
X0070949Y0065967D01*
X0071024Y0066014D01*
X0071102Y0066057D01*
X0071181Y0066096D01*
X0071261Y0066132D01*
X0071344Y0066165D01*
X0071427Y0066194D01*
X0071512Y0066219D01*
X0071598Y0066240D01*
X0071685Y0066258D01*
X0071772Y0066271D01*
X0071860Y0066281D01*
X0071949Y0066287D01*
X0072037Y0066289D01*
X0059537Y0064065D02*
X0057537Y0064065D01*
D13*
X0056537Y0086565D02*
X0056537Y0126565D01*
X0045037Y0127065D02*
X0045037Y0086065D01*
X0033537Y0086565D02*
X0033537Y0126565D01*
D14*
X0045037Y0147315D03*
X0045037Y0065815D03*
D15*
X0052787Y0066815D03*
X0037287Y0066815D03*
X0037287Y0146315D03*
X0052787Y0146315D03*
D16*
X0055287Y0127815D03*
X0034787Y0127815D03*
X0034787Y0085315D03*
X0055287Y0085315D03*
D17*
X0045037Y0085315D03*
X0045037Y0127815D03*
D18*
X0054537Y0106565D03*
X0035537Y0106565D03*
D19*
X0037287Y0136815D03*
X0052787Y0136815D03*
X0052787Y0076315D03*
X0037287Y0076315D03*
D20*
X0036037Y0074565D03*
X0054037Y0074565D03*
X0054037Y0138565D03*
X0036037Y0138565D03*
D21*
X0205037Y0139640D02*
X0205037Y0143140D01*
X0230037Y0143140D02*
X0230037Y0139640D01*
X0255037Y0138140D02*
X0255037Y0134140D01*
X0277084Y0139640D02*
X0277084Y0143140D01*
X0310037Y0143140D02*
X0310037Y0139640D01*
X0255037Y0102140D02*
X0255037Y0098140D01*
X0277084Y0096640D02*
X0277084Y0093140D01*
X0310037Y0093140D02*
X0310037Y0096640D01*
X0230037Y0096640D02*
X0230037Y0093140D01*
X0205037Y0093140D02*
X0205037Y0096640D01*
D22*
X0205037Y0097590D03*
X0230037Y0097590D03*
X0277084Y0097590D03*
X0310037Y0097590D03*
X0310037Y0138690D03*
X0277084Y0138690D03*
X0230037Y0138690D03*
X0205037Y0138690D03*
D23*
X0102108Y0156069D02*
X0098926Y0159251D01*
X0084430Y0173746D02*
X0080894Y0177282D01*
D24*
G36*
X0097582Y0158332D02*
X0083299Y0172615D01*
X0085562Y0174878D01*
X0099845Y0160595D01*
X0097582Y0158332D01*
G37*
D25*
X0220037Y0177900D03*
D26*
X0237287Y0175400D03*
X0202787Y0175400D03*
D27*
X0215037Y0175400D03*
X0225037Y0175400D03*
D28*
X0220037Y0175400D03*
X0210037Y0175400D03*
X0230037Y0175400D03*
D29*
X0005037Y0204990D02*
X0005037Y0008140D01*
X0398737Y0008140D01*
X0398737Y0204990D01*
X0005037Y0204990D01*
D30*
X0382537Y0158140D02*
X0387537Y0158140D01*
X0390037Y0155640D01*
X0390037Y0150640D01*
X0387537Y0148140D01*
X0382537Y0148140D01*
X0382537Y0063140D02*
X0387537Y0063140D01*
X0390037Y0060640D01*
X0390037Y0055640D01*
X0387537Y0053140D01*
X0382537Y0053140D01*
D31*
X0385037Y0058140D03*
X0385037Y0153140D03*
D32*
X0255037Y0123640D03*
D33*
X0255037Y0129890D03*
X0255037Y0106390D03*
D34*
X0253337Y0058140D02*
X0248837Y0058140D01*
X0248837Y0048140D01*
X0248837Y0038140D01*
X0253337Y0038140D01*
X0253337Y0058140D01*
X0246537Y0055640D02*
X0241537Y0055640D01*
X0244037Y0058140D02*
X0244037Y0053140D01*
X0245037Y0048140D02*
X0248837Y0048140D01*
X0257537Y0048140D02*
X0265037Y0048140D01*
X0358698Y0093140D02*
X0358698Y0100640D01*
X0368698Y0104840D02*
X0348698Y0104840D01*
X0348698Y0109340D01*
X0358698Y0109340D01*
X0368698Y0109340D01*
X0368698Y0104840D01*
X0358698Y0109340D02*
X0358698Y0113140D01*
X0363698Y0114140D02*
X0368698Y0114140D01*
X0366198Y0111640D02*
X0366198Y0116640D01*
X0153537Y0120640D02*
X0148537Y0120640D01*
X0146237Y0118140D02*
X0141737Y0118140D01*
X0141737Y0138140D01*
X0146237Y0138140D01*
X0146237Y0128140D01*
X0146237Y0118140D01*
X0151037Y0118140D02*
X0151037Y0123140D01*
X0150037Y0128140D02*
X0146237Y0128140D01*
X0137537Y0128140D02*
X0130037Y0128140D01*
X0141737Y0058140D02*
X0146237Y0058140D01*
X0146237Y0048140D01*
X0146237Y0038140D01*
X0141737Y0038140D01*
X0141737Y0058140D01*
X0137537Y0048140D02*
X0130037Y0048140D01*
X0146237Y0048140D02*
X0150037Y0048140D01*
X0151037Y0043140D02*
X0151037Y0038140D01*
X0148537Y0040640D02*
X0153537Y0040640D01*
D35*
X0136237Y0048140D03*
X0258837Y0048140D03*
X0136237Y0128140D03*
D36*
X0358698Y0099340D03*
D37*
X0298777Y0177150D03*
D38*
X0327777Y0174150D03*
X0269777Y0174150D03*
D39*
X0288027Y0174150D03*
X0309527Y0174150D03*
D40*
X0298777Y0174150D03*
X0320277Y0174150D03*
X0277277Y0174150D03*
M02*
