G75*
%MOIN*%
%OFA0B0*%
%FSLAX25Y25*%
%IPPOS*%
%LPD*%
%AMOC8*
5,1,8,0,0,1.08239X$1,22.5*
%
%ADD10C,0.00300*%
%ADD11C,0.00500*%
%ADD12C,0.00000*%
%ADD13C,0.00800*%
%ADD14R,0.02000X0.02000*%
D10*
X0284369Y0012673D02*
X0284986Y0012055D01*
X0285603Y0012055D01*
X0284369Y0012673D02*
X0284369Y0015759D01*
X0286838Y0015759D02*
X0286838Y0013907D01*
X0286220Y0013290D01*
X0284369Y0013290D01*
X0288059Y0013290D02*
X0289293Y0013290D01*
X0288676Y0013290D02*
X0288676Y0016993D01*
X0289293Y0016993D01*
X0291125Y0015759D02*
X0290507Y0015141D01*
X0290507Y0013907D01*
X0291125Y0013290D01*
X0292976Y0013290D01*
X0292976Y0012055D02*
X0292976Y0015759D01*
X0291125Y0015759D01*
X0294190Y0015141D02*
X0294190Y0013907D01*
X0294808Y0013290D01*
X0296659Y0013290D01*
X0297874Y0013290D02*
X0297874Y0015759D01*
X0296659Y0015759D02*
X0294808Y0015759D01*
X0294190Y0015141D01*
X0296659Y0015759D02*
X0296659Y0012055D01*
X0297874Y0013290D02*
X0299725Y0013290D01*
X0300342Y0013907D01*
X0300342Y0015759D01*
X0301557Y0015759D02*
X0303408Y0015759D01*
X0304026Y0015141D01*
X0303408Y0014524D01*
X0302174Y0014524D01*
X0301557Y0013907D01*
X0302174Y0013290D01*
X0304026Y0013290D01*
X0308923Y0014524D02*
X0308923Y0015141D01*
X0309540Y0015759D01*
X0310775Y0015759D01*
X0311392Y0015141D01*
X0311392Y0013907D01*
X0310775Y0013290D01*
X0309540Y0013290D01*
X0308923Y0014524D02*
X0311392Y0014524D01*
X0312606Y0015759D02*
X0313841Y0013290D01*
X0315075Y0015759D01*
X0316913Y0015759D02*
X0316913Y0013290D01*
X0317530Y0013290D02*
X0316296Y0013290D01*
X0318751Y0013290D02*
X0319369Y0013907D01*
X0319369Y0016376D01*
X0319986Y0015759D02*
X0318751Y0015759D01*
X0317530Y0015759D02*
X0316913Y0015759D01*
X0316913Y0016993D02*
X0316913Y0017610D01*
X0321824Y0017610D02*
X0321824Y0016993D01*
X0321824Y0015759D02*
X0321824Y0013290D01*
X0322441Y0013290D02*
X0321207Y0013290D01*
X0323656Y0013907D02*
X0324273Y0014524D01*
X0325507Y0014524D01*
X0326124Y0015141D01*
X0325507Y0015759D01*
X0323656Y0015759D01*
X0322441Y0015759D02*
X0321824Y0015759D01*
X0323656Y0013907D02*
X0324273Y0013290D01*
X0326124Y0013290D01*
X0327339Y0013907D02*
X0327339Y0015141D01*
X0327956Y0015759D01*
X0329190Y0015759D01*
X0329808Y0015141D01*
X0329808Y0013907D01*
X0329190Y0013290D01*
X0327956Y0013290D01*
X0327339Y0013907D01*
X0331022Y0013907D02*
X0331022Y0015141D01*
X0331639Y0015759D01*
X0333491Y0015759D01*
X0333491Y0012055D01*
X0333491Y0013290D02*
X0331639Y0013290D01*
X0331022Y0013907D01*
X0338392Y0015759D02*
X0339009Y0015759D01*
X0340243Y0014524D01*
X0341457Y0014524D02*
X0343309Y0014524D01*
X0343926Y0013907D01*
X0343309Y0013290D01*
X0341457Y0013290D01*
X0341457Y0015141D01*
X0342075Y0015759D01*
X0343309Y0015759D01*
X0345764Y0016993D02*
X0345764Y0013290D01*
X0345147Y0013290D02*
X0346382Y0013290D01*
X0347596Y0013907D02*
X0347596Y0015141D01*
X0348213Y0015759D01*
X0349448Y0015759D01*
X0350065Y0015141D01*
X0350065Y0013907D01*
X0349448Y0013290D01*
X0348213Y0013290D01*
X0347596Y0013907D01*
X0346382Y0016993D02*
X0345764Y0016993D01*
X0340243Y0015759D02*
X0340243Y0013290D01*
X0351279Y0013907D02*
X0351896Y0013290D01*
X0353748Y0013290D01*
X0354969Y0013290D02*
X0356203Y0013290D01*
X0355586Y0013290D02*
X0355586Y0015759D01*
X0356203Y0015759D01*
X0357418Y0015141D02*
X0358035Y0015759D01*
X0359887Y0015759D01*
X0359887Y0016993D02*
X0359887Y0013290D01*
X0358035Y0013290D01*
X0357418Y0013907D01*
X0357418Y0015141D01*
X0355586Y0016993D02*
X0355586Y0017610D01*
X0353748Y0015759D02*
X0351896Y0015759D01*
X0351279Y0015141D01*
X0351279Y0013907D01*
X0353748Y0012055D02*
X0353748Y0015759D01*
D11*
X0374580Y0038390D02*
X0373562Y0039407D01*
X0373562Y0043477D01*
X0374580Y0044495D01*
X0377632Y0044495D01*
X0377632Y0038390D01*
X0374580Y0038390D01*
X0379639Y0038390D02*
X0379639Y0044495D01*
X0383709Y0044495D02*
X0379639Y0038390D01*
X0383709Y0038390D02*
X0383709Y0044495D01*
X0385716Y0043477D02*
X0386734Y0044495D01*
X0388769Y0044495D01*
X0389787Y0043477D01*
X0389787Y0039407D01*
X0388769Y0038390D01*
X0386734Y0038390D01*
X0385716Y0039407D01*
X0385716Y0041442D01*
X0387751Y0041442D01*
X0382751Y0168390D02*
X0380716Y0170425D01*
X0380716Y0174495D01*
X0378709Y0171442D02*
X0374639Y0171442D01*
X0376674Y0173477D02*
X0376674Y0169407D01*
X0382751Y0168390D02*
X0384787Y0170425D01*
X0384787Y0174495D01*
X0014787Y0124495D02*
X0013769Y0125513D01*
X0011734Y0123477D01*
X0010716Y0124495D01*
X0013769Y0085513D02*
X0011734Y0083477D01*
X0010716Y0084495D01*
X0013769Y0085513D02*
X0014787Y0084495D01*
D12*
X0005037Y0008140D02*
X0005037Y0204990D01*
X0398737Y0204990D01*
X0398737Y0008140D01*
X0005037Y0008140D01*
D13*
X0015080Y0067836D02*
X0011544Y0071372D01*
X0011544Y0074908D01*
X0015080Y0078443D01*
X0018615Y0078443D01*
X0022151Y0074908D01*
X0015080Y0107836D02*
X0011544Y0111372D01*
X0011544Y0114908D01*
X0015080Y0118443D01*
X0018615Y0118443D01*
X0022151Y0114908D01*
D14*
G36*
X0018262Y0113140D02*
X0016848Y0111726D01*
X0015434Y0113140D01*
X0016848Y0114554D01*
X0018262Y0113140D01*
G37*
G36*
X0018262Y0073140D02*
X0016848Y0071726D01*
X0015434Y0073140D01*
X0016848Y0074554D01*
X0018262Y0073140D01*
G37*
M02*
