%
M48
M72
T01C0.02362
T02C0.03600
T03C0.03937
T04C0.04000
T05C0.04400
T06C0.05200
T07C0.05500
T08C0.07900
T09C0.11024
T10C0.12598
%
T01
X175037Y178140
X195037Y188140
X175037Y158140
X175037Y138140
X180037Y138140
X180037Y133140
X175037Y133140
X175037Y128140
X180037Y128140
X245037Y123140
X185037Y88140
X185037Y83140
X185037Y78140
X210037Y73140
X210037Y68140
X210037Y63140
X250037Y73140
X250037Y78140
X250037Y83140
X320037Y73140
X325037Y73140
X325037Y78140
X325037Y68140
X320037Y68140
X140037Y78140
X135037Y78140
X135037Y73140
X135037Y83140
X135037Y93140
X270037Y188140
T02
X205037Y143140
X230037Y143140
X277084Y143140
X310037Y143140
X310037Y93140
X277084Y93140
X230037Y93140
X205037Y93140
T03
X288304Y169400
X298777Y169400
X309249Y169400
T04
X80894Y177282
X102108Y156069
X210037Y169400
X220037Y169400
X230037Y169400
T05
X255037Y138140
X255037Y98140
T06
X45037Y57265
X45037Y155865
T07
X80037Y136289
X80037Y96919
X80037Y67392
X80037Y37864
X277277Y166900
X320277Y166900
T08
X120351Y128140
X159722Y128140
X159722Y48140
X120351Y48140
X235351Y48140
X274722Y48140
X358698Y83455
X358698Y122825
T09
X141296Y193140
X16848Y113140
X16848Y73140
X298777Y193140
X385037Y153140
X385037Y58140
T10
X27674Y20935
X27674Y192195
X376100Y192195
X376100Y20935
M30
