G75*
%MOIN*%
%OFA0B0*%
%FSLAX25Y25*%
%IPPOS*%
%LPD*%
%AMOC8*
5,1,8,0,0,1.08239X$1,22.5*
%
%ADD10C,0.08610*%
%ADD11C,0.10800*%
%ADD12OC8,0.05975*%
%ADD13C,0.01296*%
%ADD14C,0.06480*%
%ADD15OC8,0.15824*%
%ADD16C,0.00000*%
%ADD17C,0.17398*%
%ADD18C,0.15824*%
%ADD19C,0.07048*%
%ADD20C,0.18900*%
%ADD21OC8,0.18900*%
%ADD22C,0.06391*%
%ADD23C,0.04762*%
D10*
X0076132Y0037864D02*
X0083942Y0037864D01*
X0083942Y0067392D02*
X0076132Y0067392D01*
X0076132Y0096919D02*
X0083942Y0096919D01*
X0083942Y0136289D02*
X0076132Y0136289D01*
X0277277Y0162995D02*
X0277277Y0170805D01*
X0320277Y0170805D02*
X0320277Y0162995D01*
D11*
X0050037Y0155865D02*
X0040037Y0155865D01*
X0040037Y0057265D02*
X0050037Y0057265D01*
D12*
X0205037Y0093140D03*
X0230037Y0093140D03*
X0277084Y0093140D03*
X0310037Y0093140D03*
X0310037Y0143140D03*
X0277084Y0143140D03*
X0230037Y0143140D03*
X0205037Y0143140D03*
D13*
X0102534Y0154126D02*
X0103182Y0153478D01*
X0101034Y0153478D01*
X0099517Y0154995D01*
X0099517Y0157143D01*
X0101034Y0158660D01*
X0103182Y0158660D01*
X0104699Y0157143D01*
X0104699Y0154995D01*
X0103182Y0153478D01*
X0102779Y0154450D01*
X0101437Y0154450D01*
X0100489Y0155398D01*
X0100489Y0156740D01*
X0101437Y0157688D01*
X0102779Y0157688D01*
X0103727Y0156740D01*
X0103727Y0155398D01*
X0102779Y0154450D01*
X0102376Y0155422D01*
X0101840Y0155422D01*
X0101461Y0155801D01*
X0101461Y0156337D01*
X0101840Y0156716D01*
X0102376Y0156716D01*
X0102755Y0156337D01*
X0102755Y0155801D01*
X0102376Y0155422D01*
X0081320Y0175339D02*
X0081968Y0174691D01*
X0079820Y0174691D01*
X0078303Y0176208D01*
X0078303Y0178356D01*
X0079820Y0179873D01*
X0081968Y0179873D01*
X0083485Y0178356D01*
X0083485Y0176208D01*
X0081968Y0174691D01*
X0081565Y0175663D01*
X0080223Y0175663D01*
X0079275Y0176611D01*
X0079275Y0177953D01*
X0080223Y0178901D01*
X0081565Y0178901D01*
X0082513Y0177953D01*
X0082513Y0176611D01*
X0081565Y0175663D01*
X0081162Y0176635D01*
X0080626Y0176635D01*
X0080247Y0177014D01*
X0080247Y0177550D01*
X0080626Y0177929D01*
X0081162Y0177929D01*
X0081541Y0177550D01*
X0081541Y0177014D01*
X0081162Y0176635D01*
D14*
X0210037Y0172240D02*
X0210037Y0166560D01*
X0220037Y0166560D02*
X0220037Y0172240D01*
X0230037Y0172240D02*
X0230037Y0166560D01*
D15*
X0298777Y0193140D03*
X0141296Y0193140D03*
D16*
X0005037Y0204990D02*
X0005037Y0008140D01*
X0398737Y0008140D01*
X0398737Y0204990D01*
X0005037Y0204990D01*
D17*
X0027674Y0192195D03*
X0027674Y0020935D03*
X0376100Y0020935D03*
X0376100Y0192195D03*
D18*
X0370013Y0153140D02*
X0385037Y0153140D01*
X0385037Y0058140D02*
X0370013Y0058140D01*
X0027471Y0062516D02*
X0016848Y0073140D01*
X0027471Y0102516D02*
X0016848Y0113140D01*
D19*
X0255037Y0098140D03*
X0255037Y0138140D03*
D20*
X0159722Y0128140D03*
X0159722Y0048140D03*
X0235351Y0048140D03*
X0358698Y0122825D03*
D21*
X0358698Y0083455D03*
X0274722Y0048140D03*
X0120351Y0048140D03*
X0120351Y0128140D03*
D22*
X0288304Y0166604D02*
X0288304Y0172195D01*
X0298777Y0172195D02*
X0298777Y0166604D01*
X0309249Y0166604D02*
X0309249Y0172195D01*
D23*
X0270037Y0188140D03*
X0195037Y0188140D03*
X0175037Y0178140D03*
X0175037Y0158140D03*
X0175037Y0138140D03*
X0180037Y0138140D03*
X0180037Y0133140D03*
X0175037Y0133140D03*
X0175037Y0128140D03*
X0180037Y0128140D03*
X0245037Y0123140D03*
X0185037Y0088140D03*
X0185037Y0083140D03*
X0185037Y0078140D03*
X0210037Y0073140D03*
X0210037Y0068140D03*
X0210037Y0063140D03*
X0250037Y0073140D03*
X0250037Y0078140D03*
X0250037Y0083140D03*
X0320037Y0073140D03*
X0325037Y0073140D03*
X0325037Y0078140D03*
X0325037Y0068140D03*
X0320037Y0068140D03*
X0140037Y0078140D03*
X0135037Y0078140D03*
X0135037Y0073140D03*
X0135037Y0083140D03*
X0135037Y0093140D03*
M02*
